<svg id="Layer_1" data-name="Layer 1" xmlns="http://www.w3.org/2000/svg" viewBox="0 0 1600 768"><defs><style>.cls-1,.cls-2{fill:#42ff71;}.cls-1{opacity:0.47;}.cls-2{opacity:0.2;}</style></defs><title>Artboard 1</title><path id="_1" data-name="1" class="cls-1" d="M2002.2,23.07a4.92,4.92,0,0,0-7.58,5.95l-44.4,27.46a5.31,5.31,0,0,0-.88-1,5.62,5.62,0,0,0-7.9.68,5.48,5.48,0,0,0-1.28,3.76L1826.92,72.67a6.45,6.45,0,0,0-2.19-3.82,6.55,6.55,0,0,0-7.6-.56l-9.65-13.61a3.26,3.26,0,0,0,.42-.41,4.05,4.05,0,0,0-.5-5.73,4.15,4.15,0,0,0-1.22-.7L1812,24.11a3.18,3.18,0,1,0-1.74-.73,3.27,3.27,0,0,0,.86.5l-5.85,23.74a4.07,4.07,0,1,0,1.44,7.59l9.64,13.59a7,7,0,0,0-.88.85,6.51,6.51,0,0,0,.8,9.19c.06,0,.12.07.17.12l-57.33,83.84a5.58,5.58,0,0,0-5.78.19l-37.12-47.74c.1-.1.2-.18.29-.28a4.06,4.06,0,0,0-.5-5.74,4.08,4.08,0,1,0-.51,6.58l37.12,47.74a5.9,5.9,0,0,0-.51.49,5.57,5.57,0,0,0-1.13,5l-12.73,4.43a4,4,0,0,0-1-1.35,4.09,4.09,0,1,0,1.34,2.21l12.76-4.44a5.53,5.53,0,0,0,1.48,2,5.61,5.61,0,0,0,3,1.26L1753,259.75a7.32,7.32,0,0,0-4.15,1.41l-7-8.35c.15-.15.31-.28.45-.44a6.28,6.28,0,1,0-1.15,1l7,8.37a6.88,6.88,0,0,0-.62.59,7.37,7.37,0,0,0-1.13,7.6l-77.38,38.1a8.24,8.24,0,0,0-1.81-2.2,8.06,8.06,0,0,0-10.52.16l-19.48-19.54.07-.07a6.08,6.08,0,0,0-.75-8.59,5.9,5.9,0,0,0-1.84-1l7.16-25.15a4.89,4.89,0,1,0-2.28-1,4.84,4.84,0,0,0,1.41.8l-7.17,25.15a6.09,6.09,0,1,0,2.75,10.57l19.47,19.54c0,.07-.13.12-.19.19a8,8,0,0,0,.19,10.51L1617,356.12l-.06-.05a6,6,0,0,0-8.46.73,5.9,5.9,0,0,0-1.31,4.79L1571.93,370a9.12,9.12,0,0,0-6-6.12L1573,338a6.1,6.1,0,1,0-.88-.23l-7.06,25.86a9.11,9.11,0,0,0-6.23,17l-8.26,17.72a9.17,9.17,0,0,0-10.45,2.56,9,9,0,0,0-2.1,5.17l-49.93-1.42a11.24,11.24,0,0,0-11.06-11.1l-.79-34.29a9.72,9.72,0,1,0-8.12-15.93,10.34,10.34,0,0,0-.64.84L1433,323.3a9.69,9.69,0,0,0-2.29-12.07,11,11,0,0,0-1.47-1l25.51-50.17a8.19,8.19,0,1,0,2.66-15.65l-7.08-53.35a5.86,5.86,0,1,0-.9.12l7.08,53.38a7.94,7.94,0,0,0-6.17,5.21l-36.83-11.18a9.73,9.73,0,0,0-13.83-11.05l-35.3-62.22a8.71,8.71,0,0,0,3.43-11.08l14.22-7a5.74,5.74,0,0,0,1.23,1.48,5.85,5.85,0,0,0,8.2-.71,5.79,5.79,0,0,0-6.28-9.21L1374.67,114a4.89,4.89,0,1,0-.84.35l10.47,24.76a6,6,0,0,0-1.79,1.42,5.76,5.76,0,0,0-.92,5.87l-14.22,7a8.94,8.94,0,0,0-2-2.5,9,9,0,0,0-12.68,1.1c-.13.16-.23.35-.35.52l-67.52-43.85A8.41,8.41,0,0,0,1282.9,98a8.53,8.53,0,0,0-2.9-1.59l4.15-16a5.76,5.76,0,0,0,5.24-9.61L1305.8,53a5.86,5.86,0,1,0-.66-.62l-16.41,17.75a5.79,5.79,0,0,0-7.32,9,5.59,5.59,0,0,0,1.86,1l-4.16,16.06a8.47,8.47,0,0,0-5.94,1L1201.49-10.67a7.52,7.52,0,0,0,1.13-1.06,7,7,0,0,0-.86-9.9,7.06,7.06,0,0,0-9.93.86,6.93,6.93,0,0,0-1.52,5.7l-74.8,17.88A4.92,4.92,0,0,0,1114,.59a5,5,0,1,0-6.43,7.61,5,5,0,0,0,7-.6,4.89,4.89,0,0,0,1.1-3.91l74.79-17.88a7,7,0,0,0,2.18,3.31,7.06,7.06,0,0,0,8,.7L1272.4,97.7A8.61,8.61,0,0,0,1271,99a8.41,8.41,0,0,0,0,10.84l-13.35,12.37a3.73,3.73,0,0,0-.34-.35,7.69,7.69,0,0,0-10.75.87L1235,114a5.75,5.75,0,0,0-1.12-7.56,5.8,5.8,0,1,0,.58,8.29L1246,123.5a7.55,7.55,0,0,0,4.85,11.72l-2.75,19.85a5.76,5.76,0,0,0-5.67,8l-44.31,23.08a4.81,4.81,0,0,0-1-1.16,5.15,5.15,0,1,0,1.42,2l44.32-23.08a5.56,5.56,0,0,0,1.16,1.37,5.8,5.8,0,1,0,7.48-8.87,5.69,5.69,0,0,0-2.5-1.2l2.75-19.84a7.63,7.63,0,0,0,6.51-12.47l13.34-12.37c.15.14.26.29.41.42a8.51,8.51,0,0,0,12-1,5,5,0,0,0,.32-.48l67.53,43.85a8.88,8.88,0,0,0,4.69,12.9L1351,184a5.78,5.78,0,1,0-1,11.41l2.29,19.45a3.93,3.93,0,1,0,3.45.8,3.89,3.89,0,0,0-2.55-.9l-2.32-19.47a5.76,5.76,0,0,0,2.61-10.09,5.62,5.62,0,0,0-1.62-.93l5.47-17.79a9.1,9.1,0,0,0,6.22-.66L1398.85,228a9.7,9.7,0,0,0-1.09,15.65,9.72,9.72,0,0,0,15.44-4.18L1450,250.63a8.19,8.19,0,0,0,2.67,8.22,7.74,7.74,0,0,0,1.19.8l-25.5,50.17a9.72,9.72,0,1,0,3.47,15.09c.23-.27.43-.55.63-.83L1467,344.93a9.71,9.71,0,0,0,8.33,14.34l.77,34.29a11.28,11.28,0,0,0-7.92,4c-.14.16-.26.34-.39.51l-18.67-12.76a7.26,7.26,0,0,0-1.55-9.31,7.31,7.31,0,1,0,.89,10.27c.06-.07.09-.14.15-.21l18.66,12.76a11.18,11.18,0,0,0-1.72,6.06l-54,2.62a9.35,9.35,0,0,0-3.32-6.32,9.49,9.49,0,0,0-13.34,1.16,9.31,9.31,0,0,0-2.06,4.56l-77.19-8.69a8,8,0,0,0-13.68-6l-16-14a6.57,6.57,0,1,0-.61.67l16,14a8,8,0,0,0-.84,8.59l-77.18,45.3a9.19,9.19,0,0,0-1.79-2.07,9.43,9.43,0,1,0-12.16,14.42c.15.13.31.21.46.32l-37.78,56a6.79,6.79,0,0,0-6.95.11l-46.5-65a5.61,5.61,0,0,0,.65-.64,5.53,5.53,0,1,0-1.4,1.16l46.49,65a7.47,7.47,0,0,0-.9.88,6.79,6.79,0,1,0,9.58-.83c-.07-.06-.15-.1-.22-.15l37.78-56a9.41,9.41,0,0,0,8,.8l4.94,12a6.55,6.55,0,0,0-2.07,1.62,6.52,6.52,0,1,0,2.92-1.95l-5-12a9.22,9.22,0,0,0,3.24-2.45,9.38,9.38,0,0,0,1.12-10.44l77.18-45.3a8.49,8.49,0,0,0,1.48,1.7,8,8,0,0,0,8.54,1.11l34.16,63.57a14.18,14.18,0,0,0-2.35,23.34,13.73,13.73,0,0,0,1.55,1.11l-49.5,76.42a10.25,10.25,0,1,0,1.44,1c-.22-.18-.45-.35-.68-.51l49.51-76.44a14.28,14.28,0,0,0,17.76-3.31,14.1,14.1,0,0,0,3.22-10.92l9.44-1.71a5,5,0,0,0,1.61,2.5,5,5,0,1,0-.61-7.1,5,5,0,0,0-1.17,3.7l-9.4,1.72a14.24,14.24,0,0,0-20-10.2l-34.17-63.61a7.67,7.67,0,0,0,3.71-5.45l77.19,8.69a9.43,9.43,0,1,0,18.84.61l54-2.62a11.24,11.24,0,0,0,9.43,10.08l-1.13,12.84a5.12,5.12,0,1,0,1,.09l1.13-12.81a11.33,11.33,0,0,0,7-1.83L1553,510.72a11.35,11.35,0,0,0-1.62,1.56,10.93,10.93,0,0,0-1.57,11.61l-8.66,4.43a5.07,5.07,0,1,0,.82,2.75,5,5,0,0,0-.37-1.86l8.67-4.43a10.86,10.86,0,0,0,2.45,3,11,11,0,0,0,5.9,2.5l-7.49,112.45a14,14,0,0,0-13.53,8.9L1506,640.52a8.76,8.76,0,0,0-10-11.1l-3.51-14.83a6.61,6.61,0,0,0,2.31-11.4,6.67,6.67,0,0,0-9.38.81,6.45,6.45,0,0,0-1.16,2l-17.9-5a5,5,0,0,0-8.29-4.5l-27-23.87a11.61,11.61,0,0,0,1.56-12.26l39.69-20.13a8.88,8.88,0,0,0,1.89,2.29,8.6,8.6,0,1,0-1.05-12.11,8.5,8.5,0,0,0-1.25,9l-39.69,20.15a11.67,11.67,0,0,0-13.6-5.46L1405,515.29a4.94,4.94,0,0,0,1.79-1.34,5,5,0,0,0,.63-5.53L1446,484.08a4,4,0,0,0,.75.79,5,5,0,1,0-.62-7.09,5,5,0,0,0-.62,5.54L1407,507.65a5,5,0,1,0-7.25,6.92,5.07,5.07,0,0,0,4.47,1l13.52,38.83a11.66,11.66,0,0,0-3.27,19.79,11.81,11.81,0,0,0,3.83,2.13l-21.66,74.25a14.19,14.19,0,0,0-8.87.61L1379,631.81a10.33,10.33,0,1,0-14.75-7l-20.8,5.55a6.52,6.52,0,0,0-2-2.9,6.63,6.63,0,1,0,2.2,3.78l20.8-5.55a10.25,10.25,0,0,0,3.2,4.79,10.4,10.4,0,0,0,10.49,1.7l8.74,19.39a14,14,0,0,0-7,17.64l-62.38,25.85a13.75,13.75,0,0,0-3.72-4.91,14,14,0,0,0-19.73,1.7,13.89,13.89,0,0,0-3.25,9.72L1263,704a12.59,12.59,0,0,0-19.59-8.84l-14.33-19.44a12.73,12.73,0,0,0,1.71-1.66,12,12,0,1,0-2.45,2.18l14.34,19.45a12,12,0,0,0-1.81,1.76,12.46,12.46,0,0,0-2.21,12.29l-97.19,38.41a10.49,10.49,0,0,0-14.86-4.77l-17.54-27.2a7.94,7.94,0,0,0,1.39-1.27,7.79,7.79,0,1,0-13.74-4.43l-60.26,8a6.9,6.9,0,0,0-2.34-4,7,7,0,0,0-7.35-1l-33.6-63.95a6.22,6.22,0,0,0,1.48-1.24,6.16,6.16,0,1,0-10.86-4.05l-89,5.23a4.92,4.92,0,1,0-8,4.5,5,5,0,0,0,7-.6,4.9,4.9,0,0,0,1.13-3l89-5.22a6.1,6.1,0,0,0,8.52,4.8l33.6,64a6.74,6.74,0,0,0-1.73,1.44,7,7,0,0,0-.92,7.59l-22.06,12.63a6.59,6.59,0,0,0-1.3-1.5,7,7,0,1,0,1.78,2.27l22-12.63a7.13,7.13,0,0,0,1.31,1.5,7,7,0,0,0,6.54,1.34l8,21.42a6.17,6.17,0,0,0-2.26,1.69,6.4,6.4,0,0,0,.78,9,6.43,6.43,0,1,0,2.32-11.07l-8-21.41a6.89,6.89,0,0,0,4.13-6.83l60.26-8a7.67,7.67,0,0,0,2.61,4.49,7.8,7.8,0,0,0,8.84.8l17.54,27.21a10.62,10.62,0,0,0-2,1.81,10.49,10.49,0,1,0,17.94,3.31L1239,710.53a12.55,12.55,0,0,0,15.7,6.79l9,22.89a9,9,0,0,0-4.33,12.4l-47.94,27.8a8.92,8.92,0,0,0-1.74-2,9.06,9.06,0,1,0,2.23,2.78l47.94-27.81a9,9,0,0,0,1.73,2,9.09,9.09,0,1,0,3-15.52l-9-22.88a12.53,12.53,0,0,0,7.54-12.13l27.79-2.38a13.83,13.83,0,0,0,4.88,9,14,14,0,0,0,19.72-1.7,13.88,13.88,0,0,0,2.37-13.93L1380.23,670a14.1,14.1,0,0,0,14.57,8.15l2.14,11.11a6,6,0,1,0,1.63-.23c-.22,0-.43,0-.64,0L1395.79,678a14.12,14.12,0,0,0,8.12-4.75,15.58,15.58,0,0,0,1.39-2l74.37,39.91a14.77,14.77,0,0,0,2,16.26l-31.43,28.62c-.32-.32-.65-.63-1-.93a13.84,13.84,0,0,0-11.76-2.93l-3.45-12.49a4.65,4.65,0,1,0-1.71.34,4.53,4.53,0,0,0,.74-.08l3.44,12.46a13.77,13.77,0,0,0-9.65,10l-36.66-7.55a6.58,6.58,0,1,0-1.48,3.35,6.41,6.41,0,0,0,1.29-2.46l36.67,7.55a13.78,13.78,0,0,0,9.29,15.46l-5.36,18.06a9.67,9.67,0,1,0,4,2,9.54,9.54,0,0,0-3.08-1.73l5.35-18.06a13.81,13.81,0,0,0,14-22.34l31.43-28.62c.34.35.71.69,1.09,1a14.76,14.76,0,0,0,8.24,3.4l.91.06a14.89,14.89,0,0,0,9.53-3.12L1516,747.39a9.48,9.48,0,0,0,4.28,16.48l-1.81,11.72-.42,0a6,6,0,0,0-5.73,4.16l-9.88-2.28a3.31,3.31,0,0,0,.06-.55,4.75,4.75,0,1,0-.28,1.53l9.88,2.28a5.88,5.88,0,0,0,2.27,5.6l-10.6,16.28a4.65,4.65,0,1,0,2.58,4.14,4.64,4.64,0,0,0-1.74-3.6l10.6-16.28a5.9,5.9,0,0,0,2.84.72,6,6,0,0,0,1.41-11.83l1.82-11.72c.31,0,.63.05,1,.05a9.52,9.52,0,0,0,9.41-8l22.62,2.32c0,.07,0,.14,0,.22a7,7,0,1,0,.11-1.21L1531.74,755c0-.16,0-.31,0-.47a9.54,9.54,0,0,0-15-7.8l-14-17.91a14.26,14.26,0,0,0,1.5-1.51,14.76,14.76,0,0,0-.87-20l37.94-40.24.23.22a14.06,14.06,0,0,0,16.71,1l7.47,10.82A10,10,0,0,0,1571.4,697v9.57a3.6,3.6,0,1,0,1,0V697a10,10,0,0,0,9.14-7.24l10.49,2.41a6.11,6.11,0,0,0-.07.86,6,6,0,1,0,.29-1.84l-10.48-2.41a10,10,0,0,0-15.13-10.26l-7.48-10.83c.36-.28.71-.57,1-.88l.64-.65c.18-.19.37-.37.54-.57a13.93,13.93,0,0,0,.61-17.18l51.68-39.9a8.7,8.7,0,0,0,.85.87,7.89,7.89,0,1,0,4.6-13.89l-1.43-12a3.57,3.57,0,1,0-1,.13l1.43,12a7.93,7.93,0,0,0-4.58,2.67,7.83,7.83,0,0,0-.43,9.51l-51.69,39.9a13.79,13.79,0,0,0-9.41-5l7.48-112.44a10.95,10.95,0,0,0,10.43-15.14L1597,502.66a6.86,6.86,0,0,0,1.55,1.91,6.68,6.68,0,0,0,4.36,1.53l2,25.91a5,5,0,0,0-2.4,8.79,5,5,0,1,0,3.31-8.86l-2-25.9a6.64,6.64,0,0,0,.51-13.07l4.18-26.79a5,5,0,0,0,4.19-1.77,5,5,0,0,0,1.1-2.44l31.19,2.14a5,5,0,0,0,1.77,3.74,5,5,0,0,0,6.51-7.71,5.87,5.87,0,0,0-.58-.39l19.18-37.64a3.59,3.59,0,0,0,3.53-6.12,3.63,3.63,0,0,0-5.08.44,3.59,3.59,0,0,0,.44,5.06c.1.08.2.13.3.2l-19.18,37.65a5.05,5.05,0,0,0-5.73,1.41,5,5,0,0,0-1.1,2.45l-31.19-2.14a5,5,0,0,0-1.78-3.74,5,5,0,1,0-4.47,8.72l-4.18,26.77a6.68,6.68,0,0,0-5.7,2.35,6.61,6.61,0,0,0-1.1,6.67l-27.06,12.49a11,11,0,0,0-6.07-5.29l3.56-12.59a5.28,5.28,0,0,0,.9.09,5.14,5.14,0,1,0-1.86-.36l-3.56,12.56a11.07,11.07,0,0,0-8.81,1.46l-69.91-96.58a11.52,11.52,0,0,0,1.67-1.61,11.16,11.16,0,0,0,2.6-6.46l50,1.43a9,9,0,0,0,3.23,6.8,9.16,9.16,0,1,0,10.17-15.09l8.25-17.71a9.17,9.17,0,0,0,10.45-2.55l0,0,30,22.54a5,5,0,0,0,1,6.55,5,5,0,1,0-.42-7.27l-30-22.57a9.06,9.06,0,0,0,1.42-6.78l35.27-8.38a5.89,5.89,0,0,0,1.84,2.76,6,6,0,0,0,8.47-.73,5.94,5.94,0,0,0,0-7.74L1656.7,318c.06.06.11.13.18.19a8.07,8.07,0,0,0,4.63,1.84l-.33,25.17a4.92,4.92,0,1,0,.91,0l.33-25.17a8,8,0,0,0,7-11.14l77.39-38.1a7.25,7.25,0,0,0,6.37,3.69l3.19,57.14a6.12,6.12,0,0,0-3.89,2.1,6.75,6.75,0,0,0-.44.65l-18-9.68a4.9,4.9,0,0,0-1.35-5.7,5,5,0,0,0-7,.6,4.94,4.94,0,0,0,7.57,6.34,4.37,4.37,0,0,0,.31-.44l18,9.68a6.07,6.07,0,0,0,1.62,7.15,6.15,6.15,0,0,0,8.63-.75,6.07,6.07,0,0,0-4.57-10l-3.19-57.13a7.38,7.38,0,0,0-.18-14.68l2.72-86.59a5.85,5.85,0,0,0,1.74-.39l28.38,57.95a4,4,0,0,0-.94.8,4.13,4.13,0,1,0,1.76-1.2l-28.38-57.94a5.5,5.5,0,0,0,.74-9l-.08-.06,57.34-83.84a6.53,6.53,0,0,0,2.85.87l0,18.13a4.07,4.07,0,1,0,3.09.93,4.16,4.16,0,0,0-2.18-.94l0-18.11a6.59,6.59,0,0,0,4.54-2.3,6.45,6.45,0,0,0,1.5-4.48l113.23-12.71a5.52,5.52,0,0,0,1.87,3.21,5.6,5.6,0,0,0,8.57-6.86l44.4-27.42a5.22,5.22,0,0,0,.76.8,4.92,4.92,0,1,0,6.34-7.52ZM1502.79,706.73c-.09-.08-.17-.17-.27-.25a14.78,14.78,0,0,0-8.88-3.44V693a6,6,0,1,0-1,0v10a14.81,14.81,0,0,0-11.05,5.27,14.42,14.42,0,0,0-1.48,2.12l-74.37-39.92a14,14,0,0,0-8.27-19.65l21.66-74.25a11.72,11.72,0,0,0,11.27-3.26l27,23.88a5,5,0,0,0,.8,6.73,5,5,0,0,0,7-.6,4.9,4.9,0,0,0,.82-1.43l17.92,5a6.56,6.56,0,0,0,7.56,7.86l3.52,14.81a8.79,8.79,0,0,0-3.21,15.18,8.85,8.85,0,0,0,12.44-1.07,9,9,0,0,0,1.37-2.34l31.62,11.07a14,14,0,0,0,3.45,14.06Z"/><path id="_2" data-name="2" class="cls-2" d="M2004.2,55.07a4.92,4.92,0,0,0-7.58,6l-44.4,27.46a5.31,5.31,0,0,0-.88-1,5.62,5.62,0,0,0-7.9.68,5.48,5.48,0,0,0-1.28,3.76l-113.24,12.71a6.45,6.45,0,0,0-2.19-3.82,6.55,6.55,0,0,0-7.6-.56l-9.65-13.61a3.26,3.26,0,0,0,.42-.41,4.05,4.05,0,0,0-.5-5.73,4.15,4.15,0,0,0-1.22-.7L1814,56.11a3.18,3.18,0,1,0-1.74-.73,3.27,3.27,0,0,0,.86.5l-5.85,23.74a4.07,4.07,0,1,0,1.44,7.59l9.64,13.59a7,7,0,0,0-.88.85,6.51,6.51,0,0,0,.8,9.19c.06,0,.12.07.17.12l-57.33,83.84a5.58,5.58,0,0,0-5.78.19l-37.12-47.74c.1-.1.2-.18.29-.28a4.06,4.06,0,0,0-.5-5.74,4.08,4.08,0,1,0-.51,6.58l37.12,47.74a5.9,5.9,0,0,0-.51.49,5.57,5.57,0,0,0-1.13,5l-12.73,4.43a4,4,0,0,0-1-1.35,4.09,4.09,0,1,0,1.34,2.21l12.76-4.44a5.53,5.53,0,0,0,1.48,2,5.61,5.61,0,0,0,3,1.26L1755,291.75a7.32,7.32,0,0,0-4.15,1.41l-7-8.35c.15-.15.31-.28.45-.44a6.28,6.28,0,1,0-1.15,1l7,8.37a6.88,6.88,0,0,0-.62.59,7.37,7.37,0,0,0-1.13,7.6l-77.38,38.1a8.24,8.24,0,0,0-1.81-2.2,8.06,8.06,0,0,0-10.52.16l-19.48-19.54.07-.07a6.08,6.08,0,0,0-.75-8.59,5.9,5.9,0,0,0-1.84-1l7.16-25.15a4.89,4.89,0,1,0-2.28-1.05,4.84,4.84,0,0,0,1.41.8l-7.17,25.15a6.09,6.09,0,1,0,2.75,10.57l19.47,19.54c0,.07-.13.12-.19.19a8,8,0,0,0,.19,10.51L1619,388.12l-.06-.05a6,6,0,0,0-8.46.73,5.9,5.9,0,0,0-1.31,4.79L1573.93,402a9.12,9.12,0,0,0-6-6.12L1575,370a6.1,6.1,0,1,0-.88-.23l-7.06,25.86a9.11,9.11,0,0,0-6.23,17l-8.26,17.72a9.17,9.17,0,0,0-10.45,2.56,9,9,0,0,0-2.1,5.17l-49.93-1.42a11.24,11.24,0,0,0-11.06-11.1l-.79-34.29a9.72,9.72,0,1,0-8.12-15.93,10.34,10.34,0,0,0-.64.84L1435,355.3a9.69,9.69,0,0,0-2.29-12.07,11,11,0,0,0-1.47-1l25.51-50.17a8.19,8.19,0,1,0,2.66-15.65l-7.08-53.35a5.86,5.86,0,1,0-.9.12l7.08,53.38a7.94,7.94,0,0,0-6.17,5.21l-36.83-11.18a9.73,9.73,0,0,0-13.83-11.05l-35.3-62.22a8.71,8.71,0,0,0,3.43-11.08l14.22-7a5.74,5.74,0,0,0,1.23,1.48,5.85,5.85,0,0,0,8.2-.71,5.79,5.79,0,0,0-6.28-9.21L1376.67,146a4.89,4.89,0,1,0-.84.35l10.47,24.76a6,6,0,0,0-1.79,1.42,5.76,5.76,0,0,0-.92,5.87l-14.22,7a8.94,8.94,0,0,0-2-2.5,9,9,0,0,0-12.68,1.1c-.13.16-.23.35-.35.52l-67.52-43.85A8.41,8.41,0,0,0,1284.9,130a8.53,8.53,0,0,0-2.9-1.59l4.15-16a5.76,5.76,0,0,0,5.24-9.61L1307.8,85a5.86,5.86,0,1,0-.66-.62l-16.41,17.75a5.79,5.79,0,0,0-7.32,9,5.59,5.59,0,0,0,1.86,1l-4.16,16.06a8.47,8.47,0,0,0-5.94,1L1203.49,21.33a7.52,7.52,0,0,0,1.13-1.06,7,7,0,0,0-10.79-9,6.93,6.93,0,0,0-1.52,5.7l-74.8,17.88a4.92,4.92,0,0,0-1.49-2.22,5,5,0,1,0,.6,7,4.89,4.89,0,0,0,1.1-3.91l74.79-17.88a7,7,0,0,0,2.18,3.31,7.06,7.06,0,0,0,8,.7L1274.4,129.7A8.61,8.61,0,0,0,1273,131a8.41,8.41,0,0,0,0,10.84l-13.35,12.37a3.73,3.73,0,0,0-.34-.35,7.69,7.69,0,0,0-10.75.87L1237,146a5.75,5.75,0,0,0-1.12-7.56,5.8,5.8,0,1,0,.58,8.29L1248,155.5a7.55,7.55,0,0,0,4.85,11.72l-2.75,19.85a5.76,5.76,0,0,0-5.67,8l-44.31,23.08a4.81,4.81,0,0,0-1-1.16,5.15,5.15,0,1,0,1.42,2l44.32-23.08a5.56,5.56,0,0,0,1.16,1.37,5.8,5.8,0,1,0,7.48-8.87,5.69,5.69,0,0,0-2.5-1.2l2.75-19.84a7.63,7.63,0,0,0,6.51-12.47l13.34-12.37c.15.14.26.29.41.42a8.51,8.51,0,0,0,12-1,5,5,0,0,0,.32-.48l67.53,43.85a8.88,8.88,0,0,0,4.69,12.9L1353,216a5.78,5.78,0,1,0-1,11.41l2.29,19.45a3.93,3.93,0,1,0,3.45.8,3.89,3.89,0,0,0-2.55-.9l-2.32-19.47a5.76,5.76,0,0,0,2.61-10.09,5.62,5.62,0,0,0-1.62-.93l5.47-17.79a9.1,9.1,0,0,0,6.22-.66L1400.85,260a9.7,9.7,0,0,0-1.09,15.65,9.72,9.72,0,0,0,15.44-4.18L1452,282.63a8.19,8.19,0,0,0,2.67,8.22,7.74,7.74,0,0,0,1.19.8l-25.5,50.17a9.72,9.72,0,1,0,3.47,15.09c.23-.27.43-.55.63-.83L1469,376.93a9.71,9.71,0,0,0,8.33,14.34l.77,34.29a11.28,11.28,0,0,0-7.92,4c-.14.16-.26.34-.39.51l-18.67-12.76a7.26,7.26,0,0,0-1.55-9.31,7.31,7.31,0,1,0,.89,10.27c.06-.07.09-.14.15-.21l18.66,12.76a11.18,11.18,0,0,0-1.72,6.06l-54,2.62a9.35,9.35,0,0,0-3.32-6.32,9.49,9.49,0,0,0-13.34,1.16,9.31,9.31,0,0,0-2.06,4.56l-77.19-8.69a8,8,0,0,0-13.68-6l-16-14a6.57,6.57,0,1,0-.61.67l16,14a8,8,0,0,0-.84,8.59l-77.18,45.3a9.19,9.19,0,0,0-1.79-2.07,9.43,9.43,0,1,0-12.16,14.42c.15.13.31.21.46.32l-37.78,56a6.79,6.79,0,0,0-6.95.11l-46.5-65a5.61,5.61,0,0,0,.65-.64,5.53,5.53,0,1,0-1.4,1.16l46.49,65a7.47,7.47,0,0,0-.9.88,6.79,6.79,0,1,0,9.58-.83c-.07-.06-.15-.1-.22-.15l37.78-56a9.41,9.41,0,0,0,8,.8l4.94,12a6.55,6.55,0,0,0-2.07,1.62,6.52,6.52,0,1,0,2.92-1.95l-5-12a9.22,9.22,0,0,0,3.24-2.45,9.38,9.38,0,0,0,1.12-10.44l77.18-45.3a8.49,8.49,0,0,0,1.48,1.7,8,8,0,0,0,8.54,1.11l34.16,63.57a14.18,14.18,0,0,0-2.35,23.34,13.73,13.73,0,0,0,1.55,1.11l-49.5,76.42a10.25,10.25,0,1,0,1.44,1c-.22-.18-.45-.35-.68-.51l49.51-76.44a14.28,14.28,0,0,0,17.76-3.31,14.1,14.1,0,0,0,3.22-10.92l9.44-1.71a5,5,0,0,0,1.61,2.5,5,5,0,1,0-.61-7.1,5,5,0,0,0-1.17,3.7l-9.4,1.72a14.24,14.24,0,0,0-20-10.2l-34.17-63.61a7.67,7.67,0,0,0,3.71-5.45l77.19,8.69a9.43,9.43,0,1,0,18.84.61l54-2.62a11.24,11.24,0,0,0,9.43,10.08l-1.13,12.84a5.12,5.12,0,1,0,1,.09l1.13-12.81a11.33,11.33,0,0,0,7-1.83L1555,542.72a11.35,11.35,0,0,0-1.62,1.56,10.93,10.93,0,0,0-1.57,11.61l-8.66,4.43a5.07,5.07,0,1,0,.82,2.75,5,5,0,0,0-.37-1.86l8.67-4.43a10.86,10.86,0,0,0,2.45,3,11,11,0,0,0,5.9,2.5l-7.49,112.45a14,14,0,0,0-13.53,8.9L1508,672.52a8.76,8.76,0,0,0-10-11.1l-3.51-14.83a6.61,6.61,0,0,0,2.31-11.4,6.67,6.67,0,0,0-9.38.81,6.45,6.45,0,0,0-1.16,2l-17.9-5a5,5,0,0,0-8.29-4.5l-27-23.87a11.61,11.61,0,0,0,1.56-12.26l39.69-20.13a8.88,8.88,0,0,0,1.89,2.29,8.6,8.6,0,1,0-1.05-12.11,8.5,8.5,0,0,0-1.25,9l-39.69,20.15a11.67,11.67,0,0,0-13.6-5.46L1407,547.29a4.94,4.94,0,0,0,1.79-1.34,5,5,0,0,0,.63-5.53L1448,516.08a4,4,0,0,0,.75.79,5,5,0,1,0-.62-7.09,5,5,0,0,0-.62,5.54L1409,539.65a5,5,0,1,0-7.25,6.92,5.07,5.07,0,0,0,4.47,1l13.52,38.83a11.66,11.66,0,0,0-3.27,19.79,11.81,11.81,0,0,0,3.83,2.13l-21.66,74.25a14.19,14.19,0,0,0-8.87.61L1381,663.81a10.33,10.33,0,1,0-14.75-7l-20.8,5.55a6.52,6.52,0,0,0-2-2.9,6.63,6.63,0,1,0,2.2,3.78l20.8-5.55a10.25,10.25,0,0,0,3.2,4.79,10.4,10.4,0,0,0,10.49,1.7l8.74,19.39a14,14,0,0,0-7,17.64l-62.38,25.85a13.75,13.75,0,0,0-3.72-4.91,14,14,0,0,0-19.73,1.7,13.89,13.89,0,0,0-3.25,9.72L1265,736a12.59,12.59,0,0,0-19.59-8.84l-14.33-19.44a12.73,12.73,0,0,0,1.71-1.66,12,12,0,1,0-2.45,2.18l14.34,19.45a12,12,0,0,0-1.81,1.76,12.46,12.46,0,0,0-2.21,12.29l-97.19,38.41a10.49,10.49,0,0,0-14.86-4.77l-17.54-27.2a7.94,7.94,0,0,0,1.39-1.27,7.79,7.79,0,1,0-13.74-4.43l-60.26,8a6.9,6.9,0,0,0-2.34-4,7,7,0,0,0-7.35-1l-33.6-63.95a6.22,6.22,0,0,0,1.48-1.24,6.16,6.16,0,1,0-10.86-4.05l-89,5.23a4.92,4.92,0,1,0-8,4.5,5,5,0,0,0,7-.6,4.9,4.9,0,0,0,1.13-3l89-5.22a6.1,6.1,0,0,0,8.52,4.8l33.6,64a6.74,6.74,0,0,0-1.73,1.44,7,7,0,0,0-.92,7.59l-22.06,12.63a6.59,6.59,0,0,0-1.3-1.5,7,7,0,1,0,1.78,2.27l22-12.63a7.13,7.13,0,0,0,1.31,1.5,7,7,0,0,0,6.54,1.34l8,21.42a6.17,6.17,0,0,0-2.26,1.69,6.4,6.4,0,0,0,.78,9,6.43,6.43,0,1,0,2.32-11.07l-8-21.41a6.89,6.89,0,0,0,4.13-6.83l60.26-8a7.67,7.67,0,0,0,2.61,4.49,7.8,7.8,0,0,0,8.84.8l17.54,27.21a10.62,10.62,0,0,0-2,1.81,10.49,10.49,0,1,0,17.94,3.31L1241,742.53a12.55,12.55,0,0,0,15.7,6.79l9,22.89a9,9,0,0,0-4.33,12.4l-47.94,27.8a8.92,8.92,0,0,0-1.74-2,9.06,9.06,0,1,0,2.23,2.78l47.94-27.81a9,9,0,0,0,1.73,2,9.09,9.09,0,1,0,3-15.52l-9-22.88a12.53,12.53,0,0,0,7.54-12.13l27.79-2.38a13.83,13.83,0,0,0,4.88,9,14,14,0,0,0,19.72-1.7,13.88,13.88,0,0,0,2.37-13.93L1382.23,702a14.1,14.1,0,0,0,14.57,8.15l2.14,11.11a6,6,0,1,0,1.63-.23c-.22,0-.43,0-.64,0L1397.79,710a14.12,14.12,0,0,0,8.12-4.75,15.58,15.58,0,0,0,1.39-2l74.37,39.91a14.77,14.77,0,0,0,2,16.26l-31.43,28.62c-.32-.32-.65-.63-1-.93a13.84,13.84,0,0,0-11.76-2.93l-3.45-12.49a4.65,4.65,0,1,0-1.71.34,4.53,4.53,0,0,0,.74-.08l3.44,12.46a13.77,13.77,0,0,0-9.65,10l-36.66-7.55a6.58,6.58,0,1,0-1.48,3.35,6.41,6.41,0,0,0,1.29-2.46l36.67,7.55a13.78,13.78,0,0,0,9.29,15.46l-5.36,18.06a9.67,9.67,0,1,0,4,2,9.54,9.54,0,0,0-3.08-1.73l5.35-18.06a13.81,13.81,0,0,0,14-22.34l31.43-28.62c.34.35.71.69,1.09,1a14.76,14.76,0,0,0,8.24,3.4l.91.06a14.89,14.89,0,0,0,9.53-3.12L1518,779.39a9.48,9.48,0,0,0,4.28,16.48l-1.81,11.72-.42,0a6,6,0,0,0-5.73,4.16l-9.88-2.28a3.31,3.31,0,0,0,.06-.55,4.75,4.75,0,1,0-.28,1.53l9.88,2.28a5.88,5.88,0,0,0,2.27,5.6l-10.6,16.28a4.65,4.65,0,1,0,2.58,4.14,4.64,4.64,0,0,0-1.74-3.6l10.6-16.28a5.9,5.9,0,0,0,2.84.72,6,6,0,0,0,1.41-11.83l1.82-11.72c.31,0,.63.05,1,.05a9.52,9.52,0,0,0,9.41-8l22.62,2.32c0,.07,0,.14,0,.22a7,7,0,1,0,.11-1.21L1533.74,787c0-.16,0-.31,0-.47a9.54,9.54,0,0,0-15-7.8l-14-17.91a14.26,14.26,0,0,0,1.5-1.51,14.76,14.76,0,0,0-.87-20l37.94-40.24.23.22a14.06,14.06,0,0,0,16.71,1l7.47,10.82A10,10,0,0,0,1573.4,729v9.57a3.6,3.6,0,1,0,1,0V729a10,10,0,0,0,9.14-7.24l10.49,2.41a6.11,6.11,0,0,0-.07.86,6,6,0,1,0,.29-1.84l-10.48-2.41a10,10,0,0,0-15.13-10.26l-7.48-10.83c.36-.28.71-.57,1-.88l.64-.65c.18-.19.37-.37.54-.57a13.93,13.93,0,0,0,.61-17.18l51.68-39.9a8.7,8.7,0,0,0,.85.87,7.89,7.89,0,1,0,4.6-13.89l-1.43-12a3.57,3.57,0,1,0-1,.13l1.43,12a7.93,7.93,0,0,0-4.58,2.67,7.83,7.83,0,0,0-.43,9.51l-51.69,39.9a13.79,13.79,0,0,0-9.41-5l7.48-112.44a10.95,10.95,0,0,0,10.43-15.14L1599,534.66a6.86,6.86,0,0,0,1.55,1.91,6.68,6.68,0,0,0,4.36,1.53l2,25.91a5,5,0,0,0-2.4,8.79,5,5,0,1,0,3.31-8.86l-2-25.9a6.64,6.64,0,0,0,.51-13.07l4.18-26.79a5,5,0,0,0,4.19-1.77,5,5,0,0,0,1.1-2.44l31.19,2.14a5,5,0,0,0,1.77,3.74,5,5,0,0,0,6.51-7.71,5.87,5.87,0,0,0-.58-.39l19.18-37.64a3.59,3.59,0,0,0,3.53-6.12,3.63,3.63,0,0,0-5.08.44,3.59,3.59,0,0,0,.44,5.06c.1.08.2.13.3.2l-19.18,37.65a5.05,5.05,0,0,0-5.73,1.41,5,5,0,0,0-1.1,2.45l-31.19-2.14a5,5,0,0,0-1.78-3.74,5,5,0,1,0-4.47,8.72l-4.18,26.77a6.68,6.68,0,0,0-5.7,2.35,6.61,6.61,0,0,0-1.1,6.67l-27.06,12.49a11,11,0,0,0-6.07-5.29l3.56-12.59a5.28,5.28,0,0,0,.9.09,5.14,5.14,0,1,0-1.86-.36l-3.56,12.56a11.07,11.07,0,0,0-8.81,1.46l-69.91-96.58a11.52,11.52,0,0,0,1.67-1.61,11.16,11.16,0,0,0,2.6-6.46l50,1.43a9,9,0,0,0,3.23,6.8,9.16,9.16,0,1,0,10.17-15.09l8.25-17.71a9.17,9.17,0,0,0,10.45-2.55l0,0,30,22.54a5,5,0,0,0,1,6.55,5,5,0,1,0-.42-7.27l-30-22.57a9.06,9.06,0,0,0,1.42-6.78l35.27-8.38a5.89,5.89,0,0,0,1.84,2.76,6,6,0,0,0,8.47-.73,5.94,5.94,0,0,0,0-7.74L1658.7,350c.06.06.11.13.18.19a8.07,8.07,0,0,0,4.63,1.84l-.33,25.17a4.92,4.92,0,1,0,.91,0l.33-25.17a8,8,0,0,0,7-11.14l77.39-38.1a7.25,7.25,0,0,0,6.37,3.69l3.19,57.14a6.12,6.12,0,0,0-3.89,2.1,6.75,6.75,0,0,0-.44.65l-18-9.68a4.9,4.9,0,0,0-1.35-5.7,5,5,0,0,0-7,.6,4.94,4.94,0,0,0,7.57,6.34,4.37,4.37,0,0,0,.31-.44l18,9.68a6.07,6.07,0,0,0,1.62,7.15,6.15,6.15,0,0,0,8.63-.75,6.07,6.07,0,0,0-4.57-10l-3.19-57.13a7.38,7.38,0,0,0-.18-14.68l2.72-86.59a5.85,5.85,0,0,0,1.74-.39l28.38,58a4,4,0,0,0-.94.8,4.13,4.13,0,1,0,1.76-1.2l-28.38-57.94a5.5,5.5,0,0,0,.74-9l-.08-.06,57.34-83.84a6.53,6.53,0,0,0,2.85.87l0,18.13a4.07,4.07,0,1,0,3.09.93,4.16,4.16,0,0,0-2.18-.94l0-18.11a6.59,6.59,0,0,0,4.54-2.3,6.45,6.45,0,0,0,1.5-4.48l113.23-12.71a5.52,5.52,0,0,0,1.87,3.21,5.6,5.6,0,0,0,8.57-6.86l44.4-27.42a5.22,5.22,0,0,0,.76.8,4.92,4.92,0,1,0,6.34-7.52ZM1504.79,738.73c-.09-.08-.17-.17-.27-.25a14.78,14.78,0,0,0-8.88-3.44V725a6,6,0,1,0-1,0v10a14.81,14.81,0,0,0-11.05,5.27,14.42,14.42,0,0,0-1.48,2.12l-74.37-39.92a14,14,0,0,0-8.27-19.65l21.66-74.25a11.72,11.72,0,0,0,11.27-3.26l27,23.88a5,5,0,0,0,.8,6.73,5,5,0,0,0,7-.6,4.9,4.9,0,0,0,.82-1.43l17.92,5a6.56,6.56,0,0,0,7.56,7.86l3.52,14.81a8.79,8.79,0,0,0-3.21,15.18,8.85,8.85,0,0,0,12.44-1.07,9,9,0,0,0,1.37-2.34l31.62,11.07a14,14,0,0,0,3.45,14.06Z"/><path id="_3" data-name="3" class="cls-2" d="M73.35,592.49a2.9,2.9,0,0,0,1.18-5.57l9.71-29.27a3.25,3.25,0,0,0,.77.1,3.3,3.3,0,0,0,3.32-3.29,3.25,3.25,0,0,0-.84-2.2l46.6-48.61a3.84,3.84,0,0,0,6.11-1.72l9.57,2.54c0,.11,0,.22,0,.34a2.41,2.41,0,0,0,2.41,2.42,2.48,2.48,0,0,0,.82-.15l6.38,13a1.88,1.88,0,0,0,1.06,3.44,1.89,1.89,0,1,0,0-3.77,2.13,2.13,0,0,0-.58.1l-6.39-13a2.41,2.41,0,1,0-3.54-2.91l-9.56-2.52a3.45,3.45,0,0,0,.08-.72,3.87,3.87,0,0,0-3.87-3.87h-.12l-5.88-59.78a3.3,3.3,0,0,0,2.55-2.28l35,7.65a1.75,1.75,0,0,0,0,.24,2.46,2.46,0,1,0,.14-.77l-35-7.64c0-.14,0-.28,0-.42a3.3,3.3,0,0,0-1.39-2.69l4.1-6.83a2.46,2.46,0,1,0-.46-.28l-4.1,6.84a3.32,3.32,0,0,0-1.44-.34,3.28,3.28,0,0,0-1.83.54L96.4,390.71a4.31,4.31,0,0,0,1.35-2.22l6.36,1.15c0,.12,0,.24,0,.37a3.64,3.64,0,1,0,.12-.9L97.84,388a4.23,4.23,0,0,0,0-.5,4.34,4.34,0,0,0-2.38-3.88L116.16,337a5,5,0,0,0,1.66.32,4.77,4.77,0,0,0,4.72-4.06l16.29,1.51s0,0,0,.06a3.62,3.62,0,0,0,3.61,3.62,3.54,3.54,0,0,0,1.23-.23L150,352.35a2.88,2.88,0,0,0-1.5,2.52,3,3,0,1,0,2-2.74L144.16,338a3.6,3.6,0,1,0-5.28-3.76l-16.29-1.51c0-.05,0-.1,0-.16a4.75,4.75,0,0,0-4.09-4.7l3-32.41h0a3.52,3.52,0,0,0,2.34-6.2l12.81-17.14a5.47,5.47,0,0,0,3,.91,5.24,5.24,0,0,0,2-.39L148.38,287a3.76,3.76,0,1,0,.48-.22l-6.64-14.43a5.39,5.39,0,0,0-2.47-10.19,5.5,5.5,0,0,0-1.16.13l-3-11.18a5.35,5.35,0,0,0,2.76-8.26l23.23-18.24a6.68,6.68,0,0,0,9.25.86l13.42,15.28A5.75,5.75,0,1,0,194,245c0-.21,0-.41,0-.62l23.64-3.6a5.77,5.77,0,0,0,5.64,4.62,6,6,0,0,0,1.05-.1l7.53,32.45a4.84,4.84,0,1,0,4.74,8.11l23.54,21.56a3.35,3.35,0,0,0-.74,2.1,3.46,3.46,0,1,0,1.1-2.49l-23.54-21.57a4.79,4.79,0,0,0,1.12-3.06,5,5,0,0,0-.3-1.65l21-8.85a5.77,5.77,0,0,0,10.49-.22L309,286.55a5.2,5.2,0,0,0-.28,1.59,5.31,5.31,0,0,0,2.94,4.74l-3.79,8.56a3.43,3.43,0,1,0-1.14,6.66,3.42,3.42,0,0,0,2.92-1.63l14.2,7.29a2.9,2.9,0,0,0-.21,1.06,2.88,2.88,0,1,0,.46-1.53L309.87,306a3.37,3.37,0,0,0,.27-1.31,3.43,3.43,0,0,0-1.82-3l3.79-8.56a5.15,5.15,0,0,0,1.88.36,5.3,5.3,0,0,0,5.34-5.29,2.22,2.22,0,0,0,0-.37l47.38-5.63a5,5,0,0,0,4.92,4.15,5.1,5.1,0,0,0,1.92-.38l4.22,8.86a3.4,3.4,0,0,0,1.28,6.34l-.7,14.27a3.54,3.54,0,1,0,.54,0l.69-14.28a3.43,3.43,0,1,0-1.33-6.61L374,285.69a5,5,0,0,0,2.32-2.7L450,304.88a4.63,4.63,0,0,0-.11.92,4.17,4.17,0,0,0,8.34,0,4.1,4.1,0,0,0-1.48-3.17l27.18-36.42a2.91,2.91,0,0,0,1.52.45,2.95,2.95,0,1,0-2.94-3,2.88,2.88,0,0,0,1,2.2L456.3,302.33a4.15,4.15,0,0,0-6.17,2l-73.65-21.89a4.83,4.83,0,0,0,.15-1.15,5,5,0,0,0-4.12-4.93l1.35-10.67.28,0a4.53,4.53,0,0,0,4.56-4.46l8.59-.38a3.39,3.39,0,1,0,0-.54l-8.6.38a4.52,4.52,0,0,0-4.49-4.06,4.59,4.59,0,0,0-2.18.57l-6.31-10a3.41,3.41,0,0,0-.48-5.8l11.34-27.25a3,3,0,0,0,.9.15A3,3,0,1,0,376,214L364.7,241.22a3.31,3.31,0,0,0-1.05-.18,3.43,3.43,0,1,0,1.57,6.46l6.31,10.05a4.51,4.51,0,0,0,1.79,8.13L372,276.35c-.12,0-.23,0-.34,0a5,5,0,0,0-5,5c0,.12,0,.22,0,.34l-47.37,5.62a5.31,5.31,0,0,0-5.23-4.41,5.49,5.49,0,0,0-1.82.33L307.91,273a3.42,3.42,0,1,0-3.89-5.56l-8.45-8a2.3,2.3,0,0,0,.47-1.38,2.35,2.35,0,1,0-.84,1.77l8.47,8a3.38,3.38,0,0,0-.78,2.14,3.44,3.44,0,0,0,3.43,3.44,3.51,3.51,0,0,0,1.09-.19l4.29,10.15a5.3,5.3,0,0,0-2.57,2.65l-39.72-14.91a5.63,5.63,0,0,0,.29-1.75,5.77,5.77,0,0,0-11.54,0,5.56,5.56,0,0,0,.37,2l-21,8.86a4.85,4.85,0,0,0-4.34-2.73,4.69,4.69,0,0,0-.84.09l-7.52-32.44a5.75,5.75,0,1,0-7.33-5.55c0,.21,0,.42,0,.62l-23.64,3.6a5.76,5.76,0,0,0-5.64-4.61,5.68,5.68,0,0,0-3.6,1.25l-13.42-15.29a6.63,6.63,0,0,0,2.09-4.8c0-.13,0-.26,0-.38l13.35-1.27a4.22,4.22,0,1,0-.07-.69c0,.06,0,.1,0,.16l-13.34,1.26a6.64,6.64,0,0,0-1.52-3.41l23.53-21.62a5.6,5.6,0,0,0,9.54-4,5.55,5.55,0,0,0-.8-2.85l38.38-25.25a4.73,4.73,0,0,0,8.51-2.44l12.62.33a3.86,3.86,0,1,0,0-.54l-12.61-.32a4.74,4.74,0,0,0-2.89-4.22l17.81-49.78a5.57,5.57,0,1,0,1.63-10.89c-.12,0-.22,0-.33,0L263,54.76a4,4,0,0,0,3.11-2.68L312,64a3.1,3.1,0,0,0-.05.54,3.24,3.24,0,1,0,.19-1.06L266.23,51.57a4.65,4.65,0,0,0,.08-.74,4,4,0,1,0-4,4l.16,0,4.17,39.75a5.57,5.57,0,0,0-4,2.67l-6.82-3.58a3.67,3.67,0,0,0,.33-1.52,3.83,3.83,0,1,0-3.84,3.8,3.77,3.77,0,0,0,3.25-1.81l6.82,3.58a5.55,5.55,0,0,0,2.93,7.51L247.51,155a4.79,4.79,0,0,0-1.32-.21,4.72,4.72,0,0,0-4.3,2.72l-39.73-16a8.32,8.32,0,0,0,.59-3,8.45,8.45,0,0,0-9.54-8.36l-6.62-53.44a6.1,6.1,0,1,0-1,.09l.5,0,6.62,53.45a8.39,8.39,0,0,0-4.11,14.4L184.94,149a3,3,0,0,0-1.69-.52,3,3,0,1,0,3,3,3,3,0,0,0-.88-2.12L189,145a8.45,8.45,0,0,0,13-2.93l39.75,16a5,5,0,0,0-.26,1.5,4.57,4.57,0,0,0,.66,2.39l-38.38,25.25a5.6,5.6,0,0,0-10.12,3.27,5.52,5.52,0,0,0,1.33,3.58l-23.55,21.64a6.66,6.66,0,0,0-8.13-1l-4.38-6.26a3,3,0,1,0-4.28-.36,3,3,0,0,0,3.8.7l4.36,6.24a6.67,6.67,0,0,0-2.49,3.5L91.7,201a6.47,6.47,0,0,0-3.57-7.19l2.26-5.29a3,3,0,1,0-1-5.18,3,3,0,0,0-.38,4.24,3.09,3.09,0,0,0,.87.71l-2.25,5.29a6.49,6.49,0,0,0-5.87.68L42.29,140.34a8.24,8.24,0,0,0,3.2-6.49,8.4,8.4,0,0,0-.44-2.67l18.57-6.93a5.21,5.21,0,0,0,8.79,1.24l7.24,5.41a4,4,0,1,0,7,.77l10-4.5a2.93,2.93,0,0,0,5.48-1.08l21.36.61a6.88,6.88,0,0,0,4,6.16L117.13,157a5,5,0,0,0-1.73-.32,5.13,5.13,0,1,0,2.23.53L128,133.07a6.9,6.9,0,0,0,8.25-2.66L157.18,143a3.06,3.06,0,0,0-.31,1.28A3,3,0,0,0,158.7,147l-8.23,25.63a2.67,2.67,0,0,0-.64-.08,3,3,0,1,0,3,3,3,3,0,0,0-1.82-2.75l8.22-25.63a2.81,2.81,0,0,0,.65.07,3,3,0,1,0-2.4-4.73L136.53,130a7.07,7.07,0,0,0,.85-3.31,6.93,6.93,0,0,0-9.46-6.44L109.49,78.28a8.37,8.37,0,0,0,3.79-3.63l11.36,5.51a6.09,6.09,0,0,0,5.61,8.53A6.1,6.1,0,0,0,134,77.75l7.33-10.39a3.93,3.93,0,1,0-.44-.31l-7.34,10.39a6.13,6.13,0,0,0-8.69,2.23l-11.35-5.5A8.32,8.32,0,0,0,110,63.5l18.49-35.34a8.26,8.26,0,0,0,9.65-13.06L149.85,3.5a7.43,7.43,0,0,0,5.07,2A7.45,7.45,0,0,0,162.11.1L176,3.51a6.53,6.53,0,0,0-.15,1.4A7.07,7.07,0,1,0,176.16,3L162.24-.41a8.09,8.09,0,0,0,.16-1.49,7.43,7.43,0,0,0-3.68-6.42l29.52-54.22a6.17,6.17,0,0,0,2.71.63A6.22,6.22,0,0,0,196.81-66l18.33,5.72a4.42,4.42,0,0,0-.15,1.1,4.61,4.61,0,0,0,4.61,4.62,4.61,4.61,0,0,0,4.63-4.59,4.62,4.62,0,0,0-1.31-3.22l24.34-26.42a4.11,4.11,0,0,0,2.58.93,4.13,4.13,0,0,0,3.73-2.32l39.62,16.34a3.52,3.52,0,0,0-.2,1.12,3.64,3.64,0,0,0,3.64,3.65,3.65,3.65,0,0,0,3.66-3.62,3.59,3.59,0,0,0-.83-2.29L337.93-111a2.85,2.85,0,0,0,1.91.74,2.92,2.92,0,0,0,2.94-2.9,2.92,2.92,0,0,0-2.92-2.92,2.91,2.91,0,0,0-2.93,2.9,2.87,2.87,0,0,0,.63,1.79L299.1-75.37a3.63,3.63,0,0,0-2.45-1,3.62,3.62,0,0,0-3.26,2L253.77-90.67A4.06,4.06,0,0,0,254-92a4.16,4.16,0,0,0-2.47-3.8l5.21-14.08a4,4,0,0,0,1.16.19,4.14,4.14,0,0,0,4.17-4.13,4.15,4.15,0,0,0-4.14-4.16,4.15,4.15,0,0,0-4.17,4.14,4.13,4.13,0,0,0,2.47,3.79L251-95.95a4.15,4.15,0,0,0-1.17-.19,4.17,4.17,0,0,0-3.48,1.87L234.58-101a3.87,3.87,0,0,0,.39-1.63,3.82,3.82,0,0,0-3.8-3.81,3.82,3.82,0,0,0-3.83,3.79,3.81,3.81,0,0,0,3.8,3.81,3.81,3.81,0,0,0,3.18-1.69l11.8,6.69a4.19,4.19,0,0,0-.43,1.8,4.13,4.13,0,0,0,1.16,2.87L222.51-62.71a4.59,4.59,0,0,0-2.89-1,4.6,4.6,0,0,0-4.32,3L197-66.51a6.26,6.26,0,0,0,.21-1.57A6.21,6.21,0,0,0,191-74.3a6.21,6.21,0,0,0-6.23,6.18,6.19,6.19,0,0,0,3,5.33L158.25-8.57A7.42,7.42,0,0,0,155-9.35a7.44,7.44,0,0,0-6.43,3.64l-12.82-7a5.27,5.27,0,0,0,.55-2.31A5.38,5.38,0,0,0,133-20l11.19-30.77a5.37,5.37,0,0,0,1.56.26,5.38,5.38,0,0,0,5.41-5.36,5.38,5.38,0,0,0-5.38-5.38,5.38,5.38,0,0,0-5.41,5.35,5.37,5.37,0,0,0,3.31,5L132.44-20.13a5.37,5.37,0,0,0-1.56-.26A5.38,5.38,0,0,0,125.47-15a5.38,5.38,0,0,0,5.38,5.38,5.37,5.37,0,0,0,4.6-2.57l12.82,7a7.3,7.3,0,0,0-.79,3.3,7.39,7.39,0,0,0,2,5.06l-11.72,11.6A8.27,8.27,0,1,0,128,27.92l-18.5,35.34a8.35,8.35,0,0,0-9.72,1.81l-5.21-4.24a3.55,3.55,0,1,0-.65.72,3.45,3.45,0,0,0,.28-.26l5.18,4.22a8.31,8.31,0,0,0-1.75,6.66l-49,10a8.76,8.76,0,0,0-7.11-6.62l3.38-24.9a7.19,7.19,0,0,0,.81.05,8.2,8.2,0,0,0,6.46-3.12L58.51,52a2.76,2.76,0,1,0,.65-.8c-.11.1-.21.21-.31.32l-6.3-4.36A8.26,8.26,0,0,0,54,42.55a8.07,8.07,0,0,0-.86-3.64L72.64,28.46a3.77,3.77,0,1,0-.26-.47L52.85,38.43a8.21,8.21,0,0,0-7.07-4.08,8.06,8.06,0,0,0-3,.57L38.29,24.69a5.74,5.74,0,1,0-2.55.6,5.84,5.84,0,0,0,2.06-.38l4.45,10.23a8.16,8.16,0,0,0,2.14,15.45L41,75.48a8.65,8.65,0,0,0-.88,0,8.78,8.78,0,0,0-5,1.57l-.44.32a8.78,8.78,0,0,0-3.14,5L18.37,79.49a5.63,5.63,0,0,0-8.22-5.87l-3.64-6,.19-.15a3.54,3.54,0,0,0,1-4.06l5.36-2.7c.06.09.11.18.18.27a2.78,2.78,0,0,0,3.91.35,2.77,2.77,0,1,0-4.36-1.15l-5.36,2.7a3.64,3.64,0,0,0-.3-.42,3.55,3.55,0,0,0-2.86-1.26L2.9,49.78a2.84,2.84,0,0,0,1.16-.56A2.77,2.77,0,1,0,.5,45a2.75,2.75,0,0,0,1.81,4.87L3.7,61.25A3.65,3.65,0,0,0,2.13,62,3.55,3.55,0,0,0,6,67.91l3.64,6-.46.34A5.62,5.62,0,0,0,8,81.47L-3.19,89l-.08-.1a4.16,4.16,0,0,0-5.85-.53,4.13,4.13,0,0,0-.53,5.84,4.17,4.17,0,0,0,5.86.52,4.13,4.13,0,0,0,.93-5.24L8.3,82l.17.23a5.66,5.66,0,0,0,8,.71,5.61,5.61,0,0,0,1.82-2.84l13.17,2.86a8.67,8.67,0,0,0-.11,1.25,8.78,8.78,0,0,0,8,8.76L37.4,125.56h-.19a8.28,8.28,0,0,0-7.95,5.88l-7.52-2.09a5.92,5.92,0,0,0-9.36-6L8.73,119a2.11,2.11,0,0,0,.06-2.78,2.13,2.13,0,1,0-.51,3.16l3.64,4.34a5.9,5.9,0,0,0-1.39,6.75l-5.69,2.88a3.93,3.93,0,0,0-.29-.42,3.58,3.58,0,0,0-5-.45,3.55,3.55,0,0,0-.45,5,3.58,3.58,0,0,0,5,.45,3.55,3.55,0,0,0,1-4.07L10.8,131a5.47,5.47,0,0,0,.59.86,5.94,5.94,0,0,0,10.19-1.92L29.1,132a7,7,0,0,0-.14.8l-.05.54c0,.15,0,.3,0,.46a8.28,8.28,0,0,0,6.26,8l-8.28,37.68a4.18,4.18,0,0,0-.72-.08,4.67,4.67,0,1,0,0,9.33,4.63,4.63,0,0,0,3.22-1.27l5.22,4.91A2.12,2.12,0,1,0,35,192l-5.22-4.91a4.64,4.64,0,0,0-2.36-7.43L35.68,142a8.09,8.09,0,0,0,1.49.15,8.31,8.31,0,0,0,4.69-1.44l39.43,53.92a6.46,6.46,0,0,0,1,10.82l-7.53,15.91a4,4,0,0,0-1.43-.28,4,4,0,0,0-2.57.95L60,211a2.91,2.91,0,0,0,.73-1.92,3,3,0,1,0-3,3,3,3,0,0,0,1.89-.67l10.77,11a3.9,3.9,0,0,0-1,2.61,3.93,3.93,0,0,0,5.77,3.51l8.3,13.76a3,3,0,0,0-1.23,2.39,3,3,0,0,0,.43,1.53L67.66,257a3,3,0,1,0-2.25,4.94c.14,0,.27,0,.41,0l5.62,24.35a2.13,2.13,0,0,0,.73,4.12,2.13,2.13,0,1,0,0-4.25l-.21,0-5.63-24.36A3,3,0,0,0,68,257.41l15-10.82a3,3,0,1,0,2.25-4.94,3,3,0,0,0-1.31.31l-8.3-13.74a3.92,3.92,0,0,0-.34-6.67l7.54-15.92a6.55,6.55,0,0,0,2.51.52,6.71,6.71,0,0,0,2.26-.4l3.18,7.06a3.11,3.11,0,0,0-.44.3,3,3,0,1,0,1-.54l-3.17-7a6.5,6.5,0,0,0,3.45-4L160.11,219a6.75,6.75,0,0,0-.14,1.36,6.58,6.58,0,0,0,1.27,3.92L138,242.48a5.42,5.42,0,1,0-4.09,9,5.57,5.57,0,0,0,1.16-.13l3,11.17a5.39,5.39,0,0,0-3.78,5.11v0l-22.21,1.11a3,3,0,1,0,0,.54l22.24-1.12a5.37,5.37,0,0,0,1.94,3.62l-12.83,17.15a3.49,3.49,0,0,0-1.89-.56,3.54,3.54,0,0,0-.6,7l-3,32.4h-.15a4.7,4.7,0,0,0-2.81.91l-9.44-11.56a2.88,2.88,0,0,0,.88-2.07,2.93,2.93,0,1,0-1.29,2.41L114.62,329a4.72,4.72,0,0,0,1,7.73L95,383.36a4.27,4.27,0,0,0-1.51-.29,4.36,4.36,0,0,0-2.79,1L67.51,359.34a3.58,3.58,0,0,0,1-2.43,3.42,3.42,0,0,0,0-.46l11.84-2.4a2.9,2.9,0,1,0-.13-.84c0,.1,0,.21,0,.31l-11.85,2.4a3.62,3.62,0,1,0-1.21,3.78l23.21,24.75a4.32,4.32,0,0,0-1.21,3,4.37,4.37,0,0,0,4.38,4.38,4.3,4.3,0,0,0,2.5-.77l31.74,40.37a3.47,3.47,0,0,0-.64.83l-35-15.59a2.47,2.47,0,0,0,.12-.72,2.42,2.42,0,1,0-2.43,2.4,2.39,2.39,0,0,0,2.09-1.19l35,15.59a3.23,3.23,0,0,0-.2,1.08,3.29,3.29,0,0,0,3.29,3.29H130l5.89,59.78a3.83,3.83,0,0,0-1.63.68l-6.93-8.22a2.39,2.39,0,0,0,.67-1.65,2.42,2.42,0,1,0-2.42,2.4,2.49,2.49,0,0,0,1.35-.4l6.91,8.21a3.83,3.83,0,0,0-.16,5.37L87.1,551.89a3.36,3.36,0,0,0-2.07-.75,3.3,3.3,0,0,0-1.28,6.36L74,586.76a2.82,2.82,0,0,0-.65-.08,2.91,2.91,0,1,0,0,5.81ZM39.85,93h.22a8.75,8.75,0,0,0,5.35-1.8l3.81,4.54a3.54,3.54,0,1,0,.45-.38l-3.8-4.53a8.73,8.73,0,0,0,3-6.57,8.42,8.42,0,0,0-.14-1.52l49-10A8.36,8.36,0,0,0,109,78.5l18.44,41.93a6.86,6.86,0,0,0-3.87,5.74l-21.38-.62a2.95,2.95,0,0,0-5.89.17,2.77,2.77,0,0,0,.18,1l-10,4.5A3.93,3.93,0,0,0,83,129.1a4,4,0,0,0-3,1.37l-7.23-5.39a5.26,5.26,0,1,0-9.3-1.34l-18.58,6.94a8.31,8.31,0,0,0-6.93-5.09Z"/></svg>