<svg id="Layer_1" data-name="Layer 1" xmlns="http://www.w3.org/2000/svg" xmlns:xlink="http://www.w3.org/1999/xlink" viewBox="0 0 1373.93 988.45"><defs><style>.cls-1,.cls-10,.cls-11,.cls-16,.cls-17,.cls-18,.cls-21,.cls-27,.cls-28,.cls-33,.cls-34,.cls-35,.cls-38,.cls-4,.cls-44,.cls-45,.cls-50,.cls-51,.cls-52,.cls-55,.cls-61,.cls-62,.cls-67,.cls-68{opacity:0.5;}.cls-1{fill:url(#New_Gradient_Swatch_3);}.cls-2{fill:url(#New_Gradient_Swatch_3-2);}.cls-3{fill:url(#New_Gradient_Swatch_3-3);}.cls-4{fill:url(#New_Gradient_Swatch_3-4);}.cls-5{fill:url(#New_Gradient_Swatch_3-5);}.cls-6{fill:url(#New_Gradient_Swatch_3-6);}.cls-7{fill:url(#New_Gradient_Swatch_3-7);}.cls-8{fill:url(#New_Gradient_Swatch_3-8);}.cls-9{fill:url(#New_Gradient_Swatch_3-10);}.cls-10{fill:url(#New_Gradient_Swatch_3-12);}.cls-11{fill:url(#New_Gradient_Swatch_3-13);}.cls-12{fill:url(#New_Gradient_Swatch_3-14);}.cls-13{fill:url(#New_Gradient_Swatch_3-15);}.cls-14{fill:url(#New_Gradient_Swatch_3-16);}.cls-15{fill:url(#New_Gradient_Swatch_3-17);}.cls-16{fill:url(#New_Gradient_Swatch_3-19);}.cls-17{fill:url(#New_Gradient_Swatch_3-32);}.cls-18{fill:url(#New_Gradient_Swatch_3-40);}.cls-19{fill:url(#New_Gradient_Swatch_3-41);}.cls-20{fill:url(#New_Gradient_Swatch_3-42);}.cls-21{fill:url(#New_Gradient_Swatch_3-43);}.cls-22{fill:url(#New_Gradient_Swatch_3-44);}.cls-23{fill:url(#New_Gradient_Swatch_3-45);}.cls-24{fill:url(#New_Gradient_Swatch_3-46);}.cls-25{fill:url(#New_Gradient_Swatch_3-47);}.cls-26{fill:url(#New_Gradient_Swatch_3-49);}.cls-27{fill:url(#New_Gradient_Swatch_3-51);}.cls-28{fill:url(#New_Gradient_Swatch_3-52);}.cls-29{fill:url(#New_Gradient_Swatch_3-53);}.cls-30{fill:url(#New_Gradient_Swatch_3-54);}.cls-31{fill:url(#New_Gradient_Swatch_3-55);}.cls-32{fill:url(#New_Gradient_Swatch_3-56);}.cls-33{fill:url(#New_Gradient_Swatch_3-58);}.cls-34{fill:url(#New_Gradient_Swatch_3-71);}.cls-35{fill:url(#New_Gradient_Swatch_3-79);}.cls-36{fill:url(#New_Gradient_Swatch_3-80);}.cls-37{fill:url(#New_Gradient_Swatch_3-81);}.cls-38{fill:url(#New_Gradient_Swatch_3-82);}.cls-39{fill:url(#New_Gradient_Swatch_3-83);}.cls-40{fill:url(#New_Gradient_Swatch_3-84);}.cls-41{fill:url(#New_Gradient_Swatch_3-85);}.cls-42{fill:url(#New_Gradient_Swatch_3-86);}.cls-43{fill:url(#New_Gradient_Swatch_3-88);}.cls-44{fill:url(#New_Gradient_Swatch_3-90);}.cls-45{fill:url(#New_Gradient_Swatch_3-91);}.cls-46{fill:url(#New_Gradient_Swatch_3-92);}.cls-47{fill:url(#New_Gradient_Swatch_3-93);}.cls-48{fill:url(#New_Gradient_Swatch_3-94);}.cls-49{fill:url(#New_Gradient_Swatch_3-95);}.cls-50{fill:url(#New_Gradient_Swatch_3-97);}.cls-51{fill:url(#New_Gradient_Swatch_3-110);}.cls-52{fill:url(#New_Gradient_Swatch_3-118);}.cls-53{fill:url(#New_Gradient_Swatch_3-119);}.cls-54{fill:url(#New_Gradient_Swatch_3-120);}.cls-55{fill:url(#New_Gradient_Swatch_3-121);}.cls-56{fill:url(#New_Gradient_Swatch_3-122);}.cls-57{fill:url(#New_Gradient_Swatch_3-123);}.cls-58{fill:url(#New_Gradient_Swatch_3-124);}.cls-59{fill:url(#New_Gradient_Swatch_3-125);}.cls-60{fill:url(#New_Gradient_Swatch_3-127);}.cls-61{fill:url(#New_Gradient_Swatch_3-129);}.cls-62{fill:url(#New_Gradient_Swatch_3-130);}.cls-63{fill:url(#New_Gradient_Swatch_3-131);}.cls-64{fill:url(#New_Gradient_Swatch_3-132);}.cls-65{fill:url(#New_Gradient_Swatch_3-133);}.cls-66{fill:url(#New_Gradient_Swatch_3-134);}.cls-67{fill:url(#New_Gradient_Swatch_3-136);}.cls-68{fill:url(#New_Gradient_Swatch_3-149);}</style><linearGradient id="New_Gradient_Swatch_3" x1="4118.15" y1="-6146.25" x2="4955.72" y2="-6146.25" gradientTransform="translate(4970.09 -5860.22) rotate(180)" gradientUnits="userSpaceOnUse"><stop offset="0" stop-color="#ff4e00"/><stop offset="1" stop-color="#ff1791"/></linearGradient><linearGradient id="New_Gradient_Swatch_3-2" x1="4116.17" y1="-6094.65" x2="4960.63" y2="-6094.65" xlink:href="#New_Gradient_Swatch_3"/><linearGradient id="New_Gradient_Swatch_3-3" x1="4116.17" y1="-6146.16" x2="4960.63" y2="-6146.16" xlink:href="#New_Gradient_Swatch_3"/><linearGradient id="New_Gradient_Swatch_3-4" x1="4118.15" y1="-6095.92" x2="4955.72" y2="-6095.92" xlink:href="#New_Gradient_Swatch_3"/><linearGradient id="New_Gradient_Swatch_3-5" x1="4116.17" y1="-6146.25" x2="4960.63" y2="-6146.25" xlink:href="#New_Gradient_Swatch_3"/><linearGradient id="New_Gradient_Swatch_3-6" x1="4116.17" y1="-6095.92" x2="4960.63" y2="-6095.92" xlink:href="#New_Gradient_Swatch_3"/><linearGradient id="New_Gradient_Swatch_3-7" x1="4116.17" y1="-6142.22" x2="4960.63" y2="-6142.22" xlink:href="#New_Gradient_Swatch_3"/><linearGradient id="New_Gradient_Swatch_3-8" x1="4116.17" y1="-6155.55" x2="4960.63" y2="-6155.55" xlink:href="#New_Gradient_Swatch_3"/><linearGradient id="New_Gradient_Swatch_3-10" x1="4116.17" y1="-6083.71" x2="4960.63" y2="-6083.71" xlink:href="#New_Gradient_Swatch_3"/><linearGradient id="New_Gradient_Swatch_3-12" x1="4118.15" y1="-6146.16" x2="4955.72" y2="-6146.16" xlink:href="#New_Gradient_Swatch_3"/><linearGradient id="New_Gradient_Swatch_3-13" x1="4118.15" y1="-6029.04" x2="4955.72" y2="-6029.04" xlink:href="#New_Gradient_Swatch_3"/><linearGradient id="New_Gradient_Swatch_3-14" x1="4116.17" y1="-6046.95" x2="4960.63" y2="-6046.95" xlink:href="#New_Gradient_Swatch_3"/><linearGradient id="New_Gradient_Swatch_3-15" x1="4116.17" y1="-6046.85" x2="4960.63" y2="-6046.85" xlink:href="#New_Gradient_Swatch_3"/><linearGradient id="New_Gradient_Swatch_3-16" x1="4116.17" y1="-6050.88" x2="4960.63" y2="-6050.88" xlink:href="#New_Gradient_Swatch_3"/><linearGradient id="New_Gradient_Swatch_3-17" x1="4116.17" y1="-6037.55" x2="4960.63" y2="-6037.55" xlink:href="#New_Gradient_Swatch_3"/><linearGradient id="New_Gradient_Swatch_3-19" x1="4118.15" y1="-6046.95" x2="4955.72" y2="-6046.95" xlink:href="#New_Gradient_Swatch_3"/><linearGradient id="New_Gradient_Swatch_3-32" x1="4118.15" y1="-6046.85" x2="4955.72" y2="-6046.85" xlink:href="#New_Gradient_Swatch_3"/><linearGradient id="New_Gradient_Swatch_3-40" x1="4118.15" y1="-5894.32" x2="4955.72" y2="-5894.32" xlink:href="#New_Gradient_Swatch_3"/><linearGradient id="New_Gradient_Swatch_3-41" x1="4116.17" y1="-5945.91" x2="4960.63" y2="-5945.91" xlink:href="#New_Gradient_Swatch_3"/><linearGradient id="New_Gradient_Swatch_3-42" x1="4116.17" y1="-5894.41" x2="4960.63" y2="-5894.41" xlink:href="#New_Gradient_Swatch_3"/><linearGradient id="New_Gradient_Swatch_3-43" x1="4118.15" y1="-5944.64" x2="4955.72" y2="-5944.64" xlink:href="#New_Gradient_Swatch_3"/><linearGradient id="New_Gradient_Swatch_3-44" x1="4116.17" y1="-5894.32" x2="4960.63" y2="-5894.32" xlink:href="#New_Gradient_Swatch_3"/><linearGradient id="New_Gradient_Swatch_3-45" x1="4116.17" y1="-5944.64" x2="4960.63" y2="-5944.64" xlink:href="#New_Gradient_Swatch_3"/><linearGradient id="New_Gradient_Swatch_3-46" x1="4116.17" y1="-5898.35" x2="4960.63" y2="-5898.35" xlink:href="#New_Gradient_Swatch_3"/><linearGradient id="New_Gradient_Swatch_3-47" x1="4116.17" y1="-5885.01" x2="4960.63" y2="-5885.01" xlink:href="#New_Gradient_Swatch_3"/><linearGradient id="New_Gradient_Swatch_3-49" x1="4116.17" y1="-5956.86" x2="4960.63" y2="-5956.86" xlink:href="#New_Gradient_Swatch_3"/><linearGradient id="New_Gradient_Swatch_3-51" x1="4118.15" y1="-5894.41" x2="4955.72" y2="-5894.41" xlink:href="#New_Gradient_Swatch_3"/><linearGradient id="New_Gradient_Swatch_3-52" x1="4118.15" y1="-6006.95" x2="4955.72" y2="-6006.95" xlink:href="#New_Gradient_Swatch_3"/><linearGradient id="New_Gradient_Swatch_3-53" x1="4116.17" y1="-5993.62" x2="4960.63" y2="-5993.62" xlink:href="#New_Gradient_Swatch_3"/><linearGradient id="New_Gradient_Swatch_3-54" x1="4116.17" y1="-5993.71" x2="4960.63" y2="-5993.71" xlink:href="#New_Gradient_Swatch_3"/><linearGradient id="New_Gradient_Swatch_3-55" x1="4116.17" y1="-5989.68" x2="4960.63" y2="-5989.68" xlink:href="#New_Gradient_Swatch_3"/><linearGradient id="New_Gradient_Swatch_3-56" x1="4116.17" y1="-6003.01" x2="4960.63" y2="-6003.01" xlink:href="#New_Gradient_Swatch_3"/><linearGradient id="New_Gradient_Swatch_3-58" x1="4118.15" y1="-5993.62" x2="4955.72" y2="-5993.62" xlink:href="#New_Gradient_Swatch_3"/><linearGradient id="New_Gradient_Swatch_3-71" x1="4118.15" y1="-5993.71" x2="4955.72" y2="-5993.71" xlink:href="#New_Gradient_Swatch_3"/><linearGradient id="New_Gradient_Swatch_3-79" x1="4118.15" y1="-6448.64" x2="4955.72" y2="-6448.64" xlink:href="#New_Gradient_Swatch_3"/><linearGradient id="New_Gradient_Swatch_3-80" x1="4116.17" y1="-6397.05" x2="4960.63" y2="-6397.05" xlink:href="#New_Gradient_Swatch_3"/><linearGradient id="New_Gradient_Swatch_3-81" x1="4116.17" y1="-6448.55" x2="4960.63" y2="-6448.55" xlink:href="#New_Gradient_Swatch_3"/><linearGradient id="New_Gradient_Swatch_3-82" x1="4118.15" y1="-6398.32" x2="4955.72" y2="-6398.32" xlink:href="#New_Gradient_Swatch_3"/><linearGradient id="New_Gradient_Swatch_3-83" x1="4116.17" y1="-6448.64" x2="4960.63" y2="-6448.64" xlink:href="#New_Gradient_Swatch_3"/><linearGradient id="New_Gradient_Swatch_3-84" x1="4116.17" y1="-6398.32" x2="4960.63" y2="-6398.32" xlink:href="#New_Gradient_Swatch_3"/><linearGradient id="New_Gradient_Swatch_3-85" x1="4116.17" y1="-6444.62" x2="4960.63" y2="-6444.62" xlink:href="#New_Gradient_Swatch_3"/><linearGradient id="New_Gradient_Swatch_3-86" x1="4116.17" y1="-6457.95" x2="4960.63" y2="-6457.95" xlink:href="#New_Gradient_Swatch_3"/><linearGradient id="New_Gradient_Swatch_3-88" x1="4116.17" y1="-6386.11" x2="4960.63" y2="-6386.11" xlink:href="#New_Gradient_Swatch_3"/><linearGradient id="New_Gradient_Swatch_3-90" x1="4118.15" y1="-6448.55" x2="4955.72" y2="-6448.55" xlink:href="#New_Gradient_Swatch_3"/><linearGradient id="New_Gradient_Swatch_3-91" x1="4118.15" y1="-6331.44" x2="4955.72" y2="-6331.44" xlink:href="#New_Gradient_Swatch_3"/><linearGradient id="New_Gradient_Swatch_3-92" x1="4116.17" y1="-6349.34" x2="4960.63" y2="-6349.34" xlink:href="#New_Gradient_Swatch_3"/><linearGradient id="New_Gradient_Swatch_3-93" x1="4116.17" y1="-6349.25" x2="4960.63" y2="-6349.25" xlink:href="#New_Gradient_Swatch_3"/><linearGradient id="New_Gradient_Swatch_3-94" x1="4116.17" y1="-6353.28" x2="4960.63" y2="-6353.28" xlink:href="#New_Gradient_Swatch_3"/><linearGradient id="New_Gradient_Swatch_3-95" x1="4116.17" y1="-6339.95" x2="4960.63" y2="-6339.95" xlink:href="#New_Gradient_Swatch_3"/><linearGradient id="New_Gradient_Swatch_3-97" x1="4118.15" y1="-6349.34" x2="4955.72" y2="-6349.34" xlink:href="#New_Gradient_Swatch_3"/><linearGradient id="New_Gradient_Swatch_3-110" x1="4118.15" y1="-6349.25" x2="4955.72" y2="-6349.25" xlink:href="#New_Gradient_Swatch_3"/><linearGradient id="New_Gradient_Swatch_3-118" x1="4118.15" y1="-6196.72" x2="4955.72" y2="-6196.72" xlink:href="#New_Gradient_Swatch_3"/><linearGradient id="New_Gradient_Swatch_3-119" x1="4116.17" y1="-6248.31" x2="4960.63" y2="-6248.31" xlink:href="#New_Gradient_Swatch_3"/><linearGradient id="New_Gradient_Swatch_3-120" x1="4116.17" y1="-6196.81" x2="4960.63" y2="-6196.81" xlink:href="#New_Gradient_Swatch_3"/><linearGradient id="New_Gradient_Swatch_3-121" x1="4118.15" y1="-6247.04" x2="4955.72" y2="-6247.04" xlink:href="#New_Gradient_Swatch_3"/><linearGradient id="New_Gradient_Swatch_3-122" x1="4116.17" y1="-6196.72" x2="4960.63" y2="-6196.72" xlink:href="#New_Gradient_Swatch_3"/><linearGradient id="New_Gradient_Swatch_3-123" x1="4116.17" y1="-6247.04" x2="4960.63" y2="-6247.04" xlink:href="#New_Gradient_Swatch_3"/><linearGradient id="New_Gradient_Swatch_3-124" x1="4116.17" y1="-6200.74" x2="4960.63" y2="-6200.74" xlink:href="#New_Gradient_Swatch_3"/><linearGradient id="New_Gradient_Swatch_3-125" x1="4116.17" y1="-6187.41" x2="4960.63" y2="-6187.41" xlink:href="#New_Gradient_Swatch_3"/><linearGradient id="New_Gradient_Swatch_3-127" x1="4116.17" y1="-6259.25" x2="4960.63" y2="-6259.25" xlink:href="#New_Gradient_Swatch_3"/><linearGradient id="New_Gradient_Swatch_3-129" x1="4118.15" y1="-6196.81" x2="4955.72" y2="-6196.81" xlink:href="#New_Gradient_Swatch_3"/><linearGradient id="New_Gradient_Swatch_3-130" x1="4118.15" y1="-6309.35" x2="4955.72" y2="-6309.35" xlink:href="#New_Gradient_Swatch_3"/><linearGradient id="New_Gradient_Swatch_3-131" x1="4116.17" y1="-6296.02" x2="4960.63" y2="-6296.02" xlink:href="#New_Gradient_Swatch_3"/><linearGradient id="New_Gradient_Swatch_3-132" x1="4116.17" y1="-6296.11" x2="4960.63" y2="-6296.11" xlink:href="#New_Gradient_Swatch_3"/><linearGradient id="New_Gradient_Swatch_3-133" x1="4116.17" y1="-6292.08" x2="4960.63" y2="-6292.08" xlink:href="#New_Gradient_Swatch_3"/><linearGradient id="New_Gradient_Swatch_3-134" x1="4116.17" y1="-6305.41" x2="4960.63" y2="-6305.41" xlink:href="#New_Gradient_Swatch_3"/><linearGradient id="New_Gradient_Swatch_3-136" x1="4118.15" y1="-6296.02" x2="4955.72" y2="-6296.02" xlink:href="#New_Gradient_Swatch_3"/><linearGradient id="New_Gradient_Swatch_3-149" x1="4118.15" y1="-6296.11" x2="4955.72" y2="-6296.11" xlink:href="#New_Gradient_Swatch_3"/></defs><title>Artboard 1 copy</title><path class="cls-1" d="M807.74,276.23a3.94,3.94,0,1,0-5.57,5.57l14,14a3.94,3.94,0,0,0,5.57-5.57Z"/><path class="cls-2" d="M667.12,224.64a3.94,3.94,0,0,1,5.57,5.57l-14,14a3.94,3.94,0,0,1-5.57-5.57Z"/><path class="cls-3" d="M837,272a3.94,3.94,0,0,1,7.88,0v27.82a3.94,3.94,0,0,1-7.88,0Z"/><path class="cls-4" d="M699.93,221.79a3.94,3.94,0,1,1,7.88,0v27.82a3.94,3.94,0,1,1-7.88,0Z"/><path class="cls-5" d="M735.94,269.18a3.94,3.94,0,0,1,5.57,5.57l-28.15,28.12a3.94,3.94,0,0,1-5.57-5.57Z"/><path class="cls-6" d="M815.55,218.85a3.94,3.94,0,0,0-5.57,5.57l28.14,28.12a3.94,3.94,0,0,0,5.57-5.57Z"/><circle class="cls-7" cx="691.34" cy="281.99" r="3.94"/><circle class="cls-8" cx="748.8" cy="295.33" r="3.94"/><circle class="cls-2" cx="744.86" cy="234.43" r="3.94"/><circle class="cls-9" cx="638.81" cy="223.48" r="3.94"/><path class="cls-3" d="M767.4,275.82a8.72,8.72,0,0,1,8.73,8.72V299.9a3.94,3.94,0,1,0,7.87,0V284.66A16.64,16.64,0,0,0,767.44,268h-.05a3.9,3.9,0,0,0,0,7.8Z"/><path class="cls-10" d="M668.52,275.82a8.72,8.72,0,0,0-8.72,8.72V299.9a3.94,3.94,0,1,1-7.88,0V284.66A16.64,16.64,0,0,1,668.49,268h0a3.9,3.9,0,0,1,0,7.8Z"/><path class="cls-11" d="M689.06,178.61a3.94,3.94,0,1,0,5.57-5.57l-14-14a3.94,3.94,0,0,0-5.57,5.57Z"/><path class="cls-12" d="M659.8,200.63a3.94,3.94,0,1,1-7.88,0V172.81a3.94,3.94,0,1,1,7.88,0Z"/><path class="cls-13" d="M760.86,203.48a3.94,3.94,0,0,1-5.57-5.58l28.14-28.11a3.94,3.94,0,0,1,5.57,5.57Z"/><circle class="cls-14" cx="805.46" cy="190.66" r="3.94"/><circle class="cls-15" cx="748" cy="177.33" r="3.94"/><path class="cls-12" d="M729.39,196.84a8.73,8.73,0,0,1-8.72-8.73V172.75a3.94,3.94,0,1,0-7.88,0V188a16.64,16.64,0,0,0,16.57,16.64h0a3.9,3.9,0,1,0,0-7.79Z"/><path class="cls-16" d="M828.27,196.84a8.72,8.72,0,0,0,8.72-8.73V172.75a3.94,3.94,0,0,1,7.88,0V188a16.64,16.64,0,0,1-16.56,16.64h0a3.9,3.9,0,0,1,0-7.79Z"/><path class="cls-4" d="M792.2,225.58a8.72,8.72,0,0,0-8.72,8.72v15.37a3.94,3.94,0,0,1-7.88,0V234.42a16.63,16.63,0,0,1,16.56-16.63h.05a3.9,3.9,0,0,1,0,7.79Z"/><path class="cls-1" d="M595.34,276.23a3.94,3.94,0,0,0-5.57,5.57l14,14a3.94,3.94,0,1,0,5.57-5.57Z"/><path class="cls-2" d="M454.72,224.64a3.94,3.94,0,0,1,5.57,5.57l-14,14a3.94,3.94,0,0,1-5.57-5.57Z"/><path class="cls-3" d="M624.6,272a3.94,3.94,0,0,1,7.88,0v27.82a3.94,3.94,0,0,1-7.88,0Z"/><path class="cls-4" d="M487.54,221.79a3.94,3.94,0,0,1,7.88,0v27.82a3.94,3.94,0,0,1-7.88,0Z"/><path class="cls-5" d="M523.54,269.18a3.94,3.94,0,1,1,5.57,5.57L501,302.87a3.94,3.94,0,1,1-5.57-5.57Z"/><path class="cls-6" d="M603.16,218.85a3.94,3.94,0,0,0-5.57,5.57l28.14,28.12A3.94,3.94,0,0,0,631.3,247Z"/><circle class="cls-7" cx="478.94" cy="281.99" r="3.94"/><circle class="cls-8" cx="536.41" cy="295.33" r="3.94"/><circle class="cls-2" cx="532.47" cy="234.43" r="3.94"/><path class="cls-3" d="M555,275.82a8.71,8.71,0,0,1,8.72,8.72V299.9a3.94,3.94,0,0,0,7.88,0V284.66A16.64,16.64,0,0,0,555.05,268h0a3.9,3.9,0,0,0,0,7.8Z"/><path class="cls-10" d="M456.13,275.82a8.71,8.71,0,0,0-8.72,8.72V299.9a3.94,3.94,0,1,1-7.88,0V284.66A16.64,16.64,0,0,1,456.09,268h.05a3.9,3.9,0,0,1,0,7.8Z"/><path class="cls-17" d="M476.67,196.42a3.94,3.94,0,1,0,5.57-5.57l-14-14a3.94,3.94,0,1,0-5.57,5.57Z"/><path class="cls-12" d="M447.41,200.63a3.94,3.94,0,1,1-7.88,0V172.81a3.94,3.94,0,1,1,7.88,0Z"/><path class="cls-13" d="M548.47,203.48a3.94,3.94,0,1,1-5.57-5.58L571,169.79a3.94,3.94,0,1,1,5.57,5.57Z"/><circle class="cls-14" cx="593.07" cy="190.66" r="3.94"/><circle class="cls-15" cx="535.6" cy="177.33" r="3.94"/><path class="cls-12" d="M517,196.84a8.72,8.72,0,0,1-8.72-8.73V172.75a3.94,3.94,0,1,0-7.88,0V188A16.64,16.64,0,0,0,517,204.63h0a3.9,3.9,0,1,0,0-7.79Z"/><path class="cls-16" d="M615.88,196.84a8.72,8.72,0,0,0,8.72-8.73V172.75a3.94,3.94,0,0,1,7.88,0V188a16.64,16.64,0,0,1-16.56,16.64h0a3.9,3.9,0,1,1,0-7.79Z"/><path class="cls-4" d="M579.81,225.58a8.73,8.73,0,0,0-8.73,8.72v15.37a3.94,3.94,0,1,1-7.87,0V234.42a16.63,16.63,0,0,1,16.56-16.63h.05a3.9,3.9,0,0,1,0,7.79Z"/><path class="cls-18" d="M476.67,43.89a3.94,3.94,0,1,0,5.57-5.57l-14-14a3.94,3.94,0,1,0-5.57,5.57Z"/><path class="cls-19" d="M617.29,95.48a3.94,3.94,0,0,1-5.58-5.57l14-14a3.94,3.94,0,0,1,5.58,5.57Z"/><path class="cls-20" d="M447.41,48.09a3.94,3.94,0,1,1-7.88,0V20.27a3.94,3.94,0,1,1,7.88,0Z"/><path class="cls-21" d="M584.47,98.33a3.94,3.94,0,0,1-7.88,0V70.5a3.94,3.94,0,0,1,7.88,0Z"/><path class="cls-22" d="M548.47,50.94a3.94,3.94,0,1,1-5.57-5.57L571,17.25a3.94,3.94,0,1,1,5.57,5.57Z"/><path class="cls-23" d="M468.85,101.26a3.94,3.94,0,0,0,5.57-5.57L446.28,67.57a3.94,3.94,0,0,0-5.57,5.57Z"/><circle class="cls-24" cx="593.07" cy="38.12" r="3.94"/><circle class="cls-25" cx="535.6" cy="24.79" r="3.94"/><circle class="cls-19" cx="539.54" cy="85.68" r="3.94"/><circle class="cls-26" cx="645.59" cy="96.63" r="3.94"/><path class="cls-20" d="M517,44.3a8.72,8.72,0,0,1-8.72-8.72V20.21a3.94,3.94,0,1,0-7.88,0V35.46A16.63,16.63,0,0,0,517,52.09h0a3.9,3.9,0,1,0,0-7.79Z"/><path class="cls-27" d="M615.88,44.3a8.72,8.72,0,0,0,8.72-8.72V20.21a3.94,3.94,0,0,1,7.88,0V35.46a16.63,16.63,0,0,1-16.56,16.63h0a3.9,3.9,0,0,1,0-7.79Z"/><path class="cls-28" d="M595.34,136.93a3.94,3.94,0,0,0-5.57,5.57l14,14a3.94,3.94,0,1,0,5.57-5.57Z"/><path class="cls-29" d="M624.6,119.48a3.94,3.94,0,0,1,7.88,0V147.3a3.94,3.94,0,0,1-7.88,0Z"/><path class="cls-30" d="M523.54,116.64a3.94,3.94,0,1,1,5.57,5.57L501,150.33a3.94,3.94,0,1,1-5.57-5.57Z"/><circle class="cls-31" cx="478.94" cy="129.45" r="3.94"/><circle class="cls-32" cx="536.41" cy="142.79" r="3.94"/><path class="cls-29" d="M555,123.28a8.71,8.71,0,0,1,8.72,8.72v15.36a3.94,3.94,0,0,0,7.88,0V132.12a16.63,16.63,0,0,0-16.56-16.63h0a3.9,3.9,0,0,0,0,7.8Z"/><path class="cls-33" d="M456.13,123.28a8.71,8.71,0,0,0-8.72,8.72v15.36a3.94,3.94,0,1,1-7.88,0V132.12a16.63,16.63,0,0,1,16.56-16.63h.05a3.9,3.9,0,0,1,0,7.8Z"/><path class="cls-21" d="M492.2,94.53a8.71,8.71,0,0,0,8.72-8.72V70.45a3.94,3.94,0,0,1,7.88,0V85.69a16.63,16.63,0,0,1-16.56,16.63h-.05a3.9,3.9,0,0,1,0-7.79Z"/><path class="cls-18" d="M689.06,43.89a3.94,3.94,0,1,0,5.57-5.57l-14-14A3.94,3.94,0,0,0,675,29.87Z"/><path class="cls-19" d="M829.68,95.48a3.94,3.94,0,0,1-5.57-5.57l14-14a3.94,3.94,0,0,1,5.57,5.57Z"/><path class="cls-20" d="M659.8,48.09a3.94,3.94,0,1,1-7.88,0V20.27a3.94,3.94,0,1,1,7.88,0Z"/><path class="cls-21" d="M796.86,98.33a3.94,3.94,0,1,1-7.87,0V70.5a3.94,3.94,0,0,1,7.87,0Z"/><path class="cls-22" d="M760.86,50.94a3.94,3.94,0,0,1-5.57-5.57l28.14-28.12A3.94,3.94,0,0,1,789,22.82Z"/><path class="cls-23" d="M681.25,101.26a3.94,3.94,0,1,0,5.57-5.57L658.67,67.57a3.94,3.94,0,1,0-5.57,5.57Z"/><circle class="cls-24" cx="805.46" cy="38.12" r="3.94"/><circle class="cls-25" cx="748" cy="24.79" r="3.94"/><circle class="cls-19" cx="751.94" cy="85.68" r="3.94"/><path class="cls-20" d="M729.39,44.3a8.73,8.73,0,0,1-8.72-8.72V20.21a3.94,3.94,0,1,0-7.88,0V35.46a16.64,16.64,0,0,0,16.57,16.63h0a3.9,3.9,0,1,0,0-7.79Z"/><path class="cls-27" d="M828.27,44.3A8.72,8.72,0,0,0,837,35.58V20.21a3.94,3.94,0,0,1,7.88,0V35.46a16.63,16.63,0,0,1-16.56,16.63h0a3.9,3.9,0,0,1,0-7.79Z"/><path class="cls-34" d="M807.74,123.69a3.94,3.94,0,1,0-5.57,5.57l14,14a3.94,3.94,0,0,0,5.57-5.57Z"/><path class="cls-29" d="M837,119.48a3.94,3.94,0,0,1,7.88,0V147.3a3.94,3.94,0,0,1-7.88,0Z"/><path class="cls-30" d="M735.94,116.64a3.94,3.94,0,0,1,5.57,5.57l-28.15,28.12a3.94,3.94,0,0,1-5.57-5.57Z"/><circle class="cls-31" cx="691.34" cy="129.45" r="3.94"/><circle class="cls-32" cx="748.8" cy="142.79" r="3.94"/><path class="cls-29" d="M767.4,123.28a8.72,8.72,0,0,1,8.73,8.72v15.36a3.94,3.94,0,1,0,7.87,0V132.12a16.63,16.63,0,0,0-16.56-16.63h-.05a3.9,3.9,0,0,0,0,7.8Z"/><path class="cls-33" d="M668.52,123.28A8.72,8.72,0,0,0,659.8,132v15.36a3.94,3.94,0,1,1-7.88,0V132.12a16.63,16.63,0,0,1,16.57-16.63h0a3.9,3.9,0,0,1,0,7.8Z"/><path class="cls-21" d="M704.6,94.53a8.72,8.72,0,0,0,8.72-8.72V70.45a3.94,3.94,0,0,1,7.88,0V85.69a16.64,16.64,0,0,1-16.57,16.63h0a3.9,3.9,0,0,1,0-7.79Z"/><path class="cls-35" d="M807.74,578.63a3.94,3.94,0,1,0-5.57,5.57l14,14a3.94,3.94,0,0,0,5.57-5.57Z"/><path class="cls-36" d="M667.12,527a3.94,3.94,0,0,1,5.57,5.58l-14,14a3.94,3.94,0,1,1-5.57-5.57Z"/><path class="cls-37" d="M837,574.42a3.94,3.94,0,0,1,7.88,0v27.82a3.94,3.94,0,0,1-7.88,0Z"/><path class="cls-38" d="M699.93,524.19a3.94,3.94,0,1,1,7.88,0V552a3.94,3.94,0,1,1-7.88,0Z"/><path class="cls-39" d="M735.94,571.58a3.94,3.94,0,0,1,5.57,5.57l-28.15,28.11a3.94,3.94,0,0,1-5.57-5.57Z"/><path class="cls-40" d="M815.55,521.25a3.94,3.94,0,0,0-5.57,5.57l28.14,28.12a3.94,3.94,0,0,0,5.57-5.57Z"/><circle class="cls-41" cx="691.34" cy="584.39" r="3.94"/><circle class="cls-42" cx="748.8" cy="597.72" r="3.94"/><circle class="cls-36" cx="744.86" cy="536.83" r="3.94"/><circle class="cls-43" cx="638.81" cy="525.88" r="3.94"/><path class="cls-37" d="M767.4,578.21a8.73,8.73,0,0,1,8.73,8.73V602.3a3.94,3.94,0,1,0,7.87,0V587.06a16.64,16.64,0,0,0-16.56-16.64h-.05a3.9,3.9,0,0,0,0,7.79Z"/><path class="cls-44" d="M668.52,578.21a8.73,8.73,0,0,0-8.72,8.73V602.3a3.94,3.94,0,1,1-7.88,0V587.06a16.64,16.64,0,0,1,16.57-16.64h0a3.9,3.9,0,0,1,0,7.79Z"/><path class="cls-45" d="M689.06,481a3.94,3.94,0,1,0,5.57-5.57l-14-14A3.94,3.94,0,0,0,675,467Z"/><path class="cls-46" d="M659.8,503a3.94,3.94,0,1,1-7.88,0V475.21a3.94,3.94,0,1,1,7.88,0Z"/><path class="cls-47" d="M760.86,505.87a3.94,3.94,0,0,1-5.57-5.57l28.14-28.12a3.94,3.94,0,0,1,5.57,5.58Z"/><circle class="cls-48" cx="805.46" cy="493.06" r="3.94"/><circle class="cls-49" cx="748" cy="479.73" r="3.94"/><path class="cls-46" d="M729.39,499.23a8.72,8.72,0,0,1-8.72-8.72V475.15a3.94,3.94,0,1,0-7.88,0v15.24A16.64,16.64,0,0,0,729.36,507h0a3.9,3.9,0,0,0,0-7.8Z"/><path class="cls-50" d="M828.27,499.23a8.71,8.71,0,0,0,8.72-8.72V475.15a3.94,3.94,0,0,1,7.88,0v15.24A16.64,16.64,0,0,1,828.31,507h0a3.9,3.9,0,0,1,0-7.8Z"/><path class="cls-38" d="M792.2,528a8.72,8.72,0,0,0-8.72,8.72v15.37a3.94,3.94,0,0,1-7.88,0V536.82a16.63,16.63,0,0,1,16.56-16.63h.05a3.9,3.9,0,0,1,0,7.79Z"/><path class="cls-35" d="M595.34,578.63a3.94,3.94,0,0,0-5.57,5.57l14,14a3.94,3.94,0,0,0,5.57-5.57Z"/><path class="cls-36" d="M454.72,527a3.94,3.94,0,1,1,5.57,5.58l-14,14a3.94,3.94,0,1,1-5.57-5.57Z"/><path class="cls-37" d="M624.6,574.42a3.94,3.94,0,0,1,7.88,0v27.82a3.94,3.94,0,0,1-7.88,0Z"/><path class="cls-38" d="M487.54,524.19a3.94,3.94,0,1,1,7.88,0V552a3.94,3.94,0,0,1-7.88,0Z"/><path class="cls-39" d="M523.54,571.58a3.94,3.94,0,1,1,5.57,5.57L501,605.26a3.94,3.94,0,0,1-5.57-5.57Z"/><path class="cls-40" d="M603.16,521.25a3.94,3.94,0,0,0-5.57,5.57l28.14,28.12a3.94,3.94,0,0,0,5.57-5.57Z"/><circle class="cls-41" cx="478.94" cy="584.39" r="3.94"/><circle class="cls-42" cx="536.41" cy="597.72" r="3.94"/><circle class="cls-36" cx="532.47" cy="536.83" r="3.94"/><path class="cls-37" d="M555,578.21a8.72,8.72,0,0,1,8.72,8.73V602.3a3.94,3.94,0,0,0,7.88,0V587.06a16.64,16.64,0,0,0-16.56-16.64h0a3.9,3.9,0,0,0,0,7.79Z"/><path class="cls-44" d="M456.13,578.21a8.72,8.72,0,0,0-8.72,8.73V602.3a3.94,3.94,0,0,1-7.88,0V587.06a16.64,16.64,0,0,1,16.56-16.64h.05a3.9,3.9,0,0,1,0,7.79Z"/><path class="cls-51" d="M476.67,498.82a3.94,3.94,0,0,0,5.57-5.57l-14-14a3.94,3.94,0,1,0-5.57,5.57Z"/><path class="cls-46" d="M447.41,503a3.94,3.94,0,1,1-7.88,0V475.21a3.94,3.94,0,0,1,7.88,0Z"/><path class="cls-47" d="M548.47,505.87a3.94,3.94,0,1,1-5.57-5.57L571,472.18a3.94,3.94,0,1,1,5.57,5.58Z"/><circle class="cls-48" cx="593.07" cy="493.06" r="3.94"/><circle class="cls-49" cx="535.6" cy="479.73" r="3.94"/><path class="cls-46" d="M517,499.23a8.71,8.71,0,0,1-8.72-8.72V475.15a3.94,3.94,0,1,0-7.88,0v15.24A16.64,16.64,0,0,0,517,507h0a3.9,3.9,0,0,0,0-7.8Z"/><path class="cls-50" d="M615.88,499.23a8.71,8.71,0,0,0,8.72-8.72V475.15a3.94,3.94,0,0,1,7.88,0v15.24A16.64,16.64,0,0,1,615.92,507h0a3.9,3.9,0,0,1,0-7.8Z"/><path class="cls-38" d="M579.81,528a8.73,8.73,0,0,0-8.73,8.72v15.37a3.94,3.94,0,0,1-7.87,0V536.82a16.63,16.63,0,0,1,16.56-16.63h.05a3.9,3.9,0,0,1,0,7.79Z"/><path class="cls-52" d="M476.67,346.28a3.94,3.94,0,1,0,5.57-5.57l-14-14a3.94,3.94,0,0,0-5.57,5.57Z"/><path class="cls-53" d="M617.29,397.88a3.94,3.94,0,1,1-5.58-5.57l14-14a3.94,3.94,0,0,1,5.58,5.57Z"/><path class="cls-54" d="M447.41,350.49a3.94,3.94,0,1,1-7.88,0V322.67a3.94,3.94,0,0,1,7.88,0Z"/><path class="cls-55" d="M584.47,400.73a3.94,3.94,0,0,1-7.88,0V372.9a3.94,3.94,0,0,1,7.88,0Z"/><path class="cls-56" d="M548.47,353.34a3.94,3.94,0,1,1-5.57-5.57L571,319.65a3.94,3.94,0,1,1,5.57,5.57Z"/><path class="cls-57" d="M468.85,403.66a3.94,3.94,0,0,0,5.57-5.57L446.28,370a3.94,3.94,0,0,0-5.57,5.57Z"/><circle class="cls-58" cx="593.07" cy="340.52" r="3.94"/><circle class="cls-59" cx="535.6" cy="327.19" r="3.94"/><circle class="cls-53" cx="539.54" cy="388.08" r="3.94"/><circle class="cls-60" cx="645.59" cy="399.03" r="3.94"/><path class="cls-54" d="M517,346.7a8.72,8.72,0,0,1-8.72-8.73V322.61a3.94,3.94,0,1,0-7.88,0v15.24A16.64,16.64,0,0,0,517,354.49h0a3.9,3.9,0,1,0,0-7.79Z"/><path class="cls-61" d="M615.88,346.7A8.72,8.72,0,0,0,624.6,338V322.61a3.94,3.94,0,0,1,7.88,0v15.24a16.64,16.64,0,0,1-16.56,16.64h0a3.9,3.9,0,1,1,0-7.79Z"/><path class="cls-62" d="M595.34,439.33a3.94,3.94,0,0,0-5.57,5.57l14,14a3.94,3.94,0,1,0,5.57-5.57Z"/><path class="cls-63" d="M624.6,421.88a3.94,3.94,0,0,1,7.88,0V449.7a3.94,3.94,0,0,1-7.88,0Z"/><path class="cls-64" d="M523.54,419a3.94,3.94,0,1,1,5.57,5.57L501,452.73a3.94,3.94,0,1,1-5.57-5.57Z"/><circle class="cls-65" cx="478.94" cy="431.85" r="3.94"/><circle class="cls-66" cx="536.41" cy="445.19" r="3.94"/><path class="cls-63" d="M555,425.68a8.71,8.71,0,0,1,8.72,8.72v15.36a3.94,3.94,0,0,0,7.88,0V434.52a16.64,16.64,0,0,0-16.56-16.64h0a3.9,3.9,0,0,0,0,7.8Z"/><path class="cls-67" d="M456.13,425.68a8.71,8.71,0,0,0-8.72,8.72v15.36a3.94,3.94,0,1,1-7.88,0V434.52a16.64,16.64,0,0,1,16.56-16.64h.05a3.9,3.9,0,0,1,0,7.8Z"/><path class="cls-55" d="M492.2,396.93a8.71,8.71,0,0,0,8.72-8.72V372.85a3.94,3.94,0,0,1,7.88,0v15.24a16.63,16.63,0,0,1-16.56,16.63h-.05a3.9,3.9,0,0,1,0-7.79Z"/><path class="cls-52" d="M689.06,346.28a3.94,3.94,0,1,0,5.57-5.57l-14-14a3.94,3.94,0,0,0-5.57,5.57Z"/><path class="cls-53" d="M829.68,397.88a3.94,3.94,0,1,1-5.57-5.57l14-14a3.94,3.94,0,0,1,5.57,5.57Z"/><path class="cls-54" d="M659.8,350.49a3.94,3.94,0,1,1-7.88,0V322.67a3.94,3.94,0,1,1,7.88,0Z"/><path class="cls-55" d="M796.86,400.73a3.94,3.94,0,1,1-7.87,0V372.9a3.94,3.94,0,1,1,7.87,0Z"/><path class="cls-56" d="M760.86,353.34a3.94,3.94,0,0,1-5.57-5.57l28.14-28.12a3.94,3.94,0,0,1,5.57,5.57Z"/><path class="cls-57" d="M681.25,403.66a3.94,3.94,0,1,0,5.57-5.57L658.67,370a3.94,3.94,0,1,0-5.57,5.57Z"/><circle class="cls-58" cx="805.46" cy="340.52" r="3.94"/><circle class="cls-59" cx="748" cy="327.19" r="3.94"/><circle class="cls-53" cx="751.94" cy="388.08" r="3.94"/><path class="cls-54" d="M729.39,346.7a8.73,8.73,0,0,1-8.72-8.73V322.61a3.94,3.94,0,1,0-7.88,0v15.24a16.64,16.64,0,0,0,16.57,16.64h0a3.9,3.9,0,1,0,0-7.79Z"/><path class="cls-61" d="M828.27,346.7A8.72,8.72,0,0,0,837,338V322.61a3.94,3.94,0,0,1,7.88,0v15.24a16.64,16.64,0,0,1-16.56,16.64h0a3.9,3.9,0,0,1,0-7.79Z"/><path class="cls-68" d="M807.74,426.09a3.94,3.94,0,1,0-5.57,5.57l14,14a3.94,3.94,0,0,0,5.57-5.58Z"/><path class="cls-63" d="M837,421.88a3.94,3.94,0,0,1,7.88,0V449.7a3.94,3.94,0,0,1-7.88,0Z"/><path class="cls-64" d="M735.94,419a3.94,3.94,0,0,1,5.57,5.57l-28.15,28.12a3.94,3.94,0,0,1-5.57-5.57Z"/><circle class="cls-65" cx="691.34" cy="431.85" r="3.94"/><circle class="cls-66" cx="748.8" cy="445.19" r="3.94"/><path class="cls-63" d="M767.4,425.68a8.72,8.72,0,0,1,8.73,8.72v15.36a3.94,3.94,0,1,0,7.87,0V434.52a16.64,16.64,0,0,0-16.56-16.64h-.05a3.9,3.9,0,0,0,0,7.8Z"/><path class="cls-67" d="M668.52,425.68a8.72,8.72,0,0,0-8.72,8.72v15.36a3.94,3.94,0,1,1-7.88,0V434.52a16.64,16.64,0,0,1,16.57-16.64h0a3.9,3.9,0,0,1,0,7.8Z"/><path class="cls-55" d="M704.6,396.93a8.72,8.72,0,0,0,8.72-8.72V372.85a3.94,3.94,0,0,1,7.88,0v15.24a16.64,16.64,0,0,1-16.57,16.63h0a3.9,3.9,0,0,1,0-7.79Z"/><path class="cls-1" d="M385.64,276.23a3.94,3.94,0,0,0-5.57,5.57l14,14a3.94,3.94,0,0,0,5.57-5.57Z"/><path class="cls-2" d="M245,224.64a3.94,3.94,0,0,1,5.57,5.57l-14,14a3.94,3.94,0,1,1-5.57-5.57Z"/><path class="cls-3" d="M414.9,272a3.94,3.94,0,1,1,7.88,0v27.82a3.94,3.94,0,0,1-7.88,0Z"/><path class="cls-4" d="M277.84,221.79a3.94,3.94,0,0,1,7.88,0v27.82a3.94,3.94,0,0,1-7.88,0Z"/><path class="cls-5" d="M313.84,269.18a3.94,3.94,0,0,1,5.57,5.57l-28.14,28.12a3.94,3.94,0,0,1-5.57-5.57Z"/><path class="cls-6" d="M393.46,218.85a3.94,3.94,0,1,0-5.57,5.57L416,252.54A3.94,3.94,0,1,0,421.6,247Z"/><circle class="cls-7" cx="269.24" cy="281.99" r="3.94"/><circle class="cls-8" cx="326.71" cy="295.33" r="3.94"/><circle class="cls-2" cx="322.77" cy="234.43" r="3.94"/><circle class="cls-9" cx="216.72" cy="223.48" r="3.94"/><path class="cls-3" d="M345.31,275.82a8.71,8.71,0,0,1,8.72,8.72V299.9a3.94,3.94,0,1,0,7.88,0V284.66A16.64,16.64,0,0,0,345.35,268h-.05a3.9,3.9,0,0,0,0,7.8Z"/><path class="cls-10" d="M246.43,275.82a8.71,8.71,0,0,0-8.72,8.72V299.9a3.94,3.94,0,1,1-7.88,0V284.66A16.64,16.64,0,0,1,246.39,268h.05a3.9,3.9,0,0,1,0,7.8Z"/><path class="cls-11" d="M267,178.61a3.94,3.94,0,0,0,5.57-5.57l-14-14a3.94,3.94,0,0,0-5.57,5.57Z"/><path class="cls-12" d="M237.71,200.63a3.94,3.94,0,0,1-7.88,0V172.81a3.94,3.94,0,0,1,7.88,0Z"/><path class="cls-13" d="M338.77,203.48a3.94,3.94,0,0,1-5.57-5.58l28.14-28.11a3.94,3.94,0,1,1,5.57,5.57Z"/><circle class="cls-14" cx="383.37" cy="190.66" r="3.94"/><circle class="cls-15" cx="325.9" cy="177.33" r="3.94"/><path class="cls-12" d="M307.3,196.84a8.72,8.72,0,0,1-8.72-8.73V172.75a3.94,3.94,0,0,0-7.88,0V188a16.64,16.64,0,0,0,16.56,16.64h.05a3.9,3.9,0,0,0,0-7.79Z"/><path class="cls-16" d="M406.18,196.84a8.72,8.72,0,0,0,8.72-8.73V172.75a3.94,3.94,0,1,1,7.88,0V188a16.64,16.64,0,0,1-16.57,16.64h0a3.9,3.9,0,1,1,0-7.79Z"/><path class="cls-4" d="M370.11,225.58a8.73,8.73,0,0,0-8.73,8.72v15.37a3.94,3.94,0,1,1-7.87,0V234.42a16.63,16.63,0,0,1,16.56-16.63h.05a3.9,3.9,0,0,1,0,7.79Z"/><path class="cls-1" d="M173.25,276.23a3.94,3.94,0,1,0-5.57,5.57l14,14a3.94,3.94,0,0,0,5.57-5.57Z"/><path class="cls-2" d="M32.63,224.64a3.94,3.94,0,0,1,5.57,5.57l-14,14a3.94,3.94,0,0,1-5.57-5.57Z"/><path class="cls-3" d="M202.51,272a3.94,3.94,0,1,1,7.87,0v27.82a3.94,3.94,0,1,1-7.87,0Z"/><path class="cls-4" d="M65.44,221.79a3.94,3.94,0,1,1,7.88,0v27.82a3.94,3.94,0,0,1-7.88,0Z"/><path class="cls-5" d="M101.45,269.18a3.94,3.94,0,0,1,5.57,5.57L78.88,302.87a3.94,3.94,0,1,1-5.57-5.57Z"/><path class="cls-6" d="M181.06,218.85a3.94,3.94,0,0,0-5.57,5.57l28.14,28.12a3.94,3.94,0,1,0,5.58-5.57Z"/><circle class="cls-7" cx="56.85" cy="281.99" r="3.94"/><circle class="cls-8" cx="114.31" cy="295.33" r="3.94"/><circle class="cls-2" cx="110.37" cy="234.43" r="3.94"/><path class="cls-3" d="M132.92,275.82a8.72,8.72,0,0,1,8.72,8.72V299.9a3.94,3.94,0,1,0,7.88,0V284.66A16.64,16.64,0,0,0,133,268h0a3.9,3.9,0,0,0,0,7.8Z"/><path class="cls-10" d="M34,275.82a8.72,8.72,0,0,0-8.73,8.72V299.9a3.94,3.94,0,1,1-7.87,0V284.66A16.64,16.64,0,0,1,34,268h0a3.9,3.9,0,0,1,0,7.8Z"/><path class="cls-17" d="M54.57,196.42a3.94,3.94,0,1,0,5.57-5.57l-14-14a3.94,3.94,0,1,0-5.57,5.57Z"/><path class="cls-12" d="M25.31,200.63a3.94,3.94,0,1,1-7.87,0V172.81a3.94,3.94,0,1,1,7.87,0Z"/><path class="cls-13" d="M126.37,203.48a3.94,3.94,0,0,1-5.57-5.58l28.14-28.11a3.94,3.94,0,1,1,5.57,5.57Z"/><circle class="cls-14" cx="170.97" cy="190.66" r="3.94"/><circle class="cls-15" cx="113.51" cy="177.33" r="3.94"/><path class="cls-12" d="M94.9,196.84a8.73,8.73,0,0,1-8.72-8.73V172.75a3.94,3.94,0,0,0-7.88,0V188a16.64,16.64,0,0,0,16.57,16.64h0a3.9,3.9,0,0,0,0-7.79Z"/><path class="cls-16" d="M193.78,196.84a8.73,8.73,0,0,0,8.73-8.73V172.75a3.94,3.94,0,1,1,7.87,0V188a16.63,16.63,0,0,1-16.56,16.64h0a3.9,3.9,0,0,1,0-7.79Z"/><path class="cls-4" d="M157.71,225.58A8.73,8.73,0,0,0,149,234.3v15.37a3.94,3.94,0,0,1-7.88,0V234.42a16.64,16.64,0,0,1,16.57-16.63h0a3.9,3.9,0,1,1,0,7.79Z"/><path class="cls-18" d="M54.57,43.89a3.94,3.94,0,1,0,5.57-5.57l-14-14a3.94,3.94,0,1,0-5.57,5.57Z"/><path class="cls-19" d="M195.19,95.48a3.94,3.94,0,0,1-5.57-5.57l14-14a3.94,3.94,0,0,1,5.57,5.57Z"/><path class="cls-20" d="M25.31,48.09a3.94,3.94,0,1,1-7.87,0V20.27a3.94,3.94,0,1,1,7.87,0Z"/><path class="cls-21" d="M162.38,98.33a3.94,3.94,0,0,1-7.88,0V70.5a3.94,3.94,0,0,1,7.88,0Z"/><path class="cls-22" d="M126.37,50.94a3.94,3.94,0,0,1-5.57-5.57l28.14-28.12a3.94,3.94,0,0,1,5.57,5.57Z"/><path class="cls-23" d="M46.76,101.26a3.94,3.94,0,0,0,5.57-5.57L24.19,67.57a3.94,3.94,0,1,0-5.58,5.57Z"/><circle class="cls-24" cx="170.97" cy="38.12" r="3.94"/><circle class="cls-25" cx="113.51" cy="24.79" r="3.94"/><circle class="cls-19" cx="117.45" cy="85.68" r="3.94"/><circle class="cls-26" cx="223.5" cy="96.63" r="3.94"/><path class="cls-20" d="M94.9,44.3a8.73,8.73,0,0,1-8.72-8.72V20.21a3.94,3.94,0,0,0-7.88,0V35.46A16.64,16.64,0,0,0,94.87,52.09h0a3.9,3.9,0,0,0,0-7.79Z"/><path class="cls-27" d="M193.78,44.3a8.73,8.73,0,0,0,8.73-8.72V20.21a3.94,3.94,0,1,1,7.87,0V35.46a16.63,16.63,0,0,1-16.56,16.63h0a3.9,3.9,0,0,1,0-7.79Z"/><path class="cls-28" d="M173.25,136.93a3.94,3.94,0,0,0-5.57,5.57l14,14a3.94,3.94,0,1,0,5.57-5.57Z"/><path class="cls-29" d="M202.51,119.48a3.94,3.94,0,1,1,7.87,0V147.3a3.94,3.94,0,1,1-7.87,0Z"/><path class="cls-30" d="M101.45,116.64a3.94,3.94,0,0,1,5.57,5.57L78.88,150.33a3.94,3.94,0,1,1-5.57-5.57Z"/><circle class="cls-31" cx="56.85" cy="129.45" r="3.94"/><circle class="cls-32" cx="114.31" cy="142.79" r="3.94"/><path class="cls-29" d="M132.92,123.28a8.72,8.72,0,0,1,8.72,8.72v15.36a3.94,3.94,0,1,0,7.88,0V132.12A16.63,16.63,0,0,0,133,115.49h0a3.9,3.9,0,0,0,0,7.8Z"/><path class="cls-33" d="M34,123.28A8.72,8.72,0,0,0,25.31,132v15.36a3.94,3.94,0,1,1-7.87,0V132.12A16.63,16.63,0,0,1,34,115.49h0a3.9,3.9,0,0,1,0,7.8Z"/><path class="cls-21" d="M70.11,94.53a8.71,8.71,0,0,0,8.72-8.72V70.45a3.94,3.94,0,0,1,7.88,0V85.69a16.64,16.64,0,0,1-16.57,16.63h0a3.9,3.9,0,0,1,0-7.79Z"/><path class="cls-18" d="M267,43.89a3.94,3.94,0,0,0,5.57-5.57l-14-14a3.94,3.94,0,0,0-5.57,5.57Z"/><path class="cls-19" d="M407.58,95.48A3.94,3.94,0,1,1,402,89.91l14-14a3.94,3.94,0,1,1,5.57,5.57Z"/><path class="cls-20" d="M237.71,48.09a3.94,3.94,0,0,1-7.88,0V20.27a3.94,3.94,0,1,1,7.88,0Z"/><path class="cls-21" d="M374.77,98.33a3.94,3.94,0,1,1-7.88,0V70.5a3.94,3.94,0,0,1,7.88,0Z"/><path class="cls-22" d="M338.77,50.94a3.94,3.94,0,0,1-5.57-5.57l28.14-28.12a3.94,3.94,0,0,1,5.57,5.57Z"/><path class="cls-23" d="M259.15,101.26a3.94,3.94,0,0,0,5.57-5.57L236.58,67.57A3.94,3.94,0,0,0,231,73.14Z"/><circle class="cls-24" cx="383.37" cy="38.12" r="3.94"/><circle class="cls-25" cx="325.9" cy="24.79" r="3.94"/><circle class="cls-19" cx="329.84" cy="85.68" r="3.94"/><path class="cls-20" d="M307.3,44.3a8.72,8.72,0,0,1-8.72-8.72V20.21a3.94,3.94,0,0,0-7.88,0V35.46a16.63,16.63,0,0,0,16.56,16.63h.05a3.9,3.9,0,1,0,0-7.79Z"/><path class="cls-27" d="M406.18,44.3a8.72,8.72,0,0,0,8.72-8.72V20.21a3.94,3.94,0,1,1,7.88,0V35.46a16.64,16.64,0,0,1-16.57,16.63h0a3.9,3.9,0,1,1,0-7.79Z"/><path class="cls-34" d="M385.64,123.69a3.94,3.94,0,0,0-5.57,5.57l14,14a3.94,3.94,0,0,0,5.57-5.57Z"/><path class="cls-29" d="M414.9,119.48a3.94,3.94,0,1,1,7.88,0V147.3a3.94,3.94,0,0,1-7.88,0Z"/><path class="cls-30" d="M313.84,116.64a3.94,3.94,0,1,1,5.57,5.57l-28.14,28.12a3.94,3.94,0,0,1-5.57-5.57Z"/><circle class="cls-31" cx="269.24" cy="129.45" r="3.94"/><circle class="cls-32" cx="326.71" cy="142.79" r="3.94"/><path class="cls-29" d="M345.31,123.28A8.71,8.71,0,0,1,354,132v15.36a3.94,3.94,0,1,0,7.88,0V132.12a16.63,16.63,0,0,0-16.56-16.63h-.05a3.9,3.9,0,0,0,0,7.8Z"/><path class="cls-33" d="M246.43,123.28a8.71,8.71,0,0,0-8.72,8.72v15.36a3.94,3.94,0,0,1-7.88,0V132.12a16.63,16.63,0,0,1,16.56-16.63h.05a3.9,3.9,0,0,1,0,7.8Z"/><path class="cls-21" d="M282.5,94.53a8.71,8.71,0,0,0,8.72-8.72V70.45a3.94,3.94,0,1,1,7.88,0V85.69a16.63,16.63,0,0,1-16.56,16.63h-.05a3.9,3.9,0,0,1,0-7.79Z"/><path class="cls-35" d="M385.64,578.63a3.94,3.94,0,1,0-5.57,5.57l14,14a3.94,3.94,0,0,0,5.57-5.57Z"/><path class="cls-36" d="M245,527a3.94,3.94,0,1,1,5.57,5.58l-14,14a3.94,3.94,0,1,1-5.57-5.57Z"/><path class="cls-37" d="M414.9,574.42a3.94,3.94,0,0,1,7.88,0v27.82a3.94,3.94,0,1,1-7.88,0Z"/><path class="cls-38" d="M277.84,524.19a3.94,3.94,0,1,1,7.88,0V552a3.94,3.94,0,0,1-7.88,0Z"/><path class="cls-39" d="M313.84,571.58a3.94,3.94,0,0,1,5.57,5.57l-28.14,28.11a3.94,3.94,0,0,1-5.57-5.57Z"/><path class="cls-40" d="M393.46,521.25a3.94,3.94,0,0,0-5.57,5.57L416,554.94a3.94,3.94,0,0,0,5.57-5.57Z"/><circle class="cls-41" cx="269.24" cy="584.39" r="3.94"/><circle class="cls-42" cx="326.71" cy="597.72" r="3.94"/><circle class="cls-36" cx="322.77" cy="536.83" r="3.94"/><circle class="cls-43" cx="216.72" cy="525.88" r="3.94"/><path class="cls-37" d="M345.31,578.21a8.72,8.72,0,0,1,8.72,8.73V602.3a3.94,3.94,0,0,0,7.88,0V587.06a16.64,16.64,0,0,0-16.56-16.64h-.05a3.9,3.9,0,0,0,0,7.79Z"/><path class="cls-44" d="M246.43,578.21a8.72,8.72,0,0,0-8.72,8.73V602.3a3.94,3.94,0,0,1-7.88,0V587.06a16.64,16.64,0,0,1,16.56-16.64h.05a3.9,3.9,0,0,1,0,7.79Z"/><path class="cls-45" d="M267,481a3.94,3.94,0,0,0,5.57-5.57l-14-14a3.94,3.94,0,0,0-5.57,5.57Z"/><path class="cls-46" d="M237.71,503a3.94,3.94,0,1,1-7.88,0V475.21a3.94,3.94,0,0,1,7.88,0Z"/><path class="cls-47" d="M338.77,505.87a3.94,3.94,0,0,1-5.57-5.57l28.14-28.12a3.94,3.94,0,0,1,5.57,5.58Z"/><circle class="cls-48" cx="383.37" cy="493.06" r="3.94"/><circle class="cls-49" cx="325.9" cy="479.73" r="3.94"/><path class="cls-46" d="M307.3,499.23a8.71,8.71,0,0,1-8.72-8.72V475.15a3.94,3.94,0,0,0-7.88,0v15.24A16.64,16.64,0,0,0,307.26,507h.05a3.9,3.9,0,0,0,0-7.8Z"/><path class="cls-50" d="M406.18,499.23a8.71,8.71,0,0,0,8.72-8.72V475.15a3.94,3.94,0,1,1,7.88,0v15.24A16.64,16.64,0,0,1,406.21,507h0a3.9,3.9,0,0,1,0-7.8Z"/><path class="cls-38" d="M370.11,528a8.73,8.73,0,0,0-8.73,8.72v15.37a3.94,3.94,0,0,1-7.87,0V536.82a16.63,16.63,0,0,1,16.56-16.63h.05a3.9,3.9,0,0,1,0,7.79Z"/><path class="cls-35" d="M173.25,578.63a3.94,3.94,0,1,0-5.57,5.57l14,14a3.94,3.94,0,0,0,5.57-5.57Z"/><path class="cls-36" d="M32.63,527a3.94,3.94,0,1,1,5.57,5.58l-14,14a3.94,3.94,0,1,1-5.57-5.57Z"/><path class="cls-37" d="M202.51,574.42a3.94,3.94,0,1,1,7.87,0v27.82a3.94,3.94,0,1,1-7.87,0Z"/><path class="cls-38" d="M65.44,524.19a3.94,3.94,0,0,1,7.88,0V552a3.94,3.94,0,0,1-7.88,0Z"/><path class="cls-39" d="M101.45,571.58a3.94,3.94,0,1,1,5.57,5.57L78.88,605.26a3.94,3.94,0,0,1-5.57-5.57Z"/><path class="cls-40" d="M181.06,521.25a3.94,3.94,0,0,0-5.57,5.57l28.14,28.12a3.94,3.94,0,0,0,5.58-5.57Z"/><circle class="cls-41" cx="56.85" cy="584.39" r="3.94"/><circle class="cls-42" cx="114.31" cy="597.72" r="3.94"/><circle class="cls-36" cx="110.37" cy="536.83" r="3.94"/><path class="cls-37" d="M132.92,578.21a8.73,8.73,0,0,1,8.72,8.73V602.3a3.94,3.94,0,1,0,7.88,0V587.06A16.64,16.64,0,0,0,133,570.42h0a3.9,3.9,0,0,0,0,7.79Z"/><path class="cls-44" d="M34,578.21a8.73,8.73,0,0,0-8.73,8.73V602.3a3.94,3.94,0,1,1-7.87,0V587.06A16.64,16.64,0,0,1,34,570.42h0a3.9,3.9,0,0,1,0,7.79Z"/><path class="cls-51" d="M54.57,498.82a3.94,3.94,0,0,0,5.57-5.57l-14-14a3.94,3.94,0,1,0-5.57,5.57Z"/><path class="cls-46" d="M25.31,503a3.94,3.94,0,1,1-7.87,0V475.21a3.94,3.94,0,1,1,7.87,0Z"/><path class="cls-47" d="M126.37,505.87a3.94,3.94,0,1,1-5.57-5.57l28.14-28.12a3.94,3.94,0,0,1,5.57,5.58Z"/><circle class="cls-48" cx="170.97" cy="493.06" r="3.94"/><circle class="cls-49" cx="113.51" cy="479.73" r="3.94"/><path class="cls-46" d="M94.9,499.23a8.72,8.72,0,0,1-8.72-8.72V475.15a3.94,3.94,0,0,0-7.88,0v15.24A16.64,16.64,0,0,0,94.87,507h0a3.9,3.9,0,0,0,0-7.8Z"/><path class="cls-50" d="M193.78,499.23a8.72,8.72,0,0,0,8.73-8.72V475.15a3.94,3.94,0,1,1,7.87,0v15.24A16.63,16.63,0,0,1,193.82,507h0a3.9,3.9,0,0,1,0-7.8Z"/><path class="cls-38" d="M157.71,528A8.73,8.73,0,0,0,149,536.7v15.37a3.94,3.94,0,0,1-7.88,0V536.82a16.64,16.64,0,0,1,16.57-16.63h0a3.9,3.9,0,1,1,0,7.79Z"/><path class="cls-52" d="M54.57,346.28a3.94,3.94,0,1,0,5.57-5.57l-14-14a3.94,3.94,0,0,0-5.57,5.57Z"/><path class="cls-53" d="M195.19,397.88a3.94,3.94,0,1,1-5.57-5.57l14-14a3.94,3.94,0,0,1,5.57,5.57Z"/><path class="cls-54" d="M25.31,350.49a3.94,3.94,0,1,1-7.87,0V322.67a3.94,3.94,0,1,1,7.87,0Z"/><path class="cls-55" d="M162.38,400.73a3.94,3.94,0,1,1-7.88,0V372.9a3.94,3.94,0,1,1,7.88,0Z"/><path class="cls-56" d="M126.37,353.34a3.94,3.94,0,0,1-5.57-5.57l28.14-28.12a3.94,3.94,0,0,1,5.57,5.57Z"/><path class="cls-57" d="M46.76,403.66a3.94,3.94,0,1,0,5.57-5.57L24.19,370a3.94,3.94,0,1,0-5.58,5.57Z"/><circle class="cls-58" cx="170.97" cy="340.52" r="3.94"/><circle class="cls-59" cx="113.51" cy="327.19" r="3.94"/><circle class="cls-53" cx="117.45" cy="388.08" r="3.94"/><circle class="cls-60" cx="223.5" cy="399.03" r="3.94"/><path class="cls-54" d="M94.9,346.7A8.73,8.73,0,0,1,86.18,338V322.61a3.94,3.94,0,0,0-7.88,0v15.24a16.64,16.64,0,0,0,16.57,16.64h0a3.9,3.9,0,0,0,0-7.79Z"/><path class="cls-61" d="M193.78,346.7a8.73,8.73,0,0,0,8.73-8.73V322.61a3.94,3.94,0,1,1,7.87,0v15.24a16.63,16.63,0,0,1-16.56,16.64h0a3.9,3.9,0,0,1,0-7.79Z"/><path class="cls-62" d="M173.25,439.33a3.94,3.94,0,0,0-5.57,5.57l14,14a3.94,3.94,0,0,0,5.57-5.57Z"/><path class="cls-63" d="M202.51,421.88a3.94,3.94,0,1,1,7.87,0V449.7a3.94,3.94,0,1,1-7.87,0Z"/><path class="cls-64" d="M101.45,419a3.94,3.94,0,0,1,5.57,5.57L78.88,452.73a3.94,3.94,0,1,1-5.57-5.57Z"/><circle class="cls-65" cx="56.85" cy="431.85" r="3.94"/><circle class="cls-66" cx="114.31" cy="445.19" r="3.94"/><path class="cls-63" d="M132.92,425.68a8.72,8.72,0,0,1,8.72,8.72v15.36a3.94,3.94,0,1,0,7.88,0V434.52A16.64,16.64,0,0,0,133,417.88h0a3.9,3.9,0,0,0,0,7.8Z"/><path class="cls-67" d="M34,425.68a8.72,8.72,0,0,0-8.73,8.72v15.36a3.94,3.94,0,1,1-7.87,0V434.52A16.64,16.64,0,0,1,34,417.88h0a3.9,3.9,0,0,1,0,7.8Z"/><path class="cls-55" d="M70.11,396.93a8.71,8.71,0,0,0,8.72-8.72V372.85a3.94,3.94,0,0,1,7.88,0v15.24a16.64,16.64,0,0,1-16.57,16.63h0a3.9,3.9,0,1,1,0-7.79Z"/><path class="cls-52" d="M267,346.28a3.94,3.94,0,0,0,5.57-5.57l-14-14a3.94,3.94,0,0,0-5.57,5.57Z"/><path class="cls-53" d="M407.58,397.88a3.94,3.94,0,1,1-5.57-5.57l14-14a3.94,3.94,0,0,1,5.57,5.57Z"/><path class="cls-54" d="M237.71,350.49a3.94,3.94,0,0,1-7.88,0V322.67a3.94,3.94,0,0,1,7.88,0Z"/><path class="cls-55" d="M374.77,400.73a3.94,3.94,0,1,1-7.88,0V372.9a3.94,3.94,0,1,1,7.88,0Z"/><path class="cls-56" d="M338.77,353.34a3.94,3.94,0,0,1-5.57-5.57l28.14-28.12a3.94,3.94,0,0,1,5.57,5.57Z"/><path class="cls-57" d="M259.15,403.66a3.94,3.94,0,0,0,5.57-5.57L236.58,370a3.94,3.94,0,1,0-5.57,5.57Z"/><circle class="cls-58" cx="383.37" cy="340.52" r="3.94"/><circle class="cls-59" cx="325.9" cy="327.19" r="3.94"/><circle class="cls-53" cx="329.84" cy="388.08" r="3.94"/><path class="cls-54" d="M307.3,346.7a8.72,8.72,0,0,1-8.72-8.73V322.61a3.94,3.94,0,0,0-7.88,0v15.24a16.64,16.64,0,0,0,16.56,16.64h.05a3.9,3.9,0,1,0,0-7.79Z"/><path class="cls-61" d="M406.18,346.7A8.72,8.72,0,0,0,414.9,338V322.61a3.94,3.94,0,1,1,7.88,0v15.24a16.64,16.64,0,0,1-16.57,16.64h0a3.9,3.9,0,1,1,0-7.79Z"/><path class="cls-68" d="M385.64,426.09a3.94,3.94,0,0,0-5.57,5.57l14,14a3.94,3.94,0,0,0,5.57-5.58Z"/><path class="cls-63" d="M414.9,421.88a3.94,3.94,0,1,1,7.88,0V449.7a3.94,3.94,0,0,1-7.88,0Z"/><path class="cls-64" d="M313.84,419a3.94,3.94,0,0,1,5.57,5.57l-28.14,28.12a3.94,3.94,0,0,1-5.57-5.57Z"/><circle class="cls-65" cx="269.24" cy="431.85" r="3.94"/><circle class="cls-66" cx="326.71" cy="445.19" r="3.94"/><path class="cls-63" d="M345.31,425.68A8.71,8.71,0,0,1,354,434.4v15.36a3.94,3.94,0,1,0,7.88,0V434.52a16.64,16.64,0,0,0-16.56-16.64h-.05a3.9,3.9,0,0,0,0,7.8Z"/><path class="cls-67" d="M246.43,425.68a8.71,8.71,0,0,0-8.72,8.72v15.36a3.94,3.94,0,0,1-7.88,0V434.52a16.64,16.64,0,0,1,16.56-16.64h.05a3.9,3.9,0,0,1,0,7.8Z"/><path class="cls-55" d="M282.5,396.93a8.71,8.71,0,0,0,8.72-8.72V372.85a3.94,3.94,0,1,1,7.88,0v15.24a16.63,16.63,0,0,1-16.56,16.63h-.05a3.9,3.9,0,0,1,0-7.79Z"/></svg>