<?xml version="1.0" encoding="UTF-8"?>
<!DOCTYPE svg PUBLIC "-//W3C//DTD SVG 1.1//EN" "http://www.w3.org/Graphics/SVG/1.1/DTD/svg11.dtd">
<svg version="1.1" xmlns="http://www.w3.org/2000/svg" xmlns:xlink="http://www.w3.org/1999/xlink" x="0" y="0" width="221.596" height="231.273" viewBox="0, 0, 421.596, 431.273">
  <g id="Layer_x0020_1">
    <path d="M103.749,38.766 C109.333,38.766 114.776,39.787 119.991,41.715 C127.361,49.028 134.023,57.078 139.947,65.327 C153.298,83.979 163.815,104.927 171.978,126.527 C172.63,132.338 172.971,138.29 172.971,144.385 C172.971,202.693 141.96,249.975 103.749,249.975 C65.51,249.975 34.527,202.693 34.527,144.385 C34.527,86.048 65.51,38.766 103.749,38.766 z" fill="#E6E6E6" id="path6834"/>
    <path d="M368.617,105.976 C372.585,117.314 374.796,129.9 374.796,143.166 C374.796,184.948 352.885,220.098 323.206,230.218 C294.321,235.745 171.865,244.674 119.141,248.869 C135.667,243.342 148.451,229.622 156.983,214.797 C169.087,193.821 174.416,168.451 174.416,144.385 C174.416,140.19 174.246,135.994 173.906,131.799 C175.55,136.335 177.081,140.87 178.498,145.405 L178.81,146.397 L318.245,147.985 L318.614,147.078 C329.357,121.226 345.486,107.053 368.617,105.976 z" fill="#E6E6E6" id="path6836"/>
    <path d="M391.237,107.081 C359.064,99.087 333.071,108.527 317.31,146.539 L179.859,144.98 C159.761,80.861 126.313,36.811 90.823,17.989 C60.946,2.171 29.595,4.184 3.46,27.088 C13.381,2.313 38.807,-1.344 61.881,0.357 C123.279,4.893 257.216,35.478 319.663,49 C356.286,56.936 385.54,61.217 391.237,107.081 z" fill="#DBD8D8" id="path6838"/>
    <path d="M269.66,23.715 C281.452,24.367 292.875,26.436 303.902,30.007 L301.408,43.557 C290.069,41.063 278.731,38.568 267.392,36.102 z" fill="#E6E6E6" id="path6840"/>
    <path d="M4.905,98.407 L39.488,99.711 C42.209,90.697 45.866,81.995 50.486,73.973 C59.982,57.475 74.722,42.366 93.969,38.341 C97.173,37.689 100.461,37.349 103.749,37.349 C108.454,37.349 113.103,38.058 117.61,39.39 C109.305,31.51 100.121,24.537 90.143,19.264 C83.084,15.523 75.601,12.603 67.806,10.902 C60.521,9.286 53.094,8.748 45.667,9.456 C30.332,10.959 16.726,17.592 5.16,27.513 C-1.388,49.765 -1.331,71.988 3.233,94.212 z" fill="#CCCCCC" id="path6842"/>
    <path d="M299.65,28.704 L297.723,42.735 C298.942,43.018 300.16,43.274 301.408,43.557 L303.902,30.007 C302.485,29.554 301.068,29.129 299.65,28.704 z M270.198,36.726 C271.389,32.672 272.863,27.768 273.968,23.998 C272.551,23.885 271.105,23.771 269.66,23.715 L267.392,36.102 C268.328,36.3 269.263,36.527 270.198,36.726 z" fill="#CCCCCC" id="path6844"/>
    <path d="M218.183,117.456 C183.317,75.163 118.347,5.97 61.768,1.775 C40.962,0.244 18.653,3.135 7.627,21.815 C18.682,13.453 31.352,7.954 45.384,6.593 C53.094,5.856 60.861,6.395 68.429,8.067 C76.48,9.853 84.218,12.858 91.475,16.713 C111.884,27.513 128.949,45.031 142.272,63.655 C159.478,87.664 172.035,115.472 180.936,143.563 L316.346,145.094 C319.039,138.716 322.101,133.046 325.502,128.057 z" fill="#E6E6E6" id="path6846"/>
    <path d="M20.269,18.782 C39.063,26.209 54.058,39.617 69.025,49.198 C76.168,43.302 84.417,38.88 93.686,36.952 C96.974,36.244 100.347,35.904 103.749,35.904 C106.697,35.904 109.645,36.159 112.536,36.697 C105.478,30.489 97.768,24.933 89.462,20.54 C82.546,16.855 75.176,13.992 67.494,12.291 C60.379,10.732 53.066,10.193 45.781,10.902 C36.653,11.781 28.121,14.559 20.269,18.782 z" fill="#B3B3B3" id="path6848"/>
    <path d="M105.393,57.9 C135.809,57.9 160.441,96.99 160.441,145.207 C160.441,193.424 135.809,232.514 105.393,232.514 C75.006,232.514 50.344,193.424 50.344,145.207 C50.344,96.99 75.006,57.9 105.393,57.9 z" fill="#4D4D4D" id="path6850"/>
    <path d="M105.393,92.114 C126.341,92.114 143.32,116.237 143.32,145.972 C143.32,175.708 126.341,199.802 105.393,199.802 C84.445,199.802 67.466,175.708 67.466,145.972 C67.466,116.237 84.445,92.114 105.393,92.114 z" fill="#000000" id="path6852"/>
    <path d="M105.393,112.665 C118.347,112.665 128.864,127.576 128.864,145.972 C128.864,164.369 118.347,179.251 105.393,179.251 C92.439,179.251 81.951,164.369 81.951,145.972 C81.951,127.576 92.439,112.665 105.393,112.665 z" fill="#1A1A1A" id="path6854"/>
    <path d="M111.998,126.668 C120.615,126.668 127.588,136.59 127.588,148.807 C127.588,161.053 120.615,170.974 111.998,170.974 C103.38,170.974 96.407,161.053 96.407,148.807 C96.407,136.59 103.38,126.668 111.998,126.668 z" fill="#000000" id="path6856"/>
    <path d="M115.286,141.352 C118.602,141.352 121.295,145.15 121.295,149.856 C121.295,154.561 118.602,158.388 115.286,158.388 C111.998,158.388 109.305,154.561 109.305,149.856 C109.305,145.15 111.998,141.352 115.286,141.352 z" fill="#1A1A1A" id="path6858"/>
    <path d="M113.358,142.911 C114.577,142.911 115.569,144.328 115.569,146.029 C115.569,147.758 114.577,149.147 113.358,149.147 C112.168,149.147 111.176,147.758 111.176,146.029 C111.176,144.328 112.168,142.911 113.358,142.911 z" fill="#333333" id="path6860"/>
    <path d="M118.602,60.423 C130.054,64.902 140.117,75.078 147.487,88.939 C151.739,93.447 155.991,98.067 160.243,102.687 C154.092,89.932 146.977,77.629 138.785,66.177 C132.889,57.929 126.369,50.105 119.198,42.962 C114.237,41.176 109.05,40.212 103.749,40.212 C100.659,40.212 97.569,40.524 94.565,41.176 C94.48,41.176 94.366,41.204 94.281,41.233 C102.558,46.817 110.637,53.308 118.602,60.423 z" fill="#B3B3B3" id="path6862"/>
    <path d="M55.957,145.235 C55.957,97.5 78.917,58.694 107.377,57.957 C106.725,57.929 106.073,57.9 105.393,57.9 C75.006,57.9 50.344,96.99 50.344,145.207 C50.344,193.424 75.006,232.514 105.393,232.514 C105.875,232.514 106.357,232.514 106.839,232.485 C78.606,231.266 55.957,192.687 55.957,145.235 z" fill="#000000" id="path6864"/>
    <path d="M361.474,193.226 L277.654,194.728 C268.639,211.934 255.402,225.257 241.2,237.673 C253.843,236.567 266.485,235.433 279.099,234.186 C287.858,233.307 296.617,232.4 305.376,231.351 C311.159,230.643 317.112,229.934 322.838,228.829 C338.315,223.528 350.589,211.651 358.894,197.818 C359.801,196.315 360.68,194.785 361.474,193.226 z" fill="#DEDEDE" id="path6866"/>
    <path d="M315.496,240.819 C315.496,240.819 318.557,235.887 320.853,232.117 C315.864,232.967 310.734,233.619 305.716,234.214 C296.957,235.263 288.17,236.17 279.383,237.049 C257.074,239.232 234.737,241.131 212.4,242.973 C209.906,243.172 207.383,243.37 204.889,243.569 L236.211,251.676 z" fill="#DEDEDE" id="path6868"/>
    <path d="M222.151,248.047 C224.164,245.865 226.233,243.625 228.019,241.669 C222.803,242.095 217.588,242.548 212.4,242.973 C209.906,243.172 207.383,243.37 204.889,243.569 z" fill="#C7C7C9" id="path6870"/>
    <path d="M203.67,272.879 C205.909,276.62 210.246,282.006 216.284,288.242 C222.322,294.479 230.003,301.508 237.033,306.299 C244.063,311.061 250.413,313.556 257.556,314.831 C264.699,316.107 272.665,316.164 279.836,315.285 C287.008,314.406 293.414,312.62 297.949,309.984 C302.513,307.376 305.206,303.918 307.757,298.192 C310.308,292.466 312.718,284.472 313.88,278.605 C315.071,272.709 315.014,268.967 314.645,266.302 C314.249,263.666 313.568,262.107 312.888,261.002 C312.208,259.868 311.556,259.159 311.754,255.474 C311.924,252.554 312.605,247.736 313.398,242.548 L236.126,253.15 L220.479,249.096 C217.588,250.882 214.81,252.724 212.344,254.624 C208.007,257.912 204.548,261.427 202.904,264.205 C201.26,267.011 201.402,269.109 203.67,272.879 z" fill="#DEDEDE" id="path6872"/>
    <path d="M231.222,273.616 C231.676,271.32 232.81,268.57 234.652,266.728 C236.495,264.913 239.046,264.006 241.257,264.233 C243.496,264.46 245.395,265.82 246.388,268.173 C247.351,270.526 247.436,273.871 246.586,277.046 C245.707,280.22 243.921,283.225 241.654,284.699 C239.414,286.173 236.721,286.116 234.879,285.011 C233.036,283.905 232.073,281.779 231.477,279.767 C230.91,277.754 230.74,275.912 231.222,273.616 z" fill="#EDEFEE" id="path6874"/>
    <path d="M231.789,271.546 C233.433,270.526 235.077,269.619 236.75,269.109 C239.329,268.287 241.965,268.372 244.46,269.194 C245.31,269.477 246.161,269.846 246.983,270.271 C246.841,269.506 246.643,268.797 246.388,268.173 C245.395,265.82 243.496,264.46 241.257,264.233 C239.046,264.006 236.495,264.913 234.652,266.728 C233.348,268.032 232.413,269.789 231.789,271.546 z" fill="#C5C7C6" id="path6876"/>
    <path d="M329.215,234.101 C326.523,234.186 323.745,234.441 320.91,234.81 C319.521,237.077 318.104,239.317 316.715,241.556 L316.346,242.151 L314.901,242.35 L314.816,242.775 C314.447,245.184 314.079,247.622 313.767,250.032 C313.54,251.846 313.285,253.717 313.2,255.531 C313.115,257.005 313.03,258.479 313.823,259.754 L314.107,260.265 C315.212,262.079 315.751,264.006 316.063,266.104 C316.658,270.299 316.119,274.75 315.297,278.86 C313.993,285.323 311.754,292.778 309.061,298.787 C308.608,299.808 308.154,300.772 307.644,301.707 C309.401,301.253 311.159,300.8 312.945,300.375 C321.42,298.277 330.406,296.208 336.529,294.819 C342.652,293.401 345.911,292.664 348.293,291.361 C350.702,290.057 352.261,288.214 353.508,286.57 C354.755,284.926 355.719,283.452 357.08,282.375 C358.469,281.269 360.255,280.504 361.615,279.143 C362.948,277.754 363.855,275.77 364.308,273.587 C364.762,271.405 364.762,269.052 364.166,267.153 C363.543,265.254 362.352,263.808 361.644,261.654 C360.963,259.471 360.765,256.551 359.744,253.263 C358.696,249.975 356.853,246.262 353.678,243.143 C350.504,240.025 345.996,237.474 341.745,235.972 C337.521,234.469 333.496,234.016 329.215,234.101 z" fill="#E0DDDD" id="path6878"/>
    <path d="M343.559,236.652 C342.963,236.397 342.34,236.17 341.745,235.972 C337.521,234.469 333.496,234.016 329.215,234.101 C326.523,234.186 323.745,234.441 320.91,234.81 C319.521,237.077 318.104,239.317 316.715,241.556 L316.346,242.151 L314.901,242.35 L314.816,242.775 C314.617,244.192 314.39,245.638 314.192,247.084 C314.39,246.857 314.589,246.658 314.787,246.432 C317.423,243.625 319.294,242.01 323.319,241.103 C327.316,240.195 333.467,239.997 337.804,238.977 C340.157,238.41 342,237.588 343.559,236.652 z" fill="#C5C7C6" id="path6880"/>
    <path d="M359.943,268.06 C361.417,268.117 362.551,270.016 362.466,272.312 C362.381,274.579 361.133,276.394 359.659,276.337 C358.185,276.28 357.052,274.409 357.137,272.113 C357.222,269.817 358.497,268.003 359.943,268.06 z" fill="#C5C7C6" id="path6882"/>
    <path d="M357.562,270.328 C358.072,270.384 358.667,270.753 359.121,271.065 C359.603,271.433 359.886,271.745 359.915,272.028 C359.915,272.283 359.688,272.51 359.036,272.624 C358.554,272.68 357.789,272.68 357.222,272.539 C357.222,272.397 357.222,272.255 357.25,272.142 C357.25,271.49 357.363,270.866 357.562,270.328 z" fill="#DBDEDD" id="path6884"/>
    <path d="M344.211,294.45 C341.773,295.102 339.307,295.669 336.841,296.208 C328.989,298.022 321.137,299.808 313.313,301.764 C311.527,302.189 309.77,302.642 308.012,303.096 L306.652,303.436 C305.971,304.542 305.234,305.59 304.412,306.526 C304.526,310.296 304.951,314.264 305.546,318.006 C306.34,322.995 307.502,327.53 309.543,331.244 C311.584,334.929 314.532,337.792 319.153,339.549 C323.801,341.278 330.094,341.93 335.877,341.647 C341.631,341.335 346.904,340.088 351.949,337.452 C356.995,334.844 361.842,330.847 364.195,326.992 C366.548,323.137 366.378,319.452 365.669,315.483 C364.932,311.543 363.628,307.348 362.012,303.89 C360.396,300.431 358.441,297.738 355.124,295.357 C353.565,294.252 351.722,293.231 349.71,292.211 C349.483,292.353 349.228,292.494 349.001,292.636 C347.499,293.43 345.826,293.968 344.211,294.45 z" fill="#E4E6E5" id="path6886"/>
    <path d="M335.225,311.316 C336.727,311.316 337.974,312.932 337.974,314.916 C337.974,316.901 336.727,318.516 335.225,318.516 C333.723,318.516 332.504,316.901 332.504,314.916 C332.504,312.932 333.723,311.316 335.225,311.316 z" fill="#FFFFFF" id="path6888"/>
    <path d="M313.086,310.551 C315.212,307.716 318.557,305.307 324.028,303.266 C329.471,301.225 337.011,299.524 342.765,297.257 C346.025,295.953 348.689,294.507 351.127,292.948 C350.645,292.693 350.192,292.466 349.71,292.211 C349.483,292.353 349.228,292.494 349.001,292.636 C347.499,293.43 345.826,293.968 344.211,294.45 C341.773,295.102 339.307,295.669 336.841,296.208 C328.989,298.022 321.137,299.808 313.313,301.764 C311.527,302.189 309.77,302.642 308.012,303.096 L306.652,303.436 C305.971,304.542 305.234,305.59 304.412,306.526 C304.526,310.296 304.951,314.264 305.546,318.006 C306.085,321.351 306.765,324.497 307.786,327.332 C308.012,324.809 308.551,322.513 309.118,320.302 C310.025,316.702 310.932,313.414 313.086,310.551 z" fill="#CECECE" id="path6890"/>
    <path d="M312.293,331.584 C313.852,332.406 316.942,334.617 322.214,335.694 C327.458,336.771 334.885,336.715 341.489,335.382 C348.066,334.05 353.82,331.414 357.675,328.608 C361.502,325.773 363.458,322.797 364.081,322.513 C364.677,322.258 363.968,324.724 362.239,327.275 C360.481,329.798 357.732,332.349 354.444,334.475 C351.156,336.573 347.329,338.245 343.105,339.124 C338.882,340.031 334.261,340.173 330.264,339.974 C326.239,339.748 322.838,339.181 320.06,338.189 C317.253,337.197 315.099,335.751 313.653,334.617 C312.208,333.483 311.527,332.633 311.159,331.952 C310.79,331.272 310.762,330.734 312.293,331.584 z" fill="#F4F7F6" id="path6892"/>
    <path d="M293.499,330.422 C293.811,336.828 295.115,346.976 296.249,354.063 C297.411,361.121 298.403,365.146 301.181,368.831 C303.959,372.544 308.523,375.946 315.893,378.242 C323.263,380.538 333.467,381.729 343.048,380.963 C352.658,380.198 361.672,377.42 367.823,374.33 C373.974,371.24 377.262,367.782 379.388,364.806 C381.514,361.829 382.45,359.335 382.478,354.573 C382.507,349.782 381.599,342.724 380.579,336.006 C379.559,329.288 378.425,322.882 377.092,318.233 C375.76,313.584 374.258,310.693 371.933,308.482 C370.091,306.753 367.766,305.449 363.911,304.57 C365.357,307.943 366.434,311.656 367.086,315.228 C367.908,319.735 367.908,323.675 365.414,327.729 C362.664,332.264 357.278,336.318 352.601,338.727 C347.329,341.477 341.858,342.781 335.934,343.064 C330.406,343.376 323.83,342.837 318.671,340.882 C314.022,339.124 310.677,336.233 308.296,331.924 C306,327.786 304.866,322.882 304.129,318.233 C303.874,316.702 303.675,315.171 303.477,313.641 C300.926,315.171 298.8,316.759 297.241,318.233 C293.924,321.379 293.216,324.044 293.499,330.422 z" fill="#E4E6E5" id="path6894"/>
    <path d="M347.669,363.7 C338.145,365.401 326.381,365.373 316.346,362.652 C309.543,360.837 303.534,357.804 297.779,354.374 C298.545,359.108 299.395,364.069 302.343,367.981 C305.745,372.516 311.017,375.209 316.318,376.853 C324.482,379.404 334.403,380.226 342.935,379.518 C350.985,378.866 359.943,376.683 367.171,373.055 C371.565,370.815 375.335,368.009 378.226,363.984 C380.466,360.837 381.033,358.456 381.061,354.544 C381.061,352.135 380.862,349.641 380.607,347.231 C380.551,346.721 380.494,346.182 380.437,345.672 C377.433,348.62 374.286,351.398 370.941,353.864 C364.478,358.57 357.193,362 347.669,363.7 z" fill="#F4F7F6" id="path6896"/>
    <path d="M380.21,325.121 C404.928,331.782 421.596,346.211 421.596,365.514 C421.596,393.691 385.766,417.728 341.546,419.202 C297.354,420.676 263.48,399.473 263.48,371.297 C263.48,355.31 274.564,341.76 292.195,332.774 C292.45,336.403 292.875,340.031 293.301,343.603 C293.754,347.174 294.264,350.746 294.831,354.289 C295.738,359.76 296.646,365.174 300.047,369.71 C303.817,374.727 309.543,377.76 315.467,379.603 C323.971,382.267 334.289,383.118 343.19,382.381 C351.581,381.729 360.907,379.433 368.447,375.606 C373.294,373.196 377.404,370.078 380.551,365.656 C383.159,362.028 383.896,359.052 383.924,354.573 C383.952,352.05 383.725,349.47 383.47,346.948 C383.187,343.971 382.79,341.023 382.365,338.075 C382.251,337.31 382.138,336.545 381.996,335.779 C381.486,332.293 380.919,328.693 380.21,325.121 z" fill="#E0DDDD" id="path6898"/>
    <path d="M421.199,376.74 C417.174,405.795 383.045,429.634 341.546,431.193 C299.594,432.752 266.967,411.436 263.735,382.239 C267.846,395.08 278.561,404.462 290.268,410.443 C305.83,418.38 324.312,421.215 341.603,420.62 C360.368,419.996 380.097,415.206 396.198,405.341 C406.998,398.708 417.146,388.985 421.199,376.74 z" fill="#BDBBBB" id="path6900"/>
    <path d="M401.187,342.724 C405.042,342.724 408.16,344.311 408.16,346.267 C408.16,348.195 405.042,349.782 401.187,349.782 C397.332,349.782 394.214,348.195 394.214,346.267 C394.214,344.311 397.332,342.724 401.187,342.724 z M367.596,397.631 C371.451,397.631 374.57,400.04 374.57,403.045 C374.57,406.021 371.451,408.431 367.596,408.431 C363.741,408.431 360.623,406.021 360.623,403.045 C360.623,400.04 363.741,397.631 367.596,397.631 z M278.646,379.177 C282.501,379.177 285.619,381.02 285.619,383.316 C285.619,385.584 282.501,387.426 278.646,387.426 C274.791,387.426 271.672,385.584 271.672,383.316 C271.672,381.02 274.791,379.177 278.646,379.177 z" fill="#BDBBBB" id="path6902"/>
  </g>
</svg>
