<svg id="Layer_1" data-name="Layer 1" xmlns="http://www.w3.org/2000/svg" viewBox="0 0 519.48 519.78"><defs><style>.cls-1,.cls-2{fill:#e6e6e6;}.cls-1{opacity:0.5;}</style></defs><title>Mux-pattern-repeat</title><path class="cls-1" d="M55.24,240.42a4.89,4.89,0,0,0,6.92-6.91L44.73,216.12A4.89,4.89,0,1,0,37.82,223Z"/><path class="cls-2" d="M18.94,245.64a4.89,4.89,0,0,1-9.78,0V211.12a4.89,4.89,0,0,1,9.78,0Z"/><path class="cls-2" d="M144.34,249.17a4.89,4.89,0,0,1-6.91-6.91l34.92-34.89a4.89,4.89,0,1,1,6.91,6.91Z"/><circle class="cls-2" cx="199.68" cy="233.27" r="4.89"/><circle class="cls-2" cx="128.38" cy="216.72" r="4.89"/><path class="cls-2" d="M105.29,240.93a10.81,10.81,0,0,1-10.82-10.82V211.05a4.89,4.89,0,0,0-9.78,0V230a20.65,20.65,0,0,0,20.56,20.64h.06a4.84,4.84,0,0,0,0-9.67Z"/><path class="cls-1" d="M228,240.93a10.82,10.82,0,0,0,10.83-10.82V211.05a4.89,4.89,0,1,1,9.77,0V230A20.64,20.64,0,0,1,228,250.6H228a4.84,4.84,0,0,1,0-9.67Z"/><path class="cls-1" d="M55.24,42.31a4.89,4.89,0,1,0,6.92-6.91L44.73,18a4.89,4.89,0,0,0-6.91,6.92Z"/><path class="cls-2" d="M229.74,108.29a4.89,4.89,0,0,1-6.91-6.91L240.25,84a4.89,4.89,0,0,1,6.91,6.91Z"/><path class="cls-2" d="M18.94,47.53a4.89,4.89,0,0,1-9.78,0V13a4.89,4.89,0,0,1,9.78,0Z"/><path class="cls-1" d="M189,111.83a4.89,4.89,0,0,1-9.78,0V77.3a4.89,4.89,0,0,1,9.78,0Z"/><path class="cls-2" d="M144.34,51.06a4.89,4.89,0,1,1-6.91-6.91L172.35,9.26a4.89,4.89,0,1,1,6.91,6.91Z"/><path class="cls-2" d="M45.55,115.47a4.89,4.89,0,0,0,6.91-6.91L17.54,73.66a4.89,4.89,0,0,0-6.92,6.92Z"/><circle class="cls-2" cx="199.68" cy="35.16" r="4.89"/><circle class="cls-2" cx="128.38" cy="18.61" r="4.89"/><circle class="cls-2" cx="133.27" cy="96.14" r="4.89"/><path class="cls-2" d="M105.29,42.82A10.81,10.81,0,0,1,94.47,32V12.93a4.89,4.89,0,0,0-9.78,0V31.85a20.65,20.65,0,0,0,20.56,20.64h.06a4.84,4.84,0,0,0,0-9.67Z"/><path class="cls-1" d="M228,42.82A10.82,10.82,0,0,0,238.82,32V12.93a4.89,4.89,0,0,1,9.77,0V31.85A20.64,20.64,0,0,1,228,52.49H228a4.84,4.84,0,0,1,0-9.67Z"/><path class="cls-1" d="M202.51,161.7a4.89,4.89,0,0,0-6.91,6.91L213,186a4.89,4.89,0,1,0,6.91-6.91Z"/><path class="cls-2" d="M238.82,140a4.89,4.89,0,1,1,9.77,0v34.53a4.89,4.89,0,0,1-9.77,0Z"/><path class="cls-2" d="M113.41,136.51a4.89,4.89,0,1,1,6.92,6.91L85.4,178.32a4.89,4.89,0,1,1-6.91-6.91Z"/><circle class="cls-2" cx="58.07" cy="152.42" r="4.89"/><circle class="cls-2" cx="129.37" cy="168.96" r="4.89"/><path class="cls-2" d="M152.46,144.75a10.82,10.82,0,0,1,10.82,10.82v19.07a4.89,4.89,0,0,0,9.78,0V155.72a20.64,20.64,0,0,0-20.55-20.64h-.06a4.84,4.84,0,0,0,0,9.67Z"/><path class="cls-1" d="M29.76,144.75a10.82,10.82,0,0,0-10.82,10.82v19.07a4.89,4.89,0,0,1-9.78,0V155.72a20.64,20.64,0,0,1,20.55-20.64h.06a4.84,4.84,0,0,1,0,9.67Z"/><path class="cls-1" d="M74.52,107.12A10.83,10.83,0,0,0,85.35,96.3V77.23a4.89,4.89,0,1,1,9.77,0V96.15a20.64,20.64,0,0,1-20.55,20.64h-.06a4.84,4.84,0,0,1,0-9.67Z"/><path class="cls-1" d="M318,240.42a4.89,4.89,0,1,0,6.92-6.91L307.5,216.12a4.89,4.89,0,1,0-6.91,6.91Z"/><path class="cls-2" d="M281.71,245.64a4.89,4.89,0,0,1-9.78,0V211.12a4.89,4.89,0,0,1,9.78,0Z"/><path class="cls-2" d="M407.11,249.17a4.89,4.89,0,1,1-6.91-6.91l34.92-34.89a4.89,4.89,0,1,1,6.91,6.91Z"/><circle class="cls-2" cx="462.45" cy="233.27" r="4.89"/><circle class="cls-2" cx="391.15" cy="216.72" r="4.89"/><path class="cls-2" d="M368.06,240.93a10.81,10.81,0,0,1-10.82-10.82V211.05a4.89,4.89,0,1,0-9.78,0V230A20.65,20.65,0,0,0,368,250.6h.06a4.84,4.84,0,0,0,0-9.67Z"/><path class="cls-1" d="M490.76,240.93a10.82,10.82,0,0,0,10.83-10.82V211.05a4.89,4.89,0,1,1,9.77,0V230a20.64,20.64,0,0,1-20.55,20.64h-.06a4.84,4.84,0,0,1,0-9.67Z"/><path class="cls-1" d="M318,42.31a4.89,4.89,0,1,0,6.92-6.91L307.5,18a4.89,4.89,0,1,0-6.91,6.92Z"/><path class="cls-2" d="M492.51,108.29a4.89,4.89,0,1,1-6.91-6.91L503,84a4.89,4.89,0,1,1,6.91,6.91Z"/><path class="cls-2" d="M281.71,47.53a4.89,4.89,0,1,1-9.78,0V13a4.89,4.89,0,1,1,9.78,0Z"/><path class="cls-1" d="M451.79,111.83a4.89,4.89,0,0,1-9.78,0V77.3a4.89,4.89,0,0,1,9.78,0Z"/><path class="cls-2" d="M407.11,51.06a4.89,4.89,0,1,1-6.91-6.91L435.12,9.26A4.89,4.89,0,0,1,442,16.17Z"/><path class="cls-2" d="M308.32,115.47a4.89,4.89,0,0,0,6.91-6.91l-34.92-34.9a4.89,4.89,0,0,0-6.92,6.92Z"/><circle class="cls-2" cx="462.45" cy="35.16" r="4.89"/><circle class="cls-2" cx="391.15" cy="18.61" r="4.89"/><circle class="cls-2" cx="396.04" cy="96.14" r="4.89"/><path class="cls-2" d="M368.06,42.82A10.81,10.81,0,0,1,357.24,32V12.93a4.89,4.89,0,0,0-9.78,0V31.85A20.65,20.65,0,0,0,368,52.49h.06a4.84,4.84,0,0,0,0-9.67Z"/><path class="cls-1" d="M490.76,42.82A10.82,10.82,0,0,0,501.59,32V12.93a4.89,4.89,0,0,1,9.77,0V31.85a20.64,20.64,0,0,1-20.55,20.64h-.06a4.84,4.84,0,0,1,0-9.67Z"/><path class="cls-1" d="M465.28,161.7a4.89,4.89,0,0,0-6.91,6.91L475.79,186a4.89,4.89,0,1,0,6.91-6.91Z"/><path class="cls-2" d="M501.59,140a4.89,4.89,0,1,1,9.77,0v34.53a4.89,4.89,0,0,1-9.77,0Z"/><path class="cls-2" d="M376.18,136.51a4.89,4.89,0,0,1,6.92,6.91l-34.93,34.9a4.89,4.89,0,0,1-6.91-6.91Z"/><circle class="cls-2" cx="320.84" cy="152.42" r="4.89"/><circle class="cls-2" cx="392.14" cy="168.96" r="4.89"/><path class="cls-2" d="M415.23,144.75a10.82,10.82,0,0,1,10.82,10.82v19.07a4.89,4.89,0,0,0,9.78,0V155.72a20.64,20.64,0,0,0-20.55-20.64h-.06a4.84,4.84,0,0,0,0,9.67Z"/><path class="cls-1" d="M292.53,144.75a10.82,10.82,0,0,0-10.82,10.82v19.07a4.89,4.89,0,0,1-9.78,0V155.72a20.64,20.64,0,0,1,20.55-20.64h.06a4.84,4.84,0,0,1,0,9.67Z"/><path class="cls-1" d="M337.29,107.12A10.82,10.82,0,0,0,348.11,96.3V77.23a4.89,4.89,0,0,1,9.78,0V96.15a20.64,20.64,0,0,1-20.55,20.64h-.06a4.84,4.84,0,0,1,0-9.67Z"/><path class="cls-1" d="M465.28,284.66a4.89,4.89,0,0,0-6.91,6.91L475.79,309a4.89,4.89,0,0,0,6.91-6.92Z"/><path class="cls-2" d="M501.59,279.44a4.89,4.89,0,1,1,9.77,0V314a4.89,4.89,0,1,1-9.77,0Z"/><path class="cls-2" d="M376.18,275.91a4.89,4.89,0,0,1,6.92,6.91l-34.93,34.9a4.89,4.89,0,0,1-6.91-6.92Z"/><circle class="cls-2" cx="320.84" cy="291.81" r="4.89"/><circle class="cls-2" cx="392.14" cy="308.36" r="4.89"/><path class="cls-2" d="M415.23,284.15A10.81,10.81,0,0,1,426.05,295V314a4.89,4.89,0,0,0,9.78,0V295.12a20.64,20.64,0,0,0-20.55-20.64h-.06a4.84,4.84,0,0,0,0,9.67Z"/><path class="cls-1" d="M292.53,284.15A10.81,10.81,0,0,0,281.71,295V314a4.89,4.89,0,0,1-9.78,0V295.12a20.64,20.64,0,0,1,20.55-20.64h.06a4.84,4.84,0,0,1,0,9.67Z"/><path class="cls-1" d="M465.28,474a4.89,4.89,0,1,0-6.91,6.91l17.42,17.39a4.89,4.89,0,0,0,6.91-6.91Z"/><path class="cls-2" d="M290.78,409.93a4.89,4.89,0,1,1,6.92,6.91l-17.43,17.39a4.89,4.89,0,0,1-6.91-6.91Z"/><path class="cls-2" d="M501.59,468.73a4.89,4.89,0,1,1,9.77,0v34.52a4.89,4.89,0,1,1-9.77,0Z"/><path class="cls-1" d="M331.5,406.39a4.89,4.89,0,0,1,9.78,0v34.52a4.89,4.89,0,0,1-9.78,0Z"/><path class="cls-2" d="M376.18,465.2a4.89,4.89,0,1,1,6.92,6.91L348.17,507a4.89,4.89,0,0,1-6.91-6.91Z"/><path class="cls-2" d="M475,402.75a4.89,4.89,0,0,0-6.92,6.91L503,444.56a4.89,4.89,0,1,0,6.91-6.92Z"/><circle class="cls-2" cx="320.84" cy="481.1" r="4.89"/><circle class="cls-2" cx="392.14" cy="497.65" r="4.89"/><circle class="cls-2" cx="387.26" cy="422.08" r="4.89"/><path class="cls-2" d="M415.23,473.44a10.81,10.81,0,0,1,10.82,10.82v19.06a4.89,4.89,0,0,0,9.78,0V484.41a20.63,20.63,0,0,0-20.55-20.64h-.06a4.84,4.84,0,0,0,0,9.68Z"/><path class="cls-1" d="M292.53,473.44a10.81,10.81,0,0,0-10.82,10.82v19.06a4.89,4.89,0,0,1-9.78,0V484.41a20.63,20.63,0,0,1,20.55-20.64h.06a4.84,4.84,0,0,1,0,9.68Z"/><path class="cls-1" d="M318,360.45a4.89,4.89,0,1,0,6.92-6.92L307.5,336.14a4.89,4.89,0,0,0-6.91,6.91Z"/><path class="cls-2" d="M281.71,382.1a4.89,4.89,0,0,1-9.78,0V347.58a4.89,4.89,0,0,1,9.78,0Z"/><path class="cls-2" d="M407.11,385.63a4.89,4.89,0,1,1-6.91-6.91l34.92-34.9a4.89,4.89,0,1,1,6.91,6.92Z"/><circle class="cls-2" cx="462.45" cy="369.73" r="4.89"/><circle class="cls-2" cx="391.15" cy="353.18" r="4.89"/><path class="cls-2" d="M368.06,377.39a10.82,10.82,0,0,1-10.82-10.82V347.5a4.89,4.89,0,0,0-9.78,0v18.92A20.65,20.65,0,0,0,368,387.06h.06a4.84,4.84,0,0,0,0-9.67Z"/><path class="cls-1" d="M490.76,377.39a10.83,10.83,0,0,0,10.83-10.82V347.5a4.89,4.89,0,1,1,9.77,0v18.92a20.64,20.64,0,0,1-20.55,20.64h-.06a4.84,4.84,0,0,1,0-9.67Z"/><path class="cls-1" d="M446,411.1a10.82,10.82,0,0,0-10.82,10.82V441a4.89,4.89,0,1,1-9.78,0V422.07A20.65,20.65,0,0,1,446,401.43H446a4.84,4.84,0,0,1,0,9.67Z"/><path class="cls-1" d="M202.51,284.66a4.89,4.89,0,0,0-6.91,6.91L213,309a4.89,4.89,0,0,0,6.91-6.92Z"/><path class="cls-2" d="M238.82,279.44a4.89,4.89,0,1,1,9.77,0V314a4.89,4.89,0,1,1-9.77,0Z"/><path class="cls-2" d="M113.41,275.91a4.89,4.89,0,1,1,6.92,6.91L85.4,317.72a4.89,4.89,0,0,1-6.91-6.92Z"/><circle class="cls-2" cx="58.07" cy="291.81" r="4.89"/><circle class="cls-2" cx="129.37" cy="308.36" r="4.89"/><path class="cls-2" d="M152.46,284.15A10.81,10.81,0,0,1,163.28,295V314a4.89,4.89,0,0,0,9.78,0V295.12a20.64,20.64,0,0,0-20.55-20.64h-.06a4.84,4.84,0,0,0,0,9.67Z"/><path class="cls-1" d="M29.76,284.15A10.81,10.81,0,0,0,18.94,295V314a4.89,4.89,0,0,1-9.78,0V295.12a20.64,20.64,0,0,1,20.55-20.64h.06a4.84,4.84,0,0,1,0,9.67Z"/><path class="cls-1" d="M202.51,474a4.89,4.89,0,1,0-6.91,6.91L213,498.25a4.89,4.89,0,0,0,6.91-6.91Z"/><path class="cls-2" d="M28,409.93a4.89,4.89,0,0,1,6.92,6.91L17.5,434.23a4.89,4.89,0,0,1-6.91-6.91Z"/><path class="cls-2" d="M238.82,468.73a4.89,4.89,0,1,1,9.77,0v34.52a4.89,4.89,0,1,1-9.77,0Z"/><path class="cls-1" d="M68.73,406.39a4.89,4.89,0,0,1,9.78,0v34.52a4.89,4.89,0,0,1-9.78,0Z"/><path class="cls-2" d="M113.41,465.2a4.89,4.89,0,1,1,6.92,6.91L85.4,507a4.89,4.89,0,0,1-6.91-6.91Z"/><path class="cls-2" d="M212.21,402.75a4.89,4.89,0,0,0-6.92,6.91l34.93,34.9a4.89,4.89,0,1,0,6.91-6.92Z"/><circle class="cls-2" cx="58.07" cy="481.1" r="4.89"/><circle class="cls-2" cx="129.37" cy="497.65" r="4.89"/><circle class="cls-2" cx="124.49" cy="422.08" r="4.89"/><path class="cls-2" d="M152.46,473.44a10.81,10.81,0,0,1,10.82,10.82v19.06a4.89,4.89,0,0,0,9.78,0V484.41a20.63,20.63,0,0,0-20.55-20.64h-.06a4.84,4.84,0,0,0,0,9.68Z"/><path class="cls-1" d="M29.76,473.44a10.81,10.81,0,0,0-10.82,10.82v19.06a4.89,4.89,0,0,1-9.78,0V484.41a20.63,20.63,0,0,1,20.55-20.64h.06a4.84,4.84,0,0,1,0,9.68Z"/><path class="cls-1" d="M55.24,360.45a4.89,4.89,0,1,0,6.92-6.92L44.73,336.14a4.89,4.89,0,0,0-6.91,6.91Z"/><path class="cls-2" d="M18.94,382.1a4.89,4.89,0,0,1-9.78,0V347.58a4.89,4.89,0,0,1,9.78,0Z"/><path class="cls-2" d="M144.34,385.63a4.89,4.89,0,1,1-6.91-6.91l34.92-34.9a4.89,4.89,0,1,1,6.91,6.92Z"/><circle class="cls-2" cx="199.68" cy="369.73" r="4.89"/><circle class="cls-2" cx="128.38" cy="353.18" r="4.89"/><path class="cls-2" d="M105.29,377.39a10.82,10.82,0,0,1-10.82-10.82V347.5a4.89,4.89,0,0,0-9.78,0v18.92a20.65,20.65,0,0,0,20.56,20.64h.06a4.84,4.84,0,0,0,0-9.67Z"/><path class="cls-1" d="M228,377.39a10.83,10.83,0,0,0,10.83-10.82V347.5a4.89,4.89,0,1,1,9.77,0v18.92A20.64,20.64,0,0,1,228,387.06H228a4.84,4.84,0,0,1,0-9.67Z"/><path class="cls-1" d="M183.23,411.1a10.82,10.82,0,0,0-10.82,10.82V441a4.89,4.89,0,1,1-9.78,0V422.07a20.65,20.65,0,0,1,20.56-20.64h.06a4.84,4.84,0,0,1,0,9.67Z"/></svg>