<svg id="Layer_1" data-name="Layer 1" xmlns="http://www.w3.org/2000/svg" viewBox="0 0 1373.93 988.45"><defs><style>.cls-1,.cls-2{fill:#f2f2f2;}.cls-1{opacity:0.5;}</style></defs><title>white-background</title><path class="cls-1" d="M1295.44,436.76a6.37,6.37,0,1,0-9,9l22.7,22.66a6.37,6.37,0,1,0,9-9Z"/><path class="cls-2" d="M1068,353.33a6.37,6.37,0,1,1,9,9L1054.34,385a6.36,6.36,0,0,1-9-9Z"/><path class="cls-2" d="M1342.75,430a6.37,6.37,0,0,1,12.74,0v45a6.37,6.37,0,0,1-12.74,0Z"/><path class="cls-1" d="M1121.11,348.72a6.37,6.37,0,1,1,12.74,0v45a6.37,6.37,0,1,1-12.74,0Z"/><path class="cls-2" d="M1179.33,425.35a6.37,6.37,0,1,1,9,9l-45.51,45.47a6.37,6.37,0,1,1-9-9Z"/><path class="cls-2" d="M1308.07,344a6.36,6.36,0,0,0-9,9l45.5,45.48a6.37,6.37,0,0,0,9-9Z"/><circle class="cls-2" cx="1107.21" cy="446.08" r="6.37"/><circle class="cls-2" cx="1200.13" cy="467.64" r="6.37"/><circle class="cls-2" cx="1193.76" cy="369.17" r="6.37"/><circle class="cls-2" cx="1022.27" cy="351.46" r="6.37"/><path class="cls-2" d="M1230.22,436.09a14.11,14.11,0,0,1,14.1,14.11V475a6.37,6.37,0,1,0,12.74,0V450.39a26.9,26.9,0,0,0-26.79-26.9h-.07a6.3,6.3,0,0,0,0,12.6Z"/><path class="cls-1" d="M1070.31,436.09a14.11,14.11,0,0,0-14.1,14.11V475a6.37,6.37,0,0,1-12.74,0V450.39a26.9,26.9,0,0,1,26.79-26.9h.07a6.3,6.3,0,0,1,0,12.6Z"/><path class="cls-1" d="M1103.53,278.89a6.37,6.37,0,0,0,9-9l-22.7-22.66a6.37,6.37,0,1,0-9,9Z"/><path class="cls-2" d="M1056.21,314.51a6.37,6.37,0,0,1-12.74,0v-45a6.37,6.37,0,0,1,12.74,0Z"/><path class="cls-2" d="M1219.63,319.11a6.37,6.37,0,0,1-9-9l45.51-45.47a6.37,6.37,0,1,1,9,9Z"/><circle class="cls-2" cx="1291.75" cy="298.39" r="6.37"/><circle class="cls-2" cx="1198.83" cy="276.82" r="6.37"/><path class="cls-2" d="M1168.75,308.37a14.1,14.1,0,0,1-14.11-14.1V269.43a6.37,6.37,0,0,0-12.74,0v24.65A26.9,26.9,0,0,0,1168.69,321h.08a6.31,6.31,0,0,0,0-12.61Z"/><path class="cls-1" d="M1328.65,308.37a14.1,14.1,0,0,0,14.1-14.1V269.43a6.37,6.37,0,0,1,12.74,0v24.65A26.9,26.9,0,0,1,1328.7,321h-.07a6.31,6.31,0,0,1,0-12.61Z"/><path class="cls-1" d="M1270.31,354.86a14.1,14.1,0,0,0-14.1,14.1v24.85a6.37,6.37,0,0,1-12.74,0V369.16a26.9,26.9,0,0,1,26.78-26.9h.08a6.3,6.3,0,0,1,0,12.6Z"/><path class="cls-1" d="M952,436.76a6.37,6.37,0,0,0-9,9l22.71,22.66a6.37,6.37,0,0,0,9-9Z"/><path class="cls-2" d="M724.58,353.33a6.37,6.37,0,0,1,9,9L710.88,385a6.37,6.37,0,0,1-9-9Z"/><path class="cls-2" d="M999.29,430a6.37,6.37,0,0,1,12.74,0v45a6.37,6.37,0,0,1-12.74,0Z"/><path class="cls-1" d="M777.64,348.72a6.37,6.37,0,0,1,12.74,0v45a6.37,6.37,0,1,1-12.74,0Z"/><path class="cls-2" d="M835.86,425.35a6.37,6.37,0,0,1,9,9l-45.51,45.47a6.36,6.36,0,0,1-9-9Z"/><path class="cls-2" d="M964.61,344a6.37,6.37,0,0,0-9,9l45.51,45.48a6.37,6.37,0,0,0,9-9Z"/><circle class="cls-2" cx="763.74" cy="446.08" r="6.37"/><circle class="cls-2" cx="856.66" cy="467.64" r="6.37"/><circle class="cls-2" cx="850.29" cy="369.17" r="6.37"/><path class="cls-2" d="M886.75,436.09a14.1,14.1,0,0,1,14.1,14.11V475a6.37,6.37,0,1,0,12.74,0V450.39a26.9,26.9,0,0,0-26.78-26.9h-.08a6.3,6.3,0,0,0,0,12.6Z"/><path class="cls-1" d="M726.85,436.09a14.1,14.1,0,0,0-14.1,14.11V475A6.37,6.37,0,0,1,700,475V450.39a26.9,26.9,0,0,1,26.78-26.9h.08a6.3,6.3,0,0,1,0,12.6Z"/><path class="cls-1" d="M760.06,307.71a6.37,6.37,0,1,0,9-9L746.37,276a6.37,6.37,0,1,0-9,9Z"/><path class="cls-2" d="M712.75,314.51a6.37,6.37,0,0,1-12.74,0v-45a6.37,6.37,0,0,1,12.74,0Z"/><path class="cls-2" d="M876.17,319.11a6.37,6.37,0,0,1-9-9l45.51-45.47a6.37,6.37,0,0,1,9,9Z"/><circle class="cls-2" cx="948.29" cy="298.39" r="6.37"/><circle class="cls-2" cx="855.37" cy="276.82" r="6.37"/><path class="cls-2" d="M825.28,308.37a14.1,14.1,0,0,1-14.1-14.1V269.43a6.37,6.37,0,0,0-12.74,0v24.65A26.89,26.89,0,0,0,825.22,321h.08a6.31,6.31,0,0,0,0-12.61Z"/><path class="cls-1" d="M985.18,308.37a14.1,14.1,0,0,0,14.11-14.1V269.43a6.37,6.37,0,0,1,12.74,0v24.65A26.9,26.9,0,0,1,985.24,321h-.08a6.31,6.31,0,0,1,0-12.61Z"/><path class="cls-1" d="M926.85,354.86A14.1,14.1,0,0,0,912.74,369v24.85a6.37,6.37,0,1,1-12.73,0V369.16a26.9,26.9,0,0,1,26.78-26.9h.08a6.3,6.3,0,0,1,0,12.6Z"/><path class="cls-1" d="M760.06,61a6.37,6.37,0,1,0,9-9l-22.7-22.67a6.37,6.37,0,1,0-9,9Z"/><path class="cls-2" d="M987.46,144.47a6.37,6.37,0,0,1-9-9l22.7-22.67a6.37,6.37,0,0,1,9,9Z"/><path class="cls-2" d="M712.75,67.84a6.37,6.37,0,0,1-12.74,0v-45a6.37,6.37,0,0,1,12.74,0Z"/><path class="cls-1" d="M934.39,149.07a6.37,6.37,0,1,1-12.74,0v-45a6.37,6.37,0,1,1,12.74,0Z"/><path class="cls-2" d="M876.17,72.44a6.37,6.37,0,1,1-9-9L912.67,18a6.37,6.37,0,0,1,9,9Z"/><path class="cls-2" d="M747.42,153.82a6.37,6.37,0,0,0,9-9L710.92,99.34a6.37,6.37,0,0,0-9,9Z"/><circle class="cls-2" cx="948.29" cy="51.71" r="6.37"/><circle class="cls-2" cx="855.37" cy="30.15" r="6.37"/><circle class="cls-2" cx="861.74" cy="128.63" r="6.37"/><circle class="cls-2" cx="1033.23" cy="146.33" r="6.37"/><path class="cls-2" d="M825.28,61.7a14.1,14.1,0,0,1-14.1-14.1V22.75a6.37,6.37,0,0,0-12.74,0V47.4a26.9,26.9,0,0,0,26.78,26.9h.08a6.3,6.3,0,0,0,0-12.6Z"/><path class="cls-1" d="M985.18,61.7a14.1,14.1,0,0,0,14.11-14.1V22.75a6.37,6.37,0,0,1,12.74,0V47.4a26.9,26.9,0,0,1-26.79,26.9h-.08a6.3,6.3,0,0,1,0-12.6Z"/><path class="cls-1" d="M952,211.5a6.37,6.37,0,0,0-9,9l22.71,22.67a6.37,6.37,0,1,0,9-9Z"/><path class="cls-2" d="M999.29,183.28a6.37,6.37,0,0,1,12.74,0v45a6.37,6.37,0,0,1-12.74,0Z"/><path class="cls-2" d="M835.86,178.68a6.37,6.37,0,0,1,9,9l-45.51,45.47a6.36,6.36,0,0,1-9-9Z"/><circle class="cls-2" cx="763.74" cy="199.41" r="6.37"/><circle class="cls-2" cx="856.66" cy="220.97" r="6.37"/><path class="cls-2" d="M886.75,189.42a14.1,14.1,0,0,1,14.1,14.1v24.85a6.37,6.37,0,1,0,12.74,0V203.72a26.9,26.9,0,0,0-26.78-26.9h-.08a6.3,6.3,0,0,0,0,12.6Z"/><path class="cls-1" d="M726.85,189.42a14.1,14.1,0,0,0-14.1,14.1v24.85a6.37,6.37,0,0,1-12.74,0V203.72a26.9,26.9,0,0,1,26.78-26.9h.08a6.3,6.3,0,0,1,0,12.6Z"/><path class="cls-1" d="M785.18,142.94a14.11,14.11,0,0,0,14.11-14.11V104A6.37,6.37,0,0,1,812,104v24.65a26.9,26.9,0,0,1-26.79,26.9h-.07a6.3,6.3,0,0,1,0-12.6Z"/><path class="cls-1" d="M1103.53,61a6.37,6.37,0,0,0,9-9l-22.7-22.67a6.37,6.37,0,1,0-9,9Z"/><path class="cls-2" d="M1330.92,144.47a6.37,6.37,0,1,1-9-9l22.71-22.67a6.37,6.37,0,0,1,9,9Z"/><path class="cls-2" d="M1056.21,67.84a6.37,6.37,0,0,1-12.74,0v-45a6.37,6.37,0,0,1,12.74,0Z"/><path class="cls-1" d="M1277.85,149.07a6.37,6.37,0,1,1-12.73,0v-45a6.37,6.37,0,1,1,12.73,0Z"/><path class="cls-2" d="M1219.63,72.44a6.37,6.37,0,1,1-9-9L1256.13,18a6.37,6.37,0,1,1,9,9Z"/><path class="cls-2" d="M1090.89,153.82a6.37,6.37,0,0,0,9-9l-45.51-45.47a6.37,6.37,0,0,0-9,9Z"/><circle class="cls-2" cx="1291.75" cy="51.71" r="6.37"/><circle class="cls-2" cx="1198.83" cy="30.15" r="6.37"/><circle class="cls-2" cx="1205.2" cy="128.63" r="6.37"/><path class="cls-2" d="M1168.75,61.7a14.1,14.1,0,0,1-14.11-14.1V22.75a6.37,6.37,0,0,0-12.74,0V47.4a26.9,26.9,0,0,0,26.79,26.9h.08a6.3,6.3,0,0,0,0-12.6Z"/><path class="cls-1" d="M1328.65,61.7a14.1,14.1,0,0,0,14.1-14.1V22.75a6.37,6.37,0,0,1,12.74,0V47.4a26.9,26.9,0,0,1-26.79,26.9h-.07a6.3,6.3,0,0,1,0-12.6Z"/><path class="cls-1" d="M1295.44,190.09a6.37,6.37,0,1,0-9,9l22.7,22.67a6.37,6.37,0,1,0,9-9Z"/><path class="cls-2" d="M1342.75,183.28a6.37,6.37,0,0,1,12.74,0v45a6.37,6.37,0,0,1-12.74,0Z"/><path class="cls-2" d="M1179.33,178.68a6.37,6.37,0,1,1,9,9l-45.51,45.47a6.37,6.37,0,1,1-9-9Z"/><circle class="cls-2" cx="1107.21" cy="199.41" r="6.37"/><circle class="cls-2" cx="1200.13" cy="220.97" r="6.37"/><path class="cls-2" d="M1230.22,189.42a14.11,14.11,0,0,1,14.1,14.1v24.85a6.37,6.37,0,1,0,12.74,0V203.72a26.9,26.9,0,0,0-26.79-26.9h-.07a6.3,6.3,0,0,0,0,12.6Z"/><path class="cls-1" d="M1070.31,189.42a14.11,14.11,0,0,0-14.1,14.1v24.85a6.37,6.37,0,0,1-12.74,0V203.72a26.9,26.9,0,0,1,26.79-26.9h.07a6.3,6.3,0,0,1,0,12.6Z"/><path class="cls-1" d="M1128.65,142.94a14.1,14.1,0,0,0,14.1-14.11V104a6.37,6.37,0,0,1,12.74,0v24.65a26.9,26.9,0,0,1-26.78,26.9h-.08a6.3,6.3,0,0,1,0-12.6Z"/><path class="cls-1" d="M1295.44,925.77a6.37,6.37,0,1,0-9,9l22.7,22.66a6.37,6.37,0,1,0,9-9Z"/><path class="cls-2" d="M1068,842.34a6.37,6.37,0,1,1,9,9L1054.34,874a6.36,6.36,0,0,1-9-9Z"/><path class="cls-2" d="M1342.75,919a6.37,6.37,0,0,1,12.74,0v45a6.37,6.37,0,0,1-12.74,0Z"/><path class="cls-1" d="M1121.11,837.73a6.37,6.37,0,1,1,12.74,0v45a6.37,6.37,0,1,1-12.74,0Z"/><path class="cls-2" d="M1179.33,914.37a6.37,6.37,0,1,1,9,9l-45.51,45.48a6.37,6.37,0,1,1-9-9Z"/><path class="cls-2" d="M1308.07,833a6.37,6.37,0,0,0-9,9l45.5,45.47a6.37,6.37,0,0,0,9-9Z"/><circle class="cls-2" cx="1107.21" cy="935.09" r="6.37"/><circle class="cls-2" cx="1200.13" cy="956.65" r="6.37"/><circle class="cls-2" cx="1193.76" cy="858.18" r="6.37"/><circle class="cls-2" cx="1022.27" cy="840.47" r="6.37"/><path class="cls-2" d="M1230.22,925.1a14.11,14.11,0,0,1,14.1,14.11v24.84a6.37,6.37,0,1,0,12.74,0V939.4a26.9,26.9,0,0,0-26.79-26.9h-.07a6.3,6.3,0,0,0,0,12.6Z"/><path class="cls-1" d="M1070.31,925.1a14.11,14.11,0,0,0-14.1,14.11v24.84a6.37,6.37,0,0,1-12.74,0V939.4a26.9,26.9,0,0,1,26.79-26.9h.07a6.3,6.3,0,0,1,0,12.6Z"/><path class="cls-1" d="M1103.53,767.9a6.36,6.36,0,0,0,9-9l-22.7-22.67a6.37,6.37,0,1,0-9,9Z"/><path class="cls-2" d="M1056.21,803.52a6.37,6.37,0,0,1-12.74,0v-45a6.37,6.37,0,0,1,12.74,0Z"/><path class="cls-2" d="M1219.63,808.12a6.37,6.37,0,0,1-9-9l45.51-45.47a6.37,6.37,0,1,1,9,9Z"/><circle class="cls-2" cx="1291.75" cy="787.4" r="6.37"/><circle class="cls-2" cx="1198.83" cy="765.84" r="6.37"/><path class="cls-2" d="M1168.75,797.38a14.1,14.1,0,0,1-14.11-14.1V758.44a6.37,6.37,0,0,0-12.74,0v24.65a26.9,26.9,0,0,0,26.79,26.9h.08a6.31,6.31,0,0,0,0-12.61Z"/><path class="cls-1" d="M1328.65,797.38a14.1,14.1,0,0,0,14.1-14.1V758.44a6.37,6.37,0,0,1,12.74,0v24.65A26.9,26.9,0,0,1,1328.7,810h-.07a6.31,6.31,0,0,1,0-12.61Z"/><path class="cls-1" d="M1270.31,843.87a14.1,14.1,0,0,0-14.1,14.1v24.85a6.37,6.37,0,0,1-12.74,0V858.17a26.9,26.9,0,0,1,26.78-26.9h.08a6.3,6.3,0,0,1,0,12.6Z"/><path class="cls-1" d="M952,925.77a6.37,6.37,0,0,0-9,9l22.71,22.66a6.37,6.37,0,1,0,9-9Z"/><path class="cls-2" d="M724.58,842.34a6.37,6.37,0,0,1,9,9L710.88,874a6.37,6.37,0,0,1-9-9Z"/><path class="cls-2" d="M999.29,919a6.37,6.37,0,0,1,12.74,0v45a6.37,6.37,0,0,1-12.74,0Z"/><path class="cls-1" d="M777.64,837.73a6.37,6.37,0,0,1,12.74,0v45a6.37,6.37,0,0,1-12.74,0Z"/><path class="cls-2" d="M835.86,914.37a6.37,6.37,0,1,1,9,9l-45.51,45.48a6.37,6.37,0,0,1-9-9Z"/><path class="cls-2" d="M964.61,833a6.37,6.37,0,0,0-9,9l45.51,45.47a6.37,6.37,0,0,0,9-9Z"/><circle class="cls-2" cx="763.74" cy="935.09" r="6.37"/><circle class="cls-2" cx="856.66" cy="956.65" r="6.37"/><circle class="cls-2" cx="850.29" cy="858.18" r="6.37"/><path class="cls-2" d="M886.75,925.1a14.1,14.1,0,0,1,14.1,14.11v24.84a6.37,6.37,0,0,0,12.74,0V939.4a26.9,26.9,0,0,0-26.78-26.9h-.08a6.3,6.3,0,0,0,0,12.6Z"/><path class="cls-1" d="M726.85,925.1a14.1,14.1,0,0,0-14.1,14.11v24.84a6.37,6.37,0,0,1-12.74,0V939.4a26.9,26.9,0,0,1,26.78-26.9h.08a6.3,6.3,0,0,1,0,12.6Z"/><path class="cls-1" d="M760.06,796.72a6.37,6.37,0,1,0,9-9L746.37,765a6.37,6.37,0,0,0-9,9Z"/><path class="cls-2" d="M712.75,803.52a6.37,6.37,0,0,1-12.74,0v-45a6.37,6.37,0,0,1,12.74,0Z"/><path class="cls-2" d="M876.17,808.12a6.37,6.37,0,0,1-9-9l45.51-45.47a6.37,6.37,0,0,1,9,9Z"/><circle class="cls-2" cx="948.29" cy="787.4" r="6.37"/><circle class="cls-2" cx="855.37" cy="765.84" r="6.37"/><path class="cls-2" d="M825.28,797.38a14.1,14.1,0,0,1-14.1-14.1V758.44a6.37,6.37,0,1,0-12.74,0v24.65A26.9,26.9,0,0,0,825.22,810h.08a6.31,6.31,0,0,0,0-12.61Z"/><path class="cls-1" d="M985.18,797.38a14.1,14.1,0,0,0,14.11-14.1V758.44a6.37,6.37,0,0,1,12.74,0v24.65A26.91,26.91,0,0,1,985.24,810h-.08a6.31,6.31,0,0,1,0-12.61Z"/><path class="cls-1" d="M926.85,843.87A14.1,14.1,0,0,0,912.74,858v24.85a6.37,6.37,0,1,1-12.73,0V858.17a26.9,26.9,0,0,1,26.78-26.9h.08a6.3,6.3,0,0,1,0,12.6Z"/><path class="cls-1" d="M760.06,550.05a6.37,6.37,0,1,0,9-9l-22.7-22.67a6.37,6.37,0,0,0-9,9Z"/><path class="cls-2" d="M987.46,633.48a6.37,6.37,0,0,1-9-9l22.7-22.67a6.37,6.37,0,0,1,9,9Z"/><path class="cls-2" d="M712.75,556.85a6.37,6.37,0,0,1-12.74,0v-45a6.37,6.37,0,0,1,12.74,0Z"/><path class="cls-1" d="M934.39,638.09a6.37,6.37,0,1,1-12.74,0v-45a6.37,6.37,0,1,1,12.74,0Z"/><path class="cls-2" d="M876.17,561.45a6.37,6.37,0,0,1-9-9L912.67,507a6.37,6.37,0,0,1,9,9Z"/><path class="cls-2" d="M747.42,642.83a6.37,6.37,0,0,0,9-9l-45.51-45.47a6.37,6.37,0,0,0-9,9Z"/><circle class="cls-2" cx="948.29" cy="540.73" r="6.37"/><circle class="cls-2" cx="855.37" cy="519.16" r="6.37"/><circle class="cls-2" cx="861.74" cy="617.64" r="6.37"/><circle class="cls-2" cx="1033.23" cy="635.34" r="6.37"/><path class="cls-2" d="M825.28,550.71a14.1,14.1,0,0,1-14.1-14.1V511.77a6.37,6.37,0,0,0-12.74,0v24.65a26.89,26.89,0,0,0,26.78,26.89h.08a6.31,6.31,0,0,0,0-12.61Z"/><path class="cls-1" d="M985.18,550.71a14.1,14.1,0,0,0,14.11-14.1V511.77a6.37,6.37,0,0,1,12.74,0v24.65a26.9,26.9,0,0,1-26.79,26.89h-.08a6.31,6.31,0,0,1,0-12.61Z"/><path class="cls-1" d="M952,700.51a6.37,6.37,0,0,0-9,9l22.71,22.67a6.37,6.37,0,0,0,9-9Z"/><path class="cls-2" d="M999.29,672.29a6.37,6.37,0,0,1,12.74,0v45a6.37,6.37,0,0,1-12.74,0Z"/><path class="cls-2" d="M835.86,667.7a6.37,6.37,0,1,1,9,9l-45.51,45.48a6.37,6.37,0,0,1-9-9Z"/><circle class="cls-2" cx="763.74" cy="688.42" r="6.37"/><circle class="cls-2" cx="856.66" cy="709.98" r="6.37"/><path class="cls-2" d="M886.75,678.43a14.1,14.1,0,0,1,14.1,14.11v24.84a6.37,6.37,0,1,0,12.74,0V692.73a26.9,26.9,0,0,0-26.78-26.9h-.08a6.3,6.3,0,0,0,0,12.6Z"/><path class="cls-1" d="M726.85,678.43a14.1,14.1,0,0,0-14.1,14.11v24.84a6.37,6.37,0,0,1-12.74,0V692.73a26.9,26.9,0,0,1,26.78-26.9h.08a6.3,6.3,0,0,1,0,12.6Z"/><path class="cls-1" d="M785.18,632a14.11,14.11,0,0,0,14.11-14.11V593A6.37,6.37,0,0,1,812,593v24.65a26.9,26.9,0,0,1-26.79,26.9h-.07a6.3,6.3,0,0,1,0-12.6Z"/><path class="cls-1" d="M1103.53,550.05a6.37,6.37,0,0,0,9-9l-22.7-22.67a6.37,6.37,0,1,0-9,9Z"/><path class="cls-2" d="M1330.92,633.48a6.37,6.37,0,1,1-9-9l22.71-22.67a6.37,6.37,0,0,1,9,9Z"/><path class="cls-2" d="M1056.21,556.85a6.37,6.37,0,0,1-12.74,0v-45a6.37,6.37,0,0,1,12.74,0Z"/><path class="cls-1" d="M1277.85,638.09a6.37,6.37,0,1,1-12.73,0v-45a6.37,6.37,0,1,1,12.73,0Z"/><path class="cls-2" d="M1219.63,561.45a6.37,6.37,0,0,1-9-9L1256.13,507a6.37,6.37,0,1,1,9,9Z"/><path class="cls-2" d="M1090.89,642.83a6.37,6.37,0,0,0,9-9l-45.51-45.47a6.37,6.37,0,0,0-9,9Z"/><circle class="cls-2" cx="1291.75" cy="540.73" r="6.37"/><circle class="cls-2" cx="1198.83" cy="519.16" r="6.37"/><circle class="cls-2" cx="1205.2" cy="617.64" r="6.37"/><path class="cls-2" d="M1168.75,550.71a14.1,14.1,0,0,1-14.11-14.1V511.77a6.37,6.37,0,0,0-12.74,0v24.65a26.9,26.9,0,0,0,26.79,26.89h.08a6.31,6.31,0,0,0,0-12.61Z"/><path class="cls-1" d="M1328.65,550.71a14.1,14.1,0,0,0,14.1-14.1V511.77a6.37,6.37,0,0,1,12.74,0v24.65a26.9,26.9,0,0,1-26.79,26.89h-.07a6.31,6.31,0,0,1,0-12.61Z"/><path class="cls-1" d="M1295.44,679.1a6.37,6.37,0,1,0-9,9l22.7,22.66a6.37,6.37,0,1,0,9-9Z"/><path class="cls-2" d="M1342.75,672.29a6.37,6.37,0,0,1,12.74,0v45a6.37,6.37,0,0,1-12.74,0Z"/><path class="cls-2" d="M1179.33,667.7a6.37,6.37,0,1,1,9,9l-45.51,45.48a6.37,6.37,0,1,1-9-9Z"/><circle class="cls-2" cx="1107.21" cy="688.42" r="6.37"/><circle class="cls-2" cx="1200.13" cy="709.98" r="6.37"/><path class="cls-2" d="M1230.22,678.43a14.11,14.11,0,0,1,14.1,14.11v24.84a6.37,6.37,0,1,0,12.74,0V692.73a26.9,26.9,0,0,0-26.79-26.9h-.07a6.3,6.3,0,0,0,0,12.6Z"/><path class="cls-1" d="M1070.31,678.43a14.11,14.11,0,0,0-14.1,14.11v24.84a6.37,6.37,0,0,1-12.74,0V692.73a26.9,26.9,0,0,1,26.79-26.9h.07a6.3,6.3,0,0,1,0,12.6Z"/><path class="cls-1" d="M1128.65,632a14.1,14.1,0,0,0,14.1-14.11V593a6.37,6.37,0,0,1,12.74,0v24.65a26.9,26.9,0,0,1-26.78,26.9h-.08a6.3,6.3,0,0,1,0-12.6Z"/><path class="cls-1" d="M612.86,436.76a6.37,6.37,0,0,0-9,9l22.7,22.66a6.37,6.37,0,1,0,9-9Z"/><path class="cls-2" d="M385.47,353.33a6.37,6.37,0,0,1,9,9L371.77,385a6.36,6.36,0,0,1-9-9Z"/><path class="cls-2" d="M660.18,430a6.37,6.37,0,0,1,12.74,0v45a6.37,6.37,0,1,1-12.74,0Z"/><path class="cls-1" d="M438.53,348.72a6.37,6.37,0,0,1,12.74,0v45a6.37,6.37,0,0,1-12.74,0Z"/><path class="cls-2" d="M496.76,425.35a6.37,6.37,0,0,1,9,9l-45.51,45.47a6.37,6.37,0,0,1-9-9Z"/><path class="cls-2" d="M625.5,344a6.37,6.37,0,0,0-9,9L662,398.46a6.37,6.37,0,0,0,9-9Z"/><circle class="cls-2" cx="424.64" cy="446.08" r="6.37"/><circle class="cls-2" cx="517.56" cy="467.64" r="6.37"/><circle class="cls-2" cx="511.19" cy="369.17" r="6.37"/><circle class="cls-2" cx="339.7" cy="351.46" r="6.37"/><path class="cls-2" d="M547.64,436.09a14.11,14.11,0,0,1,14.11,14.11V475a6.37,6.37,0,0,0,12.74,0V450.39a26.9,26.9,0,0,0-26.79-26.9h-.08a6.3,6.3,0,0,0,0,12.6Z"/><path class="cls-1" d="M387.74,436.09a14.1,14.1,0,0,0-14.1,14.11V475a6.37,6.37,0,0,1-12.74,0V450.39a26.9,26.9,0,0,1,26.78-26.9h.08a6.3,6.3,0,0,1,0,12.6Z"/><path class="cls-1" d="M421,278.89a6.37,6.37,0,0,0,9-9l-22.7-22.66a6.37,6.37,0,0,0-9,9Z"/><path class="cls-2" d="M373.64,314.51a6.37,6.37,0,0,1-12.74,0v-45a6.37,6.37,0,0,1,12.74,0Z"/><path class="cls-2" d="M537.06,319.11a6.37,6.37,0,0,1-9-9l45.51-45.47a6.37,6.37,0,1,1,9,9Z"/><circle class="cls-2" cx="609.18" cy="298.39" r="6.37"/><circle class="cls-2" cx="516.26" cy="276.82" r="6.37"/><path class="cls-2" d="M486.17,308.37a14.1,14.1,0,0,1-14.1-14.1V269.43a6.37,6.37,0,0,0-12.74,0v24.65A26.9,26.9,0,0,0,486.12,321h.07a6.31,6.31,0,0,0,0-12.61Z"/><path class="cls-1" d="M646.08,308.37a14.1,14.1,0,0,0,14.1-14.1V269.43a6.37,6.37,0,1,1,12.74,0v24.65A26.9,26.9,0,0,1,646.13,321h-.07a6.31,6.31,0,0,1,0-12.61Z"/><path class="cls-1" d="M587.74,354.86a14.1,14.1,0,0,0-14.1,14.1v24.85a6.37,6.37,0,1,1-12.74,0V369.16a26.9,26.9,0,0,1,26.78-26.9h.08a6.3,6.3,0,0,1,0,12.6Z"/><path class="cls-1" d="M269.4,436.76a6.37,6.37,0,0,0-9,9l22.71,22.66a6.37,6.37,0,0,0,9-9Z"/><path class="cls-2" d="M42,353.33a6.37,6.37,0,0,1,9,9L28.31,385a6.37,6.37,0,0,1-9-9Z"/><path class="cls-2" d="M316.72,430a6.37,6.37,0,1,1,12.73,0v45a6.37,6.37,0,1,1-12.73,0Z"/><path class="cls-1" d="M95.07,348.72a6.37,6.37,0,0,1,12.74,0v45a6.37,6.37,0,0,1-12.74,0Z"/><path class="cls-2" d="M153.29,425.35a6.37,6.37,0,1,1,9,9l-45.51,45.47a6.37,6.37,0,1,1-9-9Z"/><path class="cls-2" d="M282,344a6.37,6.37,0,1,0-9,9l45.51,45.48a6.37,6.37,0,0,0,9-9Z"/><circle class="cls-2" cx="81.17" cy="446.08" r="6.37"/><circle class="cls-2" cx="174.09" cy="467.64" r="6.37"/><circle class="cls-2" cx="167.72" cy="369.17" r="6.37"/><path class="cls-2" d="M204.18,436.09a14.1,14.1,0,0,1,14.1,14.11V475A6.37,6.37,0,0,0,231,475V450.39a26.9,26.9,0,0,0-26.78-26.9h-.08a6.3,6.3,0,0,0,0,12.6Z"/><path class="cls-1" d="M44.28,436.09a14.1,14.1,0,0,0-14.1,14.11V475a6.37,6.37,0,0,1-12.74,0V450.39a26.9,26.9,0,0,1,26.78-26.9h.08a6.3,6.3,0,0,1,0,12.6Z"/><path class="cls-1" d="M77.49,307.71a6.37,6.37,0,1,0,9-9L63.79,276a6.37,6.37,0,1,0-9,9Z"/><path class="cls-2" d="M30.18,314.51a6.37,6.37,0,0,1-12.74,0v-45a6.37,6.37,0,0,1,12.74,0Z"/><path class="cls-2" d="M193.6,319.11a6.37,6.37,0,0,1-9-9l45.51-45.47a6.37,6.37,0,1,1,9,9Z"/><circle class="cls-2" cx="265.72" cy="298.39" r="6.37"/><circle class="cls-2" cx="172.8" cy="276.82" r="6.37"/><path class="cls-2" d="M142.71,308.37a14.1,14.1,0,0,1-14.1-14.1V269.43a6.37,6.37,0,0,0-12.74,0v24.65A26.89,26.89,0,0,0,142.65,321h.08a6.31,6.31,0,0,0,0-12.61Z"/><path class="cls-1" d="M302.61,308.37a14.1,14.1,0,0,0,14.11-14.1V269.43a6.37,6.37,0,1,1,12.73,0v24.65A26.89,26.89,0,0,1,302.67,321h-.08a6.31,6.31,0,0,1,0-12.61Z"/><path class="cls-1" d="M244.28,354.86A14.1,14.1,0,0,0,230.17,369v24.85a6.37,6.37,0,1,1-12.74,0V369.16a26.9,26.9,0,0,1,26.79-26.9h.08a6.3,6.3,0,0,1,0,12.6Z"/><path class="cls-1" d="M77.49,61a6.37,6.37,0,1,0,9-9L63.79,29.36a6.37,6.37,0,1,0-9,9Z"/><path class="cls-2" d="M304.88,144.47a6.37,6.37,0,0,1-9-9l22.7-22.67a6.37,6.37,0,0,1,9,9Z"/><path class="cls-2" d="M30.18,67.84a6.37,6.37,0,0,1-12.74,0v-45a6.37,6.37,0,1,1,12.74,0Z"/><path class="cls-1" d="M251.82,149.07a6.37,6.37,0,0,1-12.74,0v-45a6.37,6.37,0,0,1,12.74,0Z"/><path class="cls-2" d="M193.6,72.44a6.37,6.37,0,1,1-9-9L230.1,18a6.37,6.37,0,1,1,9,9Z"/><path class="cls-2" d="M64.85,153.82a6.37,6.37,0,0,0,9-9L28.35,99.34a6.37,6.37,0,1,0-9,9Z"/><circle class="cls-2" cx="265.72" cy="51.71" r="6.37"/><circle class="cls-2" cx="172.8" cy="30.15" r="6.37"/><circle class="cls-2" cx="179.17" cy="128.63" r="6.37"/><circle class="cls-2" cx="350.66" cy="146.33" r="6.37"/><path class="cls-2" d="M142.71,61.7a14.1,14.1,0,0,1-14.1-14.1V22.75a6.37,6.37,0,0,0-12.74,0V47.4a26.9,26.9,0,0,0,26.78,26.9h.08a6.3,6.3,0,0,0,0-12.6Z"/><path class="cls-1" d="M302.61,61.7a14.1,14.1,0,0,0,14.11-14.1V22.75a6.37,6.37,0,1,1,12.73,0V47.4a26.9,26.9,0,0,1-26.78,26.9h-.08a6.3,6.3,0,0,1,0-12.6Z"/><path class="cls-1" d="M269.4,211.5a6.37,6.37,0,0,0-9,9l22.71,22.67a6.37,6.37,0,1,0,9-9Z"/><path class="cls-2" d="M316.72,183.28a6.37,6.37,0,1,1,12.73,0v45a6.37,6.37,0,1,1-12.73,0Z"/><path class="cls-2" d="M153.29,178.68a6.37,6.37,0,1,1,9,9l-45.51,45.47a6.37,6.37,0,1,1-9-9Z"/><circle class="cls-2" cx="81.17" cy="199.41" r="6.37"/><circle class="cls-2" cx="174.09" cy="220.97" r="6.37"/><path class="cls-2" d="M204.18,189.42a14.1,14.1,0,0,1,14.1,14.1v24.85a6.37,6.37,0,0,0,12.74,0V203.72a26.9,26.9,0,0,0-26.78-26.9h-.08a6.3,6.3,0,0,0,0,12.6Z"/><path class="cls-1" d="M44.28,189.42a14.1,14.1,0,0,0-14.1,14.1v24.85a6.37,6.37,0,0,1-12.74,0V203.72a26.9,26.9,0,0,1,26.78-26.9h.08a6.3,6.3,0,0,1,0,12.6Z"/><path class="cls-1" d="M102.61,142.94a14.11,14.11,0,0,0,14.11-14.11V104a6.37,6.37,0,0,1,12.74,0v24.65a26.91,26.91,0,0,1-26.79,26.9h-.08a6.3,6.3,0,0,1,0-12.6Z"/><path class="cls-1" d="M421,61a6.37,6.37,0,0,0,9-9l-22.7-22.67a6.37,6.37,0,1,0-9,9Z"/><path class="cls-2" d="M648.35,144.47a6.37,6.37,0,0,1-9-9L662,112.79a6.37,6.37,0,0,1,9,9Z"/><path class="cls-2" d="M373.64,67.84a6.37,6.37,0,1,1-12.74,0v-45a6.37,6.37,0,0,1,12.74,0Z"/><path class="cls-1" d="M595.28,149.07a6.37,6.37,0,0,1-12.74,0v-45a6.37,6.37,0,0,1,12.74,0Z"/><path class="cls-2" d="M537.06,72.44a6.37,6.37,0,1,1-9-9L573.56,18a6.37,6.37,0,1,1,9,9Z"/><path class="cls-2" d="M408.32,153.82a6.37,6.37,0,0,0,9-9L371.81,99.34a6.37,6.37,0,0,0-9,9Z"/><circle class="cls-2" cx="609.18" cy="51.71" r="6.37"/><circle class="cls-2" cx="516.26" cy="30.15" r="6.37"/><circle class="cls-2" cx="522.63" cy="128.63" r="6.37"/><path class="cls-2" d="M486.17,61.7a14.1,14.1,0,0,1-14.1-14.1V22.75a6.37,6.37,0,0,0-12.74,0V47.4a26.9,26.9,0,0,0,26.79,26.9h.07a6.3,6.3,0,0,0,0-12.6Z"/><path class="cls-1" d="M646.08,61.7a14.1,14.1,0,0,0,14.1-14.1V22.75a6.37,6.37,0,0,1,12.74,0V47.4a26.9,26.9,0,0,1-26.79,26.9h-.07a6.3,6.3,0,0,1,0-12.6Z"/><path class="cls-1" d="M612.86,190.09a6.36,6.36,0,0,0-9,9l22.7,22.67a6.37,6.37,0,1,0,9-9Z"/><path class="cls-2" d="M660.18,183.28a6.37,6.37,0,1,1,12.74,0v45a6.37,6.37,0,0,1-12.74,0Z"/><path class="cls-2" d="M496.76,178.68a6.37,6.37,0,0,1,9,9l-45.51,45.47a6.37,6.37,0,0,1-9-9Z"/><circle class="cls-2" cx="424.64" cy="199.41" r="6.37"/><circle class="cls-2" cx="517.56" cy="220.97" r="6.37"/><path class="cls-2" d="M547.64,189.42a14.11,14.11,0,0,1,14.11,14.1v24.85a6.37,6.37,0,0,0,12.74,0V203.72a26.9,26.9,0,0,0-26.79-26.9h-.08a6.3,6.3,0,0,0,0,12.6Z"/><path class="cls-1" d="M387.74,189.42a14.1,14.1,0,0,0-14.1,14.1v24.85a6.37,6.37,0,0,1-12.74,0V203.72a26.9,26.9,0,0,1,26.78-26.9h.08a6.3,6.3,0,0,1,0,12.6Z"/><path class="cls-1" d="M446.08,142.94a14.1,14.1,0,0,0,14.1-14.11V104a6.37,6.37,0,0,1,12.74,0v24.65a26.9,26.9,0,0,1-26.78,26.9h-.08a6.3,6.3,0,0,1,0-12.6Z"/><path class="cls-1" d="M612.86,925.77a6.37,6.37,0,0,0-9,9l22.7,22.66a6.37,6.37,0,1,0,9-9Z"/><path class="cls-2" d="M385.47,842.34a6.37,6.37,0,0,1,9,9L371.77,874a6.36,6.36,0,0,1-9-9Z"/><path class="cls-2" d="M660.18,919a6.37,6.37,0,0,1,12.74,0v45a6.37,6.37,0,0,1-12.74,0Z"/><path class="cls-1" d="M438.53,837.73a6.37,6.37,0,0,1,12.74,0v45a6.37,6.37,0,0,1-12.74,0Z"/><path class="cls-2" d="M496.76,914.37a6.37,6.37,0,1,1,9,9l-45.51,45.48a6.37,6.37,0,0,1-9-9Z"/><path class="cls-2" d="M625.5,833a6.37,6.37,0,0,0-9,9L662,887.47a6.37,6.37,0,0,0,9-9Z"/><circle class="cls-2" cx="424.64" cy="935.09" r="6.37"/><circle class="cls-2" cx="517.56" cy="956.65" r="6.37"/><circle class="cls-2" cx="511.19" cy="858.18" r="6.37"/><circle class="cls-2" cx="339.7" cy="840.47" r="6.37"/><path class="cls-2" d="M547.64,925.1a14.11,14.11,0,0,1,14.11,14.11v24.84a6.37,6.37,0,0,0,12.74,0V939.4a26.9,26.9,0,0,0-26.79-26.9h-.08a6.3,6.3,0,0,0,0,12.6Z"/><path class="cls-1" d="M387.74,925.1a14.1,14.1,0,0,0-14.1,14.11v24.84a6.37,6.37,0,0,1-12.74,0V939.4a26.9,26.9,0,0,1,26.78-26.9h.08a6.3,6.3,0,0,1,0,12.6Z"/><path class="cls-1" d="M421,767.9a6.37,6.37,0,1,0,9-9l-22.7-22.67a6.37,6.37,0,0,0-9,9Z"/><path class="cls-2" d="M373.64,803.52a6.37,6.37,0,0,1-12.74,0v-45a6.37,6.37,0,0,1,12.74,0Z"/><path class="cls-2" d="M537.06,808.12a6.37,6.37,0,0,1-9-9l45.51-45.47a6.37,6.37,0,1,1,9,9Z"/><circle class="cls-2" cx="609.18" cy="787.4" r="6.37"/><circle class="cls-2" cx="516.26" cy="765.84" r="6.37"/><path class="cls-2" d="M486.17,797.38a14.1,14.1,0,0,1-14.1-14.1V758.44a6.37,6.37,0,0,0-12.74,0v24.65A26.9,26.9,0,0,0,486.12,810h.07a6.31,6.31,0,0,0,0-12.61Z"/><path class="cls-1" d="M646.08,797.38a14.1,14.1,0,0,0,14.1-14.1V758.44a6.37,6.37,0,0,1,12.74,0v24.65A26.9,26.9,0,0,1,646.13,810h-.07a6.31,6.31,0,0,1,0-12.61Z"/><path class="cls-1" d="M587.74,843.87a14.1,14.1,0,0,0-14.1,14.1v24.85a6.37,6.37,0,1,1-12.74,0V858.17a26.9,26.9,0,0,1,26.78-26.9h.08a6.3,6.3,0,0,1,0,12.6Z"/><path class="cls-1" d="M269.4,925.77a6.37,6.37,0,0,0-9,9l22.71,22.66a6.36,6.36,0,0,0,9-9Z"/><path class="cls-2" d="M42,842.34a6.37,6.37,0,0,1,9,9L28.31,874a6.37,6.37,0,0,1-9-9Z"/><path class="cls-2" d="M316.72,919a6.37,6.37,0,1,1,12.73,0v45a6.37,6.37,0,1,1-12.73,0Z"/><path class="cls-1" d="M95.07,837.73a6.37,6.37,0,0,1,12.74,0v45a6.37,6.37,0,0,1-12.74,0Z"/><path class="cls-2" d="M153.29,914.37a6.37,6.37,0,1,1,9,9l-45.51,45.48a6.37,6.37,0,1,1-9-9Z"/><path class="cls-2" d="M282,833a6.37,6.37,0,1,0-9,9l45.51,45.47a6.37,6.37,0,0,0,9-9Z"/><circle class="cls-2" cx="81.17" cy="935.09" r="6.37"/><circle class="cls-2" cx="174.09" cy="956.65" r="6.37"/><circle class="cls-2" cx="167.72" cy="858.18" r="6.37"/><path class="cls-2" d="M204.18,925.1a14.1,14.1,0,0,1,14.1,14.11v24.84a6.37,6.37,0,0,0,12.74,0V939.4a26.9,26.9,0,0,0-26.78-26.9h-.08a6.3,6.3,0,0,0,0,12.6Z"/><path class="cls-1" d="M44.28,925.1a14.1,14.1,0,0,0-14.1,14.11v24.84a6.37,6.37,0,0,1-12.74,0V939.4a26.9,26.9,0,0,1,26.78-26.9h.08a6.3,6.3,0,0,1,0,12.6Z"/><path class="cls-1" d="M77.49,796.72a6.37,6.37,0,1,0,9-9L63.79,765a6.37,6.37,0,0,0-9,9Z"/><path class="cls-2" d="M30.18,803.52a6.37,6.37,0,0,1-12.74,0v-45a6.37,6.37,0,0,1,12.74,0Z"/><path class="cls-2" d="M193.6,808.12a6.37,6.37,0,0,1-9-9l45.51-45.47a6.37,6.37,0,1,1,9,9Z"/><circle class="cls-2" cx="265.72" cy="787.4" r="6.37"/><circle class="cls-2" cx="172.8" cy="765.84" r="6.37"/><path class="cls-2" d="M142.71,797.38a14.1,14.1,0,0,1-14.1-14.1V758.44a6.37,6.37,0,0,0-12.74,0v24.65A26.9,26.9,0,0,0,142.65,810h.08a6.31,6.31,0,0,0,0-12.61Z"/><path class="cls-1" d="M302.61,797.38a14.1,14.1,0,0,0,14.11-14.1V758.44a6.37,6.37,0,1,1,12.73,0v24.65A26.9,26.9,0,0,1,302.67,810h-.08a6.31,6.31,0,0,1,0-12.61Z"/><path class="cls-1" d="M244.28,843.87A14.1,14.1,0,0,0,230.17,858v24.85a6.37,6.37,0,1,1-12.74,0V858.17a26.9,26.9,0,0,1,26.79-26.9h.08a6.3,6.3,0,0,1,0,12.6Z"/><path class="cls-1" d="M77.49,550.05a6.37,6.37,0,1,0,9-9L63.79,518.37a6.37,6.37,0,0,0-9,9Z"/><path class="cls-2" d="M304.88,633.48a6.37,6.37,0,0,1-9-9l22.7-22.67a6.37,6.37,0,0,1,9,9Z"/><path class="cls-2" d="M30.18,556.85a6.37,6.37,0,1,1-12.74,0v-45a6.37,6.37,0,0,1,12.74,0Z"/><path class="cls-1" d="M251.82,638.09a6.37,6.37,0,0,1-12.74,0v-45a6.37,6.37,0,0,1,12.74,0Z"/><path class="cls-2" d="M193.6,561.45a6.37,6.37,0,0,1-9-9L230.1,507a6.37,6.37,0,1,1,9,9Z"/><path class="cls-2" d="M64.85,642.83a6.37,6.37,0,0,0,9-9L28.35,588.35a6.37,6.37,0,1,0-9,9Z"/><circle class="cls-2" cx="265.72" cy="540.73" r="6.37"/><circle class="cls-2" cx="172.8" cy="519.16" r="6.37"/><circle class="cls-2" cx="179.17" cy="617.64" r="6.37"/><circle class="cls-2" cx="350.66" cy="635.34" r="6.37"/><path class="cls-2" d="M142.71,550.71a14.1,14.1,0,0,1-14.1-14.1V511.77a6.37,6.37,0,0,0-12.74,0v24.65a26.89,26.89,0,0,0,26.78,26.89h.08a6.31,6.31,0,0,0,0-12.61Z"/><path class="cls-1" d="M302.61,550.71a14.1,14.1,0,0,0,14.11-14.1V511.77a6.37,6.37,0,1,1,12.73,0v24.65a26.89,26.89,0,0,1-26.78,26.89h-.08a6.31,6.31,0,0,1,0-12.61Z"/><path class="cls-1" d="M269.4,700.51a6.37,6.37,0,0,0-9,9l22.71,22.67a6.37,6.37,0,0,0,9-9Z"/><path class="cls-2" d="M316.72,672.29a6.37,6.37,0,1,1,12.73,0v45a6.37,6.37,0,1,1-12.73,0Z"/><path class="cls-2" d="M153.29,667.7a6.37,6.37,0,1,1,9,9l-45.51,45.48a6.37,6.37,0,1,1-9-9Z"/><circle class="cls-2" cx="81.17" cy="688.42" r="6.37"/><circle class="cls-2" cx="174.09" cy="709.98" r="6.37"/><path class="cls-2" d="M204.18,678.43a14.1,14.1,0,0,1,14.1,14.11v24.84a6.37,6.37,0,1,0,12.74,0V692.73a26.9,26.9,0,0,0-26.78-26.9h-.08a6.3,6.3,0,0,0,0,12.6Z"/><path class="cls-1" d="M44.28,678.43a14.1,14.1,0,0,0-14.1,14.11v24.84a6.37,6.37,0,1,1-12.74,0V692.73a26.9,26.9,0,0,1,26.78-26.9h.08a6.3,6.3,0,0,1,0,12.6Z"/><path class="cls-1" d="M102.61,632a14.11,14.11,0,0,0,14.11-14.11V593a6.37,6.37,0,0,1,12.74,0v24.65a26.91,26.91,0,0,1-26.79,26.9h-.08a6.3,6.3,0,0,1,0-12.6Z"/><path class="cls-1" d="M421,550.05a6.37,6.37,0,0,0,9-9l-22.7-22.67a6.37,6.37,0,0,0-9,9Z"/><path class="cls-2" d="M648.35,633.48a6.37,6.37,0,0,1-9-9L662,601.8a6.37,6.37,0,0,1,9,9Z"/><path class="cls-2" d="M373.64,556.85a6.37,6.37,0,1,1-12.74,0v-45a6.37,6.37,0,0,1,12.74,0Z"/><path class="cls-1" d="M595.28,638.09a6.37,6.37,0,0,1-12.74,0v-45a6.37,6.37,0,0,1,12.74,0Z"/><path class="cls-2" d="M537.06,561.45a6.37,6.37,0,0,1-9-9L573.56,507a6.37,6.37,0,1,1,9,9Z"/><path class="cls-2" d="M408.32,642.83a6.37,6.37,0,0,0,9-9l-45.51-45.47a6.37,6.37,0,0,0-9,9Z"/><circle class="cls-2" cx="609.18" cy="540.73" r="6.37"/><circle class="cls-2" cx="516.26" cy="519.16" r="6.37"/><circle class="cls-2" cx="522.63" cy="617.64" r="6.37"/><path class="cls-2" d="M486.17,550.71a14.1,14.1,0,0,1-14.1-14.1V511.77a6.37,6.37,0,0,0-12.74,0v24.65a26.9,26.9,0,0,0,26.79,26.89h.07a6.31,6.31,0,0,0,0-12.61Z"/><path class="cls-1" d="M646.08,550.71a14.1,14.1,0,0,0,14.1-14.1V511.77a6.37,6.37,0,0,1,12.74,0v24.65a26.9,26.9,0,0,1-26.79,26.89h-.07a6.31,6.31,0,0,1,0-12.61Z"/><path class="cls-1" d="M612.86,679.1a6.37,6.37,0,0,0-9,9l22.7,22.66a6.37,6.37,0,1,0,9-9Z"/><path class="cls-2" d="M660.18,672.29a6.37,6.37,0,0,1,12.74,0v45a6.37,6.37,0,0,1-12.74,0Z"/><path class="cls-2" d="M496.76,667.7a6.37,6.37,0,1,1,9,9l-45.51,45.48a6.37,6.37,0,0,1-9-9Z"/><circle class="cls-2" cx="424.64" cy="688.42" r="6.37"/><circle class="cls-2" cx="517.56" cy="709.98" r="6.37"/><path class="cls-2" d="M547.64,678.43a14.11,14.11,0,0,1,14.11,14.11v24.84a6.37,6.37,0,0,0,12.74,0V692.73a26.9,26.9,0,0,0-26.79-26.9h-.08a6.3,6.3,0,0,0,0,12.6Z"/><path class="cls-1" d="M387.74,678.43a14.1,14.1,0,0,0-14.1,14.11v24.84a6.37,6.37,0,1,1-12.74,0V692.73a26.9,26.9,0,0,1,26.78-26.9h.08a6.3,6.3,0,0,1,0,12.6Z"/><path class="cls-1" d="M446.08,632a14.1,14.1,0,0,0,14.1-14.11V593a6.37,6.37,0,0,1,12.74,0v24.65a26.9,26.9,0,0,1-26.78,26.9h-.08a6.3,6.3,0,0,1,0-12.6Z"/></svg>