<svg id="Layer_1" data-name="Layer 1" xmlns="http://www.w3.org/2000/svg" viewBox="0 0 1373.93 988.45"><defs><style>.cls-1,.cls-2{fill:#f2f2f2;}.cls-1{opacity:0.5;}</style></defs><title>white-background copy</title><path class="cls-1" d="M1008.6,335.31a5,5,0,0,0-7.05,7.05l17.77,17.73a5,5,0,1,0,7-7Z"/><path class="cls-2" d="M830.64,270a5,5,0,0,1,7.05,7.05L819.92,294.8a5,5,0,0,1-7-7.05Z"/><path class="cls-2" d="M1045.63,330a5,5,0,0,1,10,0v35.21a5,5,0,1,1-10,0Z"/><path class="cls-1" d="M872.17,266.41a5,5,0,1,1,10,0v35.21a5,5,0,0,1-10,0Z"/><path class="cls-2" d="M917.73,326.38a5,5,0,1,1,7,7.05L889.17,369a5,5,0,0,1-7-7Z"/><path class="cls-2" d="M1018.49,262.69a5,5,0,0,0-7,7.05l35.62,35.59a5,5,0,1,0,7-7.05Z"/><circle class="cls-2" cx="861.29" cy="342.6" r="4.99"/><circle class="cls-2" cx="934.01" cy="359.47" r="4.99"/><circle class="cls-2" cx="929.03" cy="282.41" r="4.99"/><circle class="cls-2" cx="794.82" cy="268.55" r="4.99"/><path class="cls-2" d="M957.56,334.78a11,11,0,0,1,11,11v19.44a5,5,0,1,0,10,0V346a21.06,21.06,0,0,0-21-21.05h-.06a4.93,4.93,0,0,0,0,9.86Z"/><path class="cls-1" d="M832.42,334.78a11,11,0,0,0-11,11v19.44a5,5,0,1,1-10,0V346a21.06,21.06,0,0,1,21-21.05h.06a4.93,4.93,0,0,1,0,9.86Z"/><path class="cls-1" d="M858.41,211.76a5,5,0,0,0,7.05-7L847.69,187a5,5,0,1,0-7.05,7.05Z"/><path class="cls-2" d="M821.38,239.64a5,5,0,0,1-10,0V204.43a5,5,0,1,1,10,0Z"/><path class="cls-2" d="M949.28,243.23a5,5,0,0,1-7-7l35.61-35.58a5,5,0,0,1,7,7.05Z"/><circle class="cls-2" cx="1005.72" cy="227.02" r="4.99"/><circle class="cls-2" cx="933" cy="210.14" r="4.99"/><path class="cls-2" d="M909.45,234.83a11,11,0,0,1-11-11V204.35a5,5,0,0,0-10,0v19.29a21.05,21.05,0,0,0,21,21.05h.06a4.93,4.93,0,0,0,0-9.86Z"/><path class="cls-1" d="M1034.59,234.83a11,11,0,0,0,11-11V204.35a5,5,0,0,1,10,0v19.29a21.05,21.05,0,0,1-21,21.05h-.07a4.93,4.93,0,0,1,0-9.86Z"/><path class="cls-1" d="M988.94,271.21a11,11,0,0,0-11,11v19.44a5,5,0,1,1-10,0V282.4a21.05,21.05,0,0,1,21-21H989a4.93,4.93,0,0,1,0,9.86Z"/><path class="cls-1" d="M739.8,335.31a5,5,0,0,0-7,7.05l17.77,17.73a5,5,0,1,0,7.05-7Z"/><path class="cls-2" d="M561.84,270a5,5,0,1,1,7,7.05L551.13,294.8a5,5,0,0,1-7-7.05Z"/><path class="cls-2" d="M776.83,330a5,5,0,0,1,10,0v35.21a5,5,0,1,1-10,0Z"/><path class="cls-1" d="M603.37,266.41a5,5,0,1,1,10,0v35.21a5,5,0,0,1-10,0Z"/><path class="cls-2" d="M648.94,326.38a5,5,0,1,1,7,7.05L620.37,369a5,5,0,0,1-7-7Z"/><path class="cls-2" d="M749.69,262.69a5,5,0,0,0-7,7.05l35.61,35.59a5,5,0,0,0,7-7.05Z"/><circle class="cls-2" cx="592.5" cy="342.6" r="4.99"/><circle class="cls-2" cx="665.22" cy="359.47" r="4.99"/><circle class="cls-2" cx="660.23" cy="282.41" r="4.99"/><path class="cls-2" d="M688.76,334.78a11,11,0,0,1,11,11v19.44a5,5,0,1,0,10,0V346a21.06,21.06,0,0,0-21-21.05h-.06a4.93,4.93,0,0,0,0,9.86Z"/><path class="cls-1" d="M563.62,334.78a11,11,0,0,0-11,11v19.44a5,5,0,1,1-10,0V346a21.05,21.05,0,0,1,21-21.05h.06a4.93,4.93,0,0,1,0,9.86Z"/><path class="cls-1" d="M589.62,234.31a5,5,0,0,0,7-7.05L578.9,209.52a5,5,0,0,0-7,7Z"/><path class="cls-2" d="M552.59,239.64a5,5,0,0,1-10,0V204.43a5,5,0,1,1,10,0Z"/><path class="cls-2" d="M680.48,243.23a5,5,0,1,1-7.05-7l35.62-35.58a5,5,0,1,1,7.05,7.05Z"/><circle class="cls-2" cx="736.92" cy="227.02" r="4.99"/><circle class="cls-2" cx="664.2" cy="210.14" r="4.99"/><path class="cls-2" d="M640.66,234.83a11,11,0,0,1-11-11V204.35a5,5,0,0,0-10,0v19.29a21.05,21.05,0,0,0,21,21.05h.06a4.93,4.93,0,0,0,0-9.86Z"/><path class="cls-1" d="M765.79,234.83a11,11,0,0,0,11-11V204.35a5,5,0,0,1,10,0v19.29a21,21,0,0,1-21,21.05h-.06a4.93,4.93,0,0,1,0-9.86Z"/><path class="cls-1" d="M720.14,271.21a11,11,0,0,0-11,11v19.44a5,5,0,0,1-10,0V282.4a21.05,21.05,0,0,1,21-21h.06a4.93,4.93,0,0,1,0,9.86Z"/><path class="cls-1" d="M589.62,41.27a5,5,0,1,0,7-7.05L578.9,16.48a5,5,0,0,0-7,7.05Z"/><path class="cls-2" d="M767.57,106.56a5,5,0,0,1-7.05-7l17.77-17.74a5,5,0,1,1,7.05,7Z"/><path class="cls-2" d="M552.59,46.59a5,5,0,1,1-10,0V11.38a5,5,0,0,1,10,0Z"/><path class="cls-1" d="M726.05,110.16a5,5,0,1,1-10,0V75a5,5,0,0,1,10,0Z"/><path class="cls-2" d="M680.48,50.19a5,5,0,1,1-7.05-7L709.05,7.55a5,5,0,1,1,7.05,7.05Z"/><path class="cls-2" d="M579.72,113.88a5,5,0,0,0,7-7L551.16,71.24a5,5,0,0,0-7,7.05Z"/><circle class="cls-2" cx="736.92" cy="33.97" r="4.99"/><circle class="cls-2" cx="664.2" cy="17.1" r="4.99"/><circle class="cls-2" cx="669.19" cy="94.16" r="4.99"/><circle class="cls-2" cx="803.4" cy="108.02" r="4.99"/><path class="cls-2" d="M640.66,41.79a11,11,0,0,1-11-11V11.31a5,5,0,1,0-10,0V30.6a21.06,21.06,0,0,0,21,21h.06a4.93,4.93,0,0,0,0-9.86Z"/><path class="cls-1" d="M765.79,41.79a11,11,0,0,0,11-11V11.31a5,5,0,1,1,10,0V30.6a21.05,21.05,0,0,1-21,21h-.06a4.93,4.93,0,0,1,0-9.86Z"/><path class="cls-1" d="M739.8,159a5,5,0,0,0-7,7l17.77,17.74a5,5,0,1,0,7.05-7.05Z"/><path class="cls-2" d="M776.83,136.94a5,5,0,1,1,10,0v35.21a5,5,0,0,1-10,0Z"/><path class="cls-2" d="M648.94,133.34a5,5,0,0,1,7,7L620.37,176a5,5,0,0,1-7-7.05Z"/><circle class="cls-2" cx="592.5" cy="149.56" r="4.99"/><circle class="cls-2" cx="665.22" cy="166.43" r="4.99"/><path class="cls-2" d="M688.76,141.74a11,11,0,0,1,11,11v19.44a5,5,0,1,0,10,0V152.93a21.05,21.05,0,0,0-21-21.05h-.06a4.93,4.93,0,0,0,0,9.86Z"/><path class="cls-1" d="M563.62,141.74a11,11,0,0,0-11,11v19.44a5,5,0,1,1-10,0V152.93a21,21,0,0,1,21-21.05h.06a4.93,4.93,0,0,1,0,9.86Z"/><path class="cls-1" d="M609.28,105.36a11,11,0,0,0,11-11V74.88a5,5,0,1,1,10,0V94.17a21,21,0,0,1-21,21h-.06a4.93,4.93,0,0,1,0-9.86Z"/><path class="cls-1" d="M858.41,41.27a5,5,0,0,0,7.05-7.05L847.69,16.48a5,5,0,1,0-7.05,7.05Z"/><path class="cls-2" d="M1036.37,106.56a5,5,0,1,1-7-7l17.77-17.74a5,5,0,1,1,7.05,7Z"/><path class="cls-2" d="M821.38,46.59a5,5,0,1,1-10,0V11.38a5,5,0,0,1,10,0Z"/><path class="cls-1" d="M994.84,110.16a5,5,0,1,1-10,0V75a5,5,0,0,1,10,0Z"/><path class="cls-2" d="M949.28,50.19a5,5,0,0,1-7-7L977.84,7.55a5,5,0,0,1,7,7.05Z"/><path class="cls-2" d="M848.52,113.88a5,5,0,1,0,7.05-7L820,71.24a5,5,0,1,0-7.05,7.05Z"/><circle class="cls-2" cx="1005.72" cy="33.97" r="4.99"/><circle class="cls-2" cx="933" cy="17.1" r="4.99"/><circle class="cls-2" cx="937.98" cy="94.16" r="4.99"/><path class="cls-2" d="M909.45,41.79a11,11,0,0,1-11-11V11.31a5,5,0,1,0-10,0V30.6a21.06,21.06,0,0,0,21,21h.06a4.93,4.93,0,0,0,0-9.86Z"/><path class="cls-1" d="M1034.59,41.79a11,11,0,0,0,11-11V11.31a5,5,0,1,1,10,0V30.6a21.06,21.06,0,0,1-21,21h-.07a4.93,4.93,0,0,1,0-9.86Z"/><path class="cls-1" d="M1008.6,142.26a5,5,0,0,0-7.05,7.05l17.77,17.74a5,5,0,1,0,7-7.05Z"/><path class="cls-2" d="M1045.63,136.94a5,5,0,1,1,10,0v35.21a5,5,0,0,1-10,0Z"/><path class="cls-2" d="M917.73,133.34a5,5,0,0,1,7,7L889.17,176a5,5,0,0,1-7-7.05Z"/><circle class="cls-2" cx="861.29" cy="149.56" r="4.99"/><circle class="cls-2" cx="934.01" cy="166.43" r="4.99"/><path class="cls-2" d="M957.56,141.74a11,11,0,0,1,11,11v19.44a5,5,0,0,0,10,0V152.93a21.05,21.05,0,0,0-21-21.05h-.06a4.93,4.93,0,0,0,0,9.86Z"/><path class="cls-1" d="M832.42,141.74a11,11,0,0,0-11,11v19.44a5,5,0,1,1-10,0V152.93a21.05,21.05,0,0,1,21-21.05h.06a4.93,4.93,0,0,1,0,9.86Z"/><path class="cls-1" d="M878.07,105.36a11,11,0,0,0,11-11V74.88a5,5,0,1,1,10,0V94.17a21.05,21.05,0,0,1-21,21h-.06a4.93,4.93,0,0,1,0-9.86Z"/><path class="cls-1" d="M1008.6,718a5,5,0,0,0-7.05,7l17.77,17.73a5,5,0,1,0,7-7Z"/><path class="cls-2" d="M830.64,652.71a5,5,0,0,1,7.05,7L819.92,677.5a5,5,0,0,1-7-7Z"/><path class="cls-2" d="M1045.63,712.68a5,5,0,0,1,10,0v35.21a5,5,0,1,1-10,0Z"/><path class="cls-1" d="M872.17,649.11a5,5,0,1,1,10,0v35.21a5,5,0,0,1-10,0Z"/><path class="cls-2" d="M917.73,709.08a5,5,0,0,1,7,7l-35.61,35.59a5,5,0,0,1-7-7.05Z"/><path class="cls-2" d="M1018.49,645.4a5,5,0,1,0-7,7.05L1047.06,688a5,5,0,1,0,7-7Z"/><circle class="cls-2" cx="861.29" cy="725.3" r="4.99"/><circle class="cls-2" cx="934.01" cy="742.18" r="4.99"/><circle class="cls-2" cx="929.03" cy="665.11" r="4.99"/><circle class="cls-2" cx="794.82" cy="651.25" r="4.99"/><path class="cls-2" d="M957.56,717.49a11,11,0,0,1,11,11V748a5,5,0,0,0,10,0v-19.3a21.06,21.06,0,0,0-21-21h-.06a4.94,4.94,0,0,0,0,9.87Z"/><path class="cls-1" d="M832.42,717.49a11,11,0,0,0-11,11V748a5,5,0,0,1-10,0v-19.3a21.06,21.06,0,0,1,21-21h.06a4.94,4.94,0,0,1,0,9.87Z"/><path class="cls-1" d="M858.41,594.46a5,5,0,0,0,7.05-7.05l-17.77-17.74a5,5,0,1,0-7.05,7.05Z"/><path class="cls-2" d="M821.38,622.34a5,5,0,0,1-10,0V587.13a5,5,0,1,1,10,0Z"/><path class="cls-2" d="M949.28,625.93a5,5,0,0,1-7-7l35.61-35.59a5,5,0,0,1,7,7.05Z"/><circle class="cls-2" cx="1005.72" cy="609.72" r="4.99"/><circle class="cls-2" cx="933" cy="592.84" r="4.99"/><path class="cls-2" d="M909.45,617.53a11,11,0,0,1-11-11V587.05a5,5,0,0,0-10,0v19.29a21.05,21.05,0,0,0,21,21h.06a4.94,4.94,0,0,0,0-9.87Z"/><path class="cls-1" d="M1034.59,617.53a11,11,0,0,0,11-11V587.05a5,5,0,0,1,10,0v19.29a21.05,21.05,0,0,1-21,21h-.07a4.94,4.94,0,0,1,0-9.87Z"/><path class="cls-1" d="M988.94,653.91a11,11,0,0,0-11,11v19.44a5,5,0,1,1-10,0V665.1a21.05,21.05,0,0,1,21-21.05H989a4.93,4.93,0,0,1,0,9.86Z"/><path class="cls-1" d="M739.8,718a5,5,0,0,0-7,7l17.77,17.73a5,5,0,1,0,7.05-7Z"/><path class="cls-2" d="M561.84,652.71a5,5,0,0,1,7,7L551.13,677.5a5,5,0,0,1-7-7Z"/><path class="cls-2" d="M776.83,712.68a5,5,0,0,1,10,0v35.21a5,5,0,1,1-10,0Z"/><path class="cls-1" d="M603.37,649.11a5,5,0,1,1,10,0v35.21a5,5,0,0,1-10,0Z"/><path class="cls-2" d="M648.94,709.08a5,5,0,0,1,7,7l-35.62,35.59a5,5,0,0,1-7-7.05Z"/><path class="cls-2" d="M749.69,645.4a5,5,0,1,0-7,7.05L778.26,688a5,5,0,0,0,7-7Z"/><circle class="cls-2" cx="592.5" cy="725.3" r="4.99"/><circle class="cls-2" cx="665.22" cy="742.18" r="4.99"/><circle class="cls-2" cx="660.23" cy="665.11" r="4.99"/><path class="cls-2" d="M688.76,717.49a11,11,0,0,1,11,11V748a5,5,0,0,0,10,0v-19.3a21.06,21.06,0,0,0-21-21h-.06a4.94,4.94,0,0,0,0,9.87Z"/><path class="cls-1" d="M563.62,717.49a11,11,0,0,0-11,11V748a5,5,0,0,1-10,0v-19.3a21.05,21.05,0,0,1,21-21h.06a4.94,4.94,0,0,1,0,9.87Z"/><path class="cls-1" d="M589.62,617a5,5,0,0,0,7-7L578.9,592.22a5,5,0,0,0-7,7Z"/><path class="cls-2" d="M552.59,622.34a5,5,0,0,1-10,0V587.13a5,5,0,1,1,10,0Z"/><path class="cls-2" d="M680.48,625.93a5,5,0,1,1-7.05-7l35.62-35.59a5,5,0,0,1,7.05,7.05Z"/><circle class="cls-2" cx="736.92" cy="609.72" r="4.99"/><circle class="cls-2" cx="664.2" cy="592.84" r="4.99"/><path class="cls-2" d="M640.66,617.53a11,11,0,0,1-11-11V587.05a5,5,0,0,0-10,0v19.29a21.05,21.05,0,0,0,21,21h.06a4.94,4.94,0,0,0,0-9.87Z"/><path class="cls-1" d="M765.79,617.53a11,11,0,0,0,11-11V587.05a5,5,0,0,1,10,0v19.29a21,21,0,0,1-21,21h-.06a4.94,4.94,0,0,1,0-9.87Z"/><path class="cls-1" d="M720.14,653.91a11,11,0,0,0-11,11v19.44a5,5,0,0,1-10,0V665.1a21.05,21.05,0,0,1,21-21.05h.06a4.93,4.93,0,0,1,0,9.86Z"/><path class="cls-1" d="M589.62,424a5,5,0,1,0,7-7.05L578.9,399.18a5,5,0,0,0-7,7.05Z"/><path class="cls-2" d="M767.57,489.26a5,5,0,0,1-7.05-7.05l17.77-17.74a5,5,0,1,1,7.05,7Z"/><path class="cls-2" d="M552.59,429.29a5,5,0,1,1-10,0V394.08a5,5,0,0,1,10,0Z"/><path class="cls-1" d="M726.05,492.86a5,5,0,1,1-10,0V457.65a5,5,0,0,1,10,0Z"/><path class="cls-2" d="M680.48,432.89a5,5,0,1,1-7.05-7.05l35.62-35.59a5,5,0,1,1,7.05,7.05Z"/><path class="cls-2" d="M579.72,496.58a5,5,0,0,0,7-7.05l-35.61-35.59a5,5,0,0,0-7,7.05Z"/><circle class="cls-2" cx="736.92" cy="416.67" r="4.99"/><circle class="cls-2" cx="664.2" cy="399.8" r="4.99"/><circle class="cls-2" cx="669.19" cy="476.86" r="4.99"/><circle class="cls-2" cx="803.4" cy="490.72" r="4.99"/><path class="cls-2" d="M640.66,424.49a11,11,0,0,1-11-11V394a5,5,0,1,0-10,0V413.3a21.05,21.05,0,0,0,21,21.05h.06a4.93,4.93,0,0,0,0-9.86Z"/><path class="cls-1" d="M765.79,424.49a11,11,0,0,0,11-11V394a5,5,0,1,1,10,0V413.3a21,21,0,0,1-21,21.05h-.06a4.93,4.93,0,0,1,0-9.86Z"/><path class="cls-1" d="M739.8,541.72a5,5,0,0,0-7,7l17.77,17.74a5,5,0,1,0,7.05-7Z"/><path class="cls-2" d="M776.83,519.64a5,5,0,1,1,10,0v35.21a5,5,0,0,1-10,0Z"/><path class="cls-2" d="M648.94,516a5,5,0,0,1,7,7.05l-35.62,35.58a5,5,0,0,1-7-7Z"/><circle class="cls-2" cx="592.5" cy="532.26" r="4.99"/><circle class="cls-2" cx="665.22" cy="549.13" r="4.99"/><path class="cls-2" d="M688.76,524.44a11,11,0,0,1,11,11v19.44a5,5,0,1,0,10,0V535.63a21.05,21.05,0,0,0-21-21h-.06a4.93,4.93,0,0,0,0,9.86Z"/><path class="cls-1" d="M563.62,524.44a11,11,0,0,0-11,11v19.44a5,5,0,1,1-10,0V535.63a21,21,0,0,1,21-21h.06a4.93,4.93,0,0,1,0,9.86Z"/><path class="cls-1" d="M609.28,488.06a11,11,0,0,0,11-11V457.58a5,5,0,0,1,10,0v19.29a21,21,0,0,1-21,21.05h-.06a4.93,4.93,0,0,1,0-9.86Z"/><path class="cls-1" d="M858.41,424a5,5,0,0,0,7.05-7.05l-17.77-17.74a5,5,0,1,0-7.05,7.05Z"/><path class="cls-2" d="M1036.37,489.26a5,5,0,1,1-7-7.05l17.77-17.74a5,5,0,0,1,7.05,7Z"/><path class="cls-2" d="M821.38,429.29a5,5,0,1,1-10,0V394.08a5,5,0,0,1,10,0Z"/><path class="cls-1" d="M994.84,492.86a5,5,0,1,1-10,0V457.65a5,5,0,0,1,10,0Z"/><path class="cls-2" d="M949.28,432.89a5,5,0,1,1-7-7.05l35.61-35.59a5,5,0,1,1,7,7.05Z"/><path class="cls-2" d="M848.52,496.58a5,5,0,1,0,7.05-7.05L820,453.94A5,5,0,1,0,812.9,461Z"/><circle class="cls-2" cx="1005.72" cy="416.67" r="4.99"/><circle class="cls-2" cx="933" cy="399.8" r="4.99"/><circle class="cls-2" cx="937.98" cy="476.86" r="4.99"/><path class="cls-2" d="M909.45,424.49a11,11,0,0,1-11-11V394a5,5,0,1,0-10,0V413.3a21.05,21.05,0,0,0,21,21.05h.06a4.93,4.93,0,0,0,0-9.86Z"/><path class="cls-1" d="M1034.59,424.49a11,11,0,0,0,11-11V394a5,5,0,1,1,10,0V413.3a21.05,21.05,0,0,1-21,21.05h-.07a4.93,4.93,0,0,1,0-9.86Z"/><path class="cls-1" d="M1008.6,525a5,5,0,0,0-7.05,7l17.77,17.74a5,5,0,1,0,7-7Z"/><path class="cls-2" d="M1045.63,519.64a5,5,0,1,1,10,0v35.21a5,5,0,0,1-10,0Z"/><path class="cls-2" d="M917.73,516a5,5,0,0,1,7,7.05l-35.61,35.58a5,5,0,0,1-7-7Z"/><circle class="cls-2" cx="861.29" cy="532.26" r="4.99"/><circle class="cls-2" cx="934.01" cy="549.13" r="4.99"/><path class="cls-2" d="M957.56,524.44a11,11,0,0,1,11,11v19.44a5,5,0,0,0,10,0V535.63a21.05,21.05,0,0,0-21-21h-.06a4.93,4.93,0,0,0,0,9.86Z"/><path class="cls-1" d="M832.42,524.44a11,11,0,0,0-11,11v19.44a5,5,0,1,1-10,0V535.63a21.05,21.05,0,0,1,21-21h.06a4.93,4.93,0,0,1,0,9.86Z"/><path class="cls-1" d="M878.07,488.06a11,11,0,0,0,11-11V457.58a5,5,0,0,1,10,0v19.29a21.05,21.05,0,0,1-21,21.05h-.06a4.93,4.93,0,0,1,0-9.86Z"/><path class="cls-1" d="M474.42,335.31a5,5,0,0,0-7.05,7.05l17.77,17.73a5,5,0,0,0,7.05-7Z"/><path class="cls-2" d="M296.46,270a5,5,0,1,1,7.05,7.05L285.74,294.8a5,5,0,0,1-7.05-7.05Z"/><path class="cls-2" d="M511.45,330a5,5,0,0,1,10,0v35.21a5,5,0,1,1-10,0Z"/><path class="cls-1" d="M338,266.41a5,5,0,1,1,10,0v35.21a5,5,0,0,1-10,0Z"/><path class="cls-2" d="M383.55,326.38a5,5,0,1,1,7.05,7.05L355,369a5,5,0,0,1-7.05-7Z"/><path class="cls-2" d="M484.31,262.69a5,5,0,0,0-7.05,7.05l35.61,35.59a5,5,0,0,0,7-7.05Z"/><circle class="cls-2" cx="327.11" cy="342.6" r="4.99"/><circle class="cls-2" cx="399.83" cy="359.47" r="4.99"/><circle class="cls-2" cx="394.85" cy="282.41" r="4.99"/><circle class="cls-2" cx="260.64" cy="268.55" r="4.99"/><path class="cls-2" d="M423.38,334.78a11,11,0,0,1,11,11v19.44a5,5,0,1,0,10,0V346a21.05,21.05,0,0,0-21-21.05h-.06a4.93,4.93,0,0,0,0,9.86Z"/><path class="cls-1" d="M298.24,334.78a11,11,0,0,0-11,11v19.44a5,5,0,1,1-10,0V346a21.06,21.06,0,0,1,21-21.05h.06a4.93,4.93,0,0,1,0,9.86Z"/><path class="cls-1" d="M324.23,211.76a5,5,0,1,0,7-7L313.51,187a5,5,0,0,0-7.05,7.05Z"/><path class="cls-2" d="M287.2,239.64a5,5,0,0,1-10,0V204.43a5,5,0,1,1,10,0Z"/><path class="cls-2" d="M415.09,243.23a5,5,0,0,1-7-7l35.62-35.58a5,5,0,0,1,7,7.05Z"/><circle class="cls-2" cx="471.54" cy="227.02" r="4.99"/><circle class="cls-2" cx="398.82" cy="210.14" r="4.99"/><path class="cls-2" d="M375.27,234.83a11,11,0,0,1-11-11V204.35a5,5,0,0,0-10,0v19.29a21.05,21.05,0,0,0,21,21.05h.06a4.93,4.93,0,0,0,0-9.86Z"/><path class="cls-1" d="M500.41,234.83a11,11,0,0,0,11-11V204.35a5,5,0,0,1,10,0v19.29a21.05,21.05,0,0,1-21,21.05h-.06a4.93,4.93,0,0,1,0-9.86Z"/><path class="cls-1" d="M454.76,271.21a11,11,0,0,0-11,11v19.44a5,5,0,1,1-10,0V282.4a21.05,21.05,0,0,1,21-21h.06a4.93,4.93,0,0,1,0,9.86Z"/><path class="cls-1" d="M205.62,335.31a5,5,0,0,0-7.05,7.05l17.77,17.73a5,5,0,1,0,7-7Z"/><path class="cls-2" d="M27.66,270a5,5,0,1,1,7.05,7.05L17,294.8a5,5,0,0,1-7-7.05Z"/><path class="cls-2" d="M242.65,330a5,5,0,0,1,10,0v35.21a5,5,0,1,1-10,0Z"/><path class="cls-1" d="M69.19,266.41a5,5,0,1,1,10,0v35.21a5,5,0,0,1-10,0Z"/><path class="cls-2" d="M114.76,326.38a5,5,0,1,1,7,7.05L86.19,369a5,5,0,1,1-7-7Z"/><path class="cls-2" d="M215.51,262.69a5,5,0,0,0-7,7.05l35.62,35.59a5,5,0,0,0,7-7.05Z"/><circle class="cls-2" cx="58.32" cy="342.6" r="4.99"/><circle class="cls-2" cx="131.04" cy="359.47" r="4.99"/><circle class="cls-2" cx="126.05" cy="282.41" r="4.99"/><path class="cls-2" d="M154.58,334.78a11,11,0,0,1,11,11v19.44a5,5,0,1,0,10,0V346a21.06,21.06,0,0,0-21-21.05h-.06a4.93,4.93,0,0,0,0,9.86Z"/><path class="cls-1" d="M29.44,334.78a11,11,0,0,0-11,11v19.44a5,5,0,1,1-10,0V346a21.05,21.05,0,0,1,21-21.05h.06a4.93,4.93,0,0,1,0,9.86Z"/><path class="cls-1" d="M55.43,234.31a5,5,0,0,0,7-7.05L44.72,209.52a5,5,0,0,0-7,7Z"/><path class="cls-2" d="M18.41,239.64a5,5,0,0,1-10,0V204.43a5,5,0,1,1,10,0Z"/><path class="cls-2" d="M146.3,243.23a5,5,0,0,1-7.05-7l35.62-35.58a5,5,0,0,1,7,7.05Z"/><circle class="cls-2" cx="202.74" cy="227.02" r="4.99"/><circle class="cls-2" cx="130.02" cy="210.14" r="4.99"/><path class="cls-2" d="M106.48,234.83a11,11,0,0,1-11-11V204.35a5,5,0,0,0-10,0v19.29a21.05,21.05,0,0,0,21,21.05h.06a4.93,4.93,0,0,0,0-9.86Z"/><path class="cls-1" d="M231.61,234.83a11,11,0,0,0,11-11V204.35a5,5,0,0,1,10,0v19.29a21.05,21.05,0,0,1-21,21.05h-.06a4.93,4.93,0,0,1,0-9.86Z"/><path class="cls-1" d="M186,271.21a11,11,0,0,0-11,11v19.44a5,5,0,1,1-10,0V282.4a21.05,21.05,0,0,1,21-21H186a4.93,4.93,0,0,1,0,9.86Z"/><path class="cls-1" d="M55.43,41.27a5,5,0,1,0,7-7.05L44.72,16.48a5,5,0,0,0-7,7.05Z"/><path class="cls-2" d="M233.39,106.56a5,5,0,0,1-7-7l17.77-17.74a5,5,0,0,1,7,7Z"/><path class="cls-2" d="M18.41,46.59a5,5,0,1,1-10,0V11.38a5,5,0,0,1,10,0Z"/><path class="cls-1" d="M191.86,110.16a5,5,0,1,1-10,0V75a5,5,0,0,1,10,0Z"/><path class="cls-2" d="M146.3,50.19a5,5,0,0,1-7.05-7L174.87,7.55a5,5,0,0,1,7,7.05Z"/><path class="cls-2" d="M45.54,113.88a5,5,0,0,0,7.05-7L17,71.24a5,5,0,0,0-7,7.05Z"/><circle class="cls-2" cx="202.74" cy="33.97" r="4.99"/><circle class="cls-2" cx="130.02" cy="17.1" r="4.99"/><circle class="cls-2" cx="135.01" cy="94.16" r="4.99"/><circle class="cls-2" cx="269.22" cy="108.02" r="4.99"/><path class="cls-2" d="M106.48,41.79a11,11,0,0,1-11-11V11.31a5,5,0,1,0-10,0V30.6a21.06,21.06,0,0,0,21,21h.06a4.93,4.93,0,0,0,0-9.86Z"/><path class="cls-1" d="M231.61,41.79a11,11,0,0,0,11-11V11.31a5,5,0,1,1,10,0V30.6a21.06,21.06,0,0,1-21,21h-.06a4.93,4.93,0,0,1,0-9.86Z"/><path class="cls-1" d="M205.62,159a5,5,0,0,0-7.05,7l17.77,17.74a5,5,0,1,0,7-7.05Z"/><path class="cls-2" d="M242.65,136.94a5,5,0,1,1,10,0v35.21a5,5,0,0,1-10,0Z"/><path class="cls-2" d="M114.76,133.34a5,5,0,0,1,7,7L86.19,176a5,5,0,1,1-7-7.05Z"/><circle class="cls-2" cx="58.32" cy="149.56" r="4.99"/><circle class="cls-2" cx="131.04" cy="166.43" r="4.99"/><path class="cls-2" d="M154.58,141.74a11,11,0,0,1,11,11v19.44a5,5,0,1,0,10,0V152.93a21.05,21.05,0,0,0-21-21.05h-.06a4.93,4.93,0,0,0,0,9.86Z"/><path class="cls-1" d="M29.44,141.74a11,11,0,0,0-11,11v19.44a5,5,0,1,1-10,0V152.93a21,21,0,0,1,21-21.05h.06a4.93,4.93,0,0,1,0,9.86Z"/><path class="cls-1" d="M75.1,105.36a11,11,0,0,0,11-11V74.88a5,5,0,1,1,10,0V94.17a21,21,0,0,1-21,21h-.06a4.93,4.93,0,0,1,0-9.86Z"/><path class="cls-1" d="M324.23,41.27a5,5,0,1,0,7-7.05L313.51,16.48a5,5,0,0,0-7.05,7.05Z"/><path class="cls-2" d="M502.19,106.56a5,5,0,1,1-7.05-7l17.77-17.74a5,5,0,0,1,7.05,7Z"/><path class="cls-2" d="M287.2,46.59a5,5,0,1,1-10,0V11.38a5,5,0,0,1,10,0Z"/><path class="cls-1" d="M460.66,110.16a5,5,0,1,1-10,0V75a5,5,0,0,1,10,0Z"/><path class="cls-2" d="M415.09,50.19a5,5,0,0,1-7-7L443.66,7.55a5,5,0,0,1,7,7.05Z"/><path class="cls-2" d="M314.34,113.88a5,5,0,1,0,7.05-7L285.77,71.24a5,5,0,0,0-7,7.05Z"/><circle class="cls-2" cx="471.54" cy="33.97" r="4.99"/><circle class="cls-2" cx="398.82" cy="17.1" r="4.99"/><circle class="cls-2" cx="403.8" cy="94.16" r="4.99"/><path class="cls-2" d="M375.27,41.79a11,11,0,0,1-11-11V11.31a5,5,0,1,0-10,0V30.6a21.06,21.06,0,0,0,21,21h.06a4.93,4.93,0,0,0,0-9.86Z"/><path class="cls-1" d="M500.41,41.79a11,11,0,0,0,11-11V11.31a5,5,0,1,1,10,0V30.6a21.06,21.06,0,0,1-21,21h-.06a4.93,4.93,0,0,1,0-9.86Z"/><path class="cls-1" d="M474.42,142.26a5,5,0,1,0-7.05,7.05l17.77,17.74a5,5,0,0,0,7.05-7.05Z"/><path class="cls-2" d="M511.45,136.94a5,5,0,1,1,10,0v35.21a5,5,0,0,1-10,0Z"/><path class="cls-2" d="M383.55,133.34a5,5,0,1,1,7.05,7L355,176a5,5,0,0,1-7.05-7.05Z"/><circle class="cls-2" cx="327.11" cy="149.56" r="4.99"/><circle class="cls-2" cx="399.83" cy="166.43" r="4.99"/><path class="cls-2" d="M423.38,141.74a11,11,0,0,1,11,11v19.44a5,5,0,1,0,10,0V152.93a21,21,0,0,0-21-21.05h-.06a4.93,4.93,0,0,0,0,9.86Z"/><path class="cls-1" d="M298.24,141.74a11,11,0,0,0-11,11v19.44a5,5,0,1,1-10,0V152.93a21.05,21.05,0,0,1,21-21.05h.06a4.93,4.93,0,0,1,0,9.86Z"/><path class="cls-1" d="M343.89,105.36a11,11,0,0,0,11-11V74.88a5,5,0,1,1,10,0V94.17a21.05,21.05,0,0,1-21,21h-.06a4.93,4.93,0,0,1,0-9.86Z"/><path class="cls-1" d="M474.42,718a5,5,0,1,0-7.05,7l17.77,17.73a5,5,0,0,0,7.05-7Z"/><path class="cls-2" d="M296.46,652.71a5,5,0,1,1,7.05,7L285.74,677.5a5,5,0,0,1-7.05-7Z"/><path class="cls-2" d="M511.45,712.68a5,5,0,0,1,10,0v35.21a5,5,0,1,1-10,0Z"/><path class="cls-1" d="M338,649.11a5,5,0,1,1,10,0v35.21a5,5,0,0,1-10,0Z"/><path class="cls-2" d="M383.55,709.08a5,5,0,1,1,7.05,7L355,751.72a5,5,0,0,1-7.05-7.05Z"/><path class="cls-2" d="M484.31,645.4a5,5,0,1,0-7.05,7.05L512.87,688a5,5,0,0,0,7-7Z"/><circle class="cls-2" cx="327.11" cy="725.3" r="4.99"/><circle class="cls-2" cx="399.83" cy="742.18" r="4.99"/><circle class="cls-2" cx="394.85" cy="665.11" r="4.99"/><circle class="cls-2" cx="260.64" cy="651.25" r="4.99"/><path class="cls-2" d="M423.38,717.49a11,11,0,0,1,11,11V748a5,5,0,0,0,10,0v-19.3a21.05,21.05,0,0,0-21-21h-.06a4.94,4.94,0,0,0,0,9.87Z"/><path class="cls-1" d="M298.24,717.49a11,11,0,0,0-11,11V748a5,5,0,0,1-10,0v-19.3a21.06,21.06,0,0,1,21-21h.06a4.94,4.94,0,0,1,0,9.87Z"/><path class="cls-1" d="M324.23,594.46a5,5,0,0,0,7-7.05l-17.77-17.74a5,5,0,1,0-7.05,7.05Z"/><path class="cls-2" d="M287.2,622.34a5,5,0,0,1-10,0V587.13a5,5,0,1,1,10,0Z"/><path class="cls-2" d="M415.09,625.93a5,5,0,0,1-7-7l35.62-35.59a5,5,0,0,1,7,7.05Z"/><circle class="cls-2" cx="471.54" cy="609.72" r="4.99"/><circle class="cls-2" cx="398.82" cy="592.84" r="4.99"/><path class="cls-2" d="M375.27,617.53a11,11,0,0,1-11-11V587.05a5,5,0,0,0-10,0v19.29a21.05,21.05,0,0,0,21,21h.06a4.94,4.94,0,0,0,0-9.87Z"/><path class="cls-1" d="M500.41,617.53a11,11,0,0,0,11-11V587.05a5,5,0,0,1,10,0v19.29a21.05,21.05,0,0,1-21,21h-.06a4.94,4.94,0,0,1,0-9.87Z"/><path class="cls-1" d="M454.76,653.91a11,11,0,0,0-11,11v19.44a5,5,0,1,1-10,0V665.1a21.05,21.05,0,0,1,21-21.05h.06a4.93,4.93,0,0,1,0,9.86Z"/><path class="cls-1" d="M205.62,718a5,5,0,0,0-7.05,7l17.77,17.73a5,5,0,1,0,7-7Z"/><path class="cls-2" d="M27.66,652.71a5,5,0,1,1,7.05,7L17,677.5a5,5,0,0,1-7-7Z"/><path class="cls-2" d="M242.65,712.68a5,5,0,0,1,10,0v35.21a5,5,0,1,1-10,0Z"/><path class="cls-1" d="M69.19,649.11a5,5,0,1,1,10,0v35.21a5,5,0,0,1-10,0Z"/><path class="cls-2" d="M114.76,709.08a5,5,0,0,1,7,7L86.19,751.72a5,5,0,0,1-7-7.05Z"/><path class="cls-2" d="M215.51,645.4a5,5,0,1,0-7,7.05L244.08,688a5,5,0,1,0,7-7Z"/><circle class="cls-2" cx="58.32" cy="725.3" r="4.99"/><circle class="cls-2" cx="131.04" cy="742.18" r="4.99"/><circle class="cls-2" cx="126.05" cy="665.11" r="4.99"/><path class="cls-2" d="M154.58,717.49a11,11,0,0,1,11,11V748a5,5,0,0,0,10,0v-19.3a21.06,21.06,0,0,0-21-21h-.06a4.94,4.94,0,0,0,0,9.87Z"/><path class="cls-1" d="M29.44,717.49a11,11,0,0,0-11,11V748a5,5,0,0,1-10,0v-19.3a21.05,21.05,0,0,1,21-21h.06a4.94,4.94,0,0,1,0,9.87Z"/><path class="cls-1" d="M55.43,617a5,5,0,0,0,7-7L44.72,592.22a5,5,0,0,0-7,7Z"/><path class="cls-2" d="M18.41,622.34a5,5,0,0,1-10,0V587.13a5,5,0,1,1,10,0Z"/><path class="cls-2" d="M146.3,625.93a5,5,0,0,1-7.05-7l35.62-35.59a5,5,0,0,1,7,7.05Z"/><circle class="cls-2" cx="202.74" cy="609.72" r="4.99"/><circle class="cls-2" cx="130.02" cy="592.84" r="4.99"/><path class="cls-2" d="M106.48,617.53a11,11,0,0,1-11-11V587.05a5,5,0,0,0-10,0v19.29a21.05,21.05,0,0,0,21,21h.06a4.94,4.94,0,0,0,0-9.87Z"/><path class="cls-1" d="M231.61,617.53a11,11,0,0,0,11-11V587.05a5,5,0,0,1,10,0v19.29a21.05,21.05,0,0,1-21,21h-.06a4.94,4.94,0,0,1,0-9.87Z"/><path class="cls-1" d="M186,653.91a11,11,0,0,0-11,11v19.44a5,5,0,1,1-10,0V665.1a21.05,21.05,0,0,1,21-21.05H186a4.93,4.93,0,0,1,0,9.86Z"/><path class="cls-1" d="M55.43,424a5,5,0,1,0,7-7.05L44.72,399.18a5,5,0,0,0-7,7.05Z"/><path class="cls-2" d="M233.39,489.26a5,5,0,1,1-7-7.05l17.77-17.74a5,5,0,0,1,7,7Z"/><path class="cls-2" d="M18.41,429.29a5,5,0,1,1-10,0V394.08a5,5,0,0,1,10,0Z"/><path class="cls-1" d="M191.86,492.86a5,5,0,1,1-10,0V457.65a5,5,0,0,1,10,0Z"/><path class="cls-2" d="M146.3,432.89a5,5,0,1,1-7.05-7.05l35.62-35.59a5,5,0,1,1,7,7.05Z"/><path class="cls-2" d="M45.54,496.58a5,5,0,0,0,7.05-7.05L17,453.94a5,5,0,0,0-7,7.05Z"/><circle class="cls-2" cx="202.74" cy="416.67" r="4.99"/><circle class="cls-2" cx="130.02" cy="399.8" r="4.99"/><circle class="cls-2" cx="135.01" cy="476.86" r="4.99"/><circle class="cls-2" cx="269.22" cy="490.72" r="4.99"/><path class="cls-2" d="M106.48,424.49a11,11,0,0,1-11-11V394a5,5,0,1,0-10,0V413.3a21.05,21.05,0,0,0,21,21.05h.06a4.93,4.93,0,0,0,0-9.86Z"/><path class="cls-1" d="M231.61,424.49a11,11,0,0,0,11-11V394a5,5,0,1,1,10,0V413.3a21.05,21.05,0,0,1-21,21.05h-.06a4.93,4.93,0,0,1,0-9.86Z"/><path class="cls-1" d="M205.62,541.72a5,5,0,0,0-7.05,7l17.77,17.74a5,5,0,1,0,7-7Z"/><path class="cls-2" d="M242.65,519.64a5,5,0,1,1,10,0v35.21a5,5,0,0,1-10,0Z"/><path class="cls-2" d="M114.76,516a5,5,0,0,1,7,7.05L86.19,558.67a5,5,0,1,1-7-7Z"/><circle class="cls-2" cx="58.32" cy="532.26" r="4.99"/><circle class="cls-2" cx="131.04" cy="549.13" r="4.99"/><path class="cls-2" d="M154.58,524.44a11,11,0,0,1,11,11v19.44a5,5,0,1,0,10,0V535.63a21.05,21.05,0,0,0-21-21h-.06a4.93,4.93,0,0,0,0,9.86Z"/><path class="cls-1" d="M29.44,524.44a11,11,0,0,0-11,11v19.44a5,5,0,1,1-10,0V535.63a21,21,0,0,1,21-21h.06a4.93,4.93,0,0,1,0,9.86Z"/><path class="cls-1" d="M75.1,488.06a11,11,0,0,0,11-11V457.58a5,5,0,0,1,10,0v19.29a21,21,0,0,1-21,21.05h-.06a4.93,4.93,0,0,1,0-9.86Z"/><path class="cls-1" d="M324.23,424a5,5,0,1,0,7-7.05l-17.77-17.74a5,5,0,0,0-7.05,7.05Z"/><path class="cls-2" d="M502.19,489.26a5,5,0,1,1-7.05-7.05l17.77-17.74a5,5,0,0,1,7.05,7Z"/><path class="cls-2" d="M287.2,429.29a5,5,0,1,1-10,0V394.08a5,5,0,0,1,10,0Z"/><path class="cls-1" d="M460.66,492.86a5,5,0,1,1-10,0V457.65a5,5,0,0,1,10,0Z"/><path class="cls-2" d="M415.09,432.89a5,5,0,1,1-7-7.05l35.62-35.59a5,5,0,1,1,7,7.05Z"/><path class="cls-2" d="M314.34,496.58a5,5,0,0,0,7.05-7.05l-35.62-35.59a5,5,0,0,0-7,7.05Z"/><circle class="cls-2" cx="471.54" cy="416.67" r="4.99"/><circle class="cls-2" cx="398.82" cy="399.8" r="4.99"/><circle class="cls-2" cx="403.8" cy="476.86" r="4.99"/><path class="cls-2" d="M375.27,424.49a11,11,0,0,1-11-11V394a5,5,0,1,0-10,0V413.3a21.05,21.05,0,0,0,21,21.05h.06a4.93,4.93,0,0,0,0-9.86Z"/><path class="cls-1" d="M500.41,424.49a11,11,0,0,0,11-11V394a5,5,0,1,1,10,0V413.3a21.05,21.05,0,0,1-21,21.05h-.06a4.93,4.93,0,0,1,0-9.86Z"/><path class="cls-1" d="M474.42,525a5,5,0,1,0-7.05,7l17.77,17.74a5,5,0,0,0,7.05-7Z"/><path class="cls-2" d="M511.45,519.64a5,5,0,1,1,10,0v35.21a5,5,0,0,1-10,0Z"/><path class="cls-2" d="M383.55,516a5,5,0,0,1,7.05,7.05L355,558.67a5,5,0,0,1-7.05-7Z"/><circle class="cls-2" cx="327.11" cy="532.26" r="4.99"/><circle class="cls-2" cx="399.83" cy="549.13" r="4.99"/><path class="cls-2" d="M423.38,524.44a11,11,0,0,1,11,11v19.44a5,5,0,1,0,10,0V535.63a21,21,0,0,0-21-21h-.06a4.93,4.93,0,0,0,0,9.86Z"/><path class="cls-1" d="M298.24,524.44a11,11,0,0,0-11,11v19.44a5,5,0,1,1-10,0V535.63a21.05,21.05,0,0,1,21-21h.06a4.93,4.93,0,0,1,0,9.86Z"/><path class="cls-1" d="M343.89,488.06a11,11,0,0,0,11-11V457.58a5,5,0,0,1,10,0v19.29a21.05,21.05,0,0,1-21,21.05h-.06a4.93,4.93,0,0,1,0-9.86Z"/><path class="cls-2" d="M1243.32,270a5,5,0,0,1,7,7.05L1232.6,294.8a5,5,0,1,1-7-7.05Z"/><path class="cls-1" d="M1284.85,266.41a5,5,0,1,1,10,0v35.21a5,5,0,0,1-10,0Z"/><path class="cls-2" d="M1330.41,326.38a5,5,0,0,1,7,7.05L1301.85,369a5,5,0,1,1-7-7Z"/><circle class="cls-2" cx="1273.97" cy="342.6" r="4.99"/><circle class="cls-2" cx="1346.69" cy="359.47" r="4.99"/><circle class="cls-2" cx="1341.71" cy="282.41" r="4.99"/><circle class="cls-2" cx="1207.5" cy="268.55" r="4.99"/><path class="cls-1" d="M1245.1,334.78a11,11,0,0,0-11,11v19.44a5,5,0,1,1-10,0V346a21.06,21.06,0,0,1,21-21.05h.06a4.93,4.93,0,0,1,0,9.86Z"/><path class="cls-1" d="M1271.09,211.76a5,5,0,1,0,7.05-7L1260.37,187a5,5,0,1,0-7,7.05Z"/><path class="cls-2" d="M1234.06,239.64a5,5,0,0,1-10,0V204.43a5,5,0,1,1,10,0Z"/><circle class="cls-2" cx="1345.68" cy="210.14" r="4.99"/><path class="cls-2" d="M1322.13,234.83a11,11,0,0,1-11-11V204.35a5,5,0,0,0-10,0v19.29a21.05,21.05,0,0,0,21,21.05h.06a4.93,4.93,0,0,0,0-9.86Z"/><path class="cls-1" d="M1152.48,335.31a5,5,0,1,0-7,7.05l17.77,17.73a5,5,0,0,0,7-7Z"/><path class="cls-2" d="M1189.51,330a5,5,0,0,1,10,0v35.21a5,5,0,1,1-10,0Z"/><path class="cls-2" d="M1162.38,262.69a5,5,0,0,0-7.05,7.05l35.61,35.59a5,5,0,1,0,7-7.05Z"/><circle class="cls-2" cx="1077.9" cy="359.47" r="4.99"/><circle class="cls-2" cx="1072.91" cy="282.41" r="4.99"/><path class="cls-2" d="M1101.44,334.78a11,11,0,0,1,11,11v19.44a5,5,0,1,0,10,0V346a21.06,21.06,0,0,0-21-21.05h-.06a4.93,4.93,0,0,0,0,9.86Z"/><path class="cls-2" d="M1093.16,243.23a5,5,0,0,1-7.05-7l35.62-35.58a5,5,0,1,1,7,7.05Z"/><circle class="cls-2" cx="1149.6" cy="227.02" r="4.99"/><circle class="cls-2" cx="1076.88" cy="210.14" r="4.99"/><path class="cls-1" d="M1178.48,234.83a11,11,0,0,0,11-11V204.35a5,5,0,0,1,10,0v19.29a21,21,0,0,1-21,21.05h-.06a4.93,4.93,0,0,1,0-9.86Z"/><path class="cls-1" d="M1132.82,271.21a11,11,0,0,0-11,11v19.44a5,5,0,1,1-10,0V282.4a21,21,0,0,1,21-21h.06a4.93,4.93,0,0,1,0,9.86Z"/><path class="cls-2" d="M1180.25,106.56a5,5,0,1,1-7-7L1191,81.77a5,5,0,0,1,7,7Z"/><path class="cls-1" d="M1138.73,110.16a5,5,0,1,1-10,0V75a5,5,0,0,1,10,0Z"/><path class="cls-2" d="M1093.16,50.19a5,5,0,0,1-7.05-7l35.62-35.59a5,5,0,1,1,7,7.05Z"/><circle class="cls-2" cx="1149.6" cy="33.97" r="4.99"/><circle class="cls-2" cx="1076.88" cy="17.1" r="4.99"/><circle class="cls-2" cx="1081.87" cy="94.16" r="4.99"/><circle class="cls-2" cx="1216.08" cy="108.02" r="4.99"/><path class="cls-1" d="M1178.48,41.79a11,11,0,0,0,11-11V11.31a5,5,0,1,1,10,0V30.6a21.05,21.05,0,0,1-21,21h-.06a4.93,4.93,0,0,1,0-9.86Z"/><path class="cls-1" d="M1152.48,159a5,5,0,1,0-7,7l17.77,17.74a5,5,0,0,0,7-7.05Z"/><path class="cls-2" d="M1189.51,136.94a5,5,0,1,1,10,0v35.21a5,5,0,0,1-10,0Z"/><circle class="cls-2" cx="1077.9" cy="166.43" r="4.99"/><path class="cls-2" d="M1101.44,141.74a11,11,0,0,1,11,11v19.44a5,5,0,1,0,10,0V152.93a21.05,21.05,0,0,0-21-21.05h-.06a4.93,4.93,0,0,0,0,9.86Z"/><path class="cls-1" d="M1271.09,41.27a5,5,0,1,0,7.05-7.05l-17.77-17.74a5,5,0,1,0-7,7.05Z"/><path class="cls-2" d="M1234.06,46.59a5,5,0,1,1-10,0V11.38a5,5,0,0,1,10,0Z"/><path class="cls-2" d="M1261.2,113.88a5,5,0,0,0,7-7l-35.62-35.59a5,5,0,0,0-7.05,7.05Z"/><circle class="cls-2" cx="1345.68" cy="17.1" r="4.99"/><circle class="cls-2" cx="1350.66" cy="94.16" r="4.99"/><path class="cls-2" d="M1322.13,41.79a11,11,0,0,1-11-11V11.31a5,5,0,1,0-10,0V30.6a21.06,21.06,0,0,0,21,21h.06a4.93,4.93,0,0,0,0-9.86Z"/><path class="cls-2" d="M1330.41,133.34a5,5,0,0,1,7,7L1301.85,176a5,5,0,1,1-7-7.05Z"/><circle class="cls-2" cx="1273.97" cy="149.56" r="4.99"/><circle class="cls-2" cx="1346.69" cy="166.43" r="4.99"/><path class="cls-1" d="M1245.1,141.74a11,11,0,0,0-11,11v19.44a5,5,0,1,1-10,0V152.93a21.05,21.05,0,0,1,21-21.05h.06a4.93,4.93,0,0,1,0,9.86Z"/><path class="cls-1" d="M1290.75,105.36a11,11,0,0,0,11-11V74.88a5,5,0,1,1,10,0V94.17a21.05,21.05,0,0,1-21,21h-.06a4.93,4.93,0,0,1,0-9.86Z"/><path class="cls-1" d="M858.41,977.16a5,5,0,0,0,7.05-7l-17.77-17.73a5,5,0,1,0-7.05,7Z"/><path class="cls-2" d="M821.38,1005a5,5,0,0,1-10,0V969.83a5,5,0,1,1,10,0Z"/><path class="cls-2" d="M949.28,1008.64a5,5,0,0,1-7-7L977.84,966a5,5,0,0,1,7,7Z"/><circle class="cls-2" cx="1005.72" cy="992.42" r="4.99"/><circle class="cls-2" cx="933" cy="975.55" r="4.99"/><path class="cls-2" d="M909.45,1000.24a11,11,0,0,1-11-11V969.75a5,5,0,0,0-10,0v19.3a21.06,21.06,0,0,0,21,21.05h.06a4.93,4.93,0,0,0,0-9.86Z"/><path class="cls-1" d="M1034.59,1000.24a11,11,0,0,0,11-11V969.75a5,5,0,0,1,10,0v19.3a21.06,21.06,0,0,1-21,21.05h-.07a4.93,4.93,0,0,1,0-9.86Z"/><path class="cls-1" d="M589.62,999.71a5,5,0,0,0,7-7.05L578.9,974.93a5,5,0,1,0-7,7.05Z"/><path class="cls-2" d="M552.59,1005a5,5,0,0,1-10,0V969.83a5,5,0,1,1,10,0Z"/><path class="cls-2" d="M680.48,1008.64a5,5,0,1,1-7.05-7L709.05,966a5,5,0,1,1,7.05,7Z"/><circle class="cls-2" cx="736.92" cy="992.42" r="4.99"/><circle class="cls-2" cx="664.2" cy="975.55" r="4.99"/><path class="cls-2" d="M640.66,1000.24a11,11,0,0,1-11-11V969.75a5,5,0,0,0-10,0v19.3a21.06,21.06,0,0,0,21,21.05h.06a4.93,4.93,0,0,0,0-9.86Z"/><path class="cls-1" d="M765.79,1000.24a11,11,0,0,0,11-11V969.75a5,5,0,0,1,10,0v19.3a21.05,21.05,0,0,1-21,21.05h-.06a4.93,4.93,0,0,1,0-9.86Z"/><path class="cls-1" d="M589.62,806.67a5,5,0,0,0,7-7L578.9,781.88a5,5,0,0,0-7,7Z"/><path class="cls-2" d="M767.57,872a5,5,0,0,1-7.05-7.05l17.77-17.74a5,5,0,1,1,7.05,7.05Z"/><path class="cls-2" d="M552.59,812a5,5,0,1,1-10,0V776.78a5,5,0,0,1,10,0Z"/><path class="cls-1" d="M726.05,875.57a5,5,0,0,1-10,0V840.36a5,5,0,1,1,10,0Z"/><path class="cls-2" d="M680.48,815.59a5,5,0,1,1-7.05-7.05L709.05,773a5,5,0,1,1,7.05,7Z"/><path class="cls-2" d="M579.72,879.28a5,5,0,0,0,7-7l-35.61-35.59a5,5,0,1,0-7,7.05Z"/><circle class="cls-2" cx="736.92" cy="799.37" r="4.99"/><circle class="cls-2" cx="664.2" cy="782.5" r="4.99"/><circle class="cls-2" cx="669.19" cy="859.57" r="4.99"/><circle class="cls-2" cx="803.4" cy="873.42" r="4.99"/><path class="cls-2" d="M640.66,807.19a11,11,0,0,1-11-11V776.71a5,5,0,0,0-10,0V796a21.05,21.05,0,0,0,21,21h.06a4.93,4.93,0,0,0,0-9.86Z"/><path class="cls-1" d="M765.79,807.19a11,11,0,0,0,11-11V776.71a5,5,0,0,1,10,0V796a21,21,0,0,1-21,21h-.06a4.93,4.93,0,0,1,0-9.86Z"/><path class="cls-1" d="M739.8,924.42a5,5,0,1,0-7,7.05l17.77,17.74a5,5,0,0,0,7.05-7.05Z"/><path class="cls-2" d="M776.83,902.34a5,5,0,1,1,10,0v35.21a5,5,0,0,1-10,0Z"/><path class="cls-2" d="M648.94,898.74a5,5,0,0,1,7,7l-35.62,35.59a5,5,0,0,1-7-7Z"/><circle class="cls-2" cx="592.5" cy="914.96" r="4.99"/><circle class="cls-2" cx="665.22" cy="931.83" r="4.99"/><path class="cls-2" d="M688.76,907.14a11,11,0,0,1,11,11v19.44a5,5,0,1,0,10,0V918.33a21.06,21.06,0,0,0-21-21.05h-.06a4.93,4.93,0,0,0,0,9.86Z"/><path class="cls-1" d="M563.62,907.14a11,11,0,0,0-11,11v19.44a5,5,0,1,1-10,0V918.33a21.05,21.05,0,0,1,21-21.05h.06a4.93,4.93,0,0,1,0,9.86Z"/><path class="cls-1" d="M609.28,870.76a11,11,0,0,0,11-11V840.28a5,5,0,0,1,10,0v19.29a21.05,21.05,0,0,1-21,21.06h-.06a4.94,4.94,0,0,1,0-9.87Z"/><path class="cls-1" d="M858.41,806.67a5,5,0,0,0,7.05-7l-17.77-17.74a5,5,0,1,0-7.05,7Z"/><path class="cls-2" d="M1036.37,872a5,5,0,1,1-7-7.05l17.77-17.74a5,5,0,1,1,7.05,7.05Z"/><path class="cls-2" d="M821.38,812a5,5,0,1,1-10,0V776.78a5,5,0,0,1,10,0Z"/><path class="cls-1" d="M994.84,875.57a5,5,0,0,1-10,0V840.36a5,5,0,1,1,10,0Z"/><path class="cls-2" d="M949.28,815.59a5,5,0,1,1-7-7.05L977.84,773a5,5,0,0,1,7,7Z"/><path class="cls-2" d="M848.52,879.28a5,5,0,1,0,7.05-7L820,836.64a5,5,0,1,0-7.05,7.05Z"/><circle class="cls-2" cx="1005.72" cy="799.37" r="4.99"/><circle class="cls-2" cx="933" cy="782.5" r="4.99"/><circle class="cls-2" cx="937.98" cy="859.57" r="4.99"/><path class="cls-2" d="M909.45,807.19a11,11,0,0,1-11-11V776.71a5,5,0,0,0-10,0V796a21.05,21.05,0,0,0,21,21h.06a4.93,4.93,0,0,0,0-9.86Z"/><path class="cls-1" d="M1034.59,807.19a11,11,0,0,0,11-11V776.71a5,5,0,0,1,10,0V796a21.05,21.05,0,0,1-21,21h-.07a4.93,4.93,0,0,1,0-9.86Z"/><path class="cls-1" d="M1008.6,907.66a5,5,0,0,0-7.05,7.05l17.77,17.74a5,5,0,0,0,7-7.05Z"/><path class="cls-2" d="M1045.63,902.34a5,5,0,1,1,10,0v35.21a5,5,0,0,1-10,0Z"/><path class="cls-2" d="M917.73,898.74a5,5,0,0,1,7,7l-35.61,35.59a5,5,0,0,1-7-7Z"/><circle class="cls-2" cx="861.29" cy="914.96" r="4.99"/><circle class="cls-2" cx="934.01" cy="931.83" r="4.99"/><path class="cls-2" d="M957.56,907.14a11,11,0,0,1,11,11v19.44a5,5,0,0,0,10,0V918.33a21.06,21.06,0,0,0-21-21.05h-.06a4.93,4.93,0,0,0,0,9.86Z"/><path class="cls-1" d="M832.42,907.14a11,11,0,0,0-11,11v19.44a5,5,0,1,1-10,0V918.33a21.06,21.06,0,0,1,21-21.05h.06a4.93,4.93,0,0,1,0,9.86Z"/><path class="cls-1" d="M878.07,870.76a11,11,0,0,0,11-11V840.28a5,5,0,0,1,10,0v19.29a21.06,21.06,0,0,1-21,21.06h-.06a4.94,4.94,0,0,1,0-9.87Z"/><path class="cls-1" d="M324.23,977.16a5,5,0,0,0,7-7l-17.77-17.73a5,5,0,0,0-7.05,7Z"/><path class="cls-2" d="M287.2,1005a5,5,0,0,1-10,0V969.83a5,5,0,1,1,10,0Z"/><path class="cls-2" d="M415.09,1008.64a5,5,0,0,1-7-7L443.66,966a5,5,0,0,1,7,7Z"/><circle class="cls-2" cx="471.54" cy="992.42" r="4.99"/><circle class="cls-2" cx="398.82" cy="975.55" r="4.99"/><path class="cls-2" d="M375.27,1000.24a11,11,0,0,1-11-11V969.75a5,5,0,0,0-10,0v19.3a21.06,21.06,0,0,0,21,21.05h.06a4.93,4.93,0,0,0,0-9.86Z"/><path class="cls-1" d="M500.41,1000.24a11,11,0,0,0,11-11V969.75a5,5,0,0,1,10,0v19.3a21.06,21.06,0,0,1-21,21.05h-.06a4.93,4.93,0,0,1,0-9.86Z"/><path class="cls-1" d="M55.43,999.71a5,5,0,0,0,7-7.05L44.72,974.93a5,5,0,1,0-7,7.05Z"/><path class="cls-2" d="M18.41,1005a5,5,0,0,1-10,0V969.83a5,5,0,1,1,10,0Z"/><path class="cls-2" d="M146.3,1008.64a5,5,0,0,1-7.05-7L174.87,966a5,5,0,0,1,7,7Z"/><circle class="cls-2" cx="202.74" cy="992.42" r="4.99"/><circle class="cls-2" cx="130.02" cy="975.55" r="4.99"/><path class="cls-2" d="M106.48,1000.24a11,11,0,0,1-11-11V969.75a5,5,0,0,0-10,0v19.3a21.06,21.06,0,0,0,21,21.05h.06a4.93,4.93,0,0,0,0-9.86Z"/><path class="cls-1" d="M231.61,1000.24a11,11,0,0,0,11-11V969.75a5,5,0,0,1,10,0v19.3a21.06,21.06,0,0,1-21,21.05h-.06a4.93,4.93,0,0,1,0-9.86Z"/><path class="cls-1" d="M55.43,806.67a5,5,0,0,0,7-7L44.72,781.88a5,5,0,0,0-7,7Z"/><path class="cls-2" d="M233.39,872a5,5,0,0,1-7-7.05l17.77-17.74a5,5,0,1,1,7,7.05Z"/><path class="cls-2" d="M18.41,812a5,5,0,1,1-10,0V776.78a5,5,0,0,1,10,0Z"/><path class="cls-1" d="M191.86,875.57a5,5,0,0,1-10,0V840.36a5,5,0,1,1,10,0Z"/><path class="cls-2" d="M146.3,815.59a5,5,0,1,1-7.05-7.05L174.87,773a5,5,0,0,1,7,7Z"/><path class="cls-2" d="M45.54,879.28a5,5,0,0,0,7.05-7L17,836.64a5,5,0,1,0-7,7.05Z"/><circle class="cls-2" cx="202.74" cy="799.37" r="4.99"/><circle class="cls-2" cx="130.02" cy="782.5" r="4.99"/><circle class="cls-2" cx="135.01" cy="859.57" r="4.99"/><circle class="cls-2" cx="269.22" cy="873.42" r="4.99"/><path class="cls-2" d="M106.48,807.19a11,11,0,0,1-11-11V776.71a5,5,0,0,0-10,0V796a21.05,21.05,0,0,0,21,21h.06a4.93,4.93,0,0,0,0-9.86Z"/><path class="cls-1" d="M231.61,807.19a11,11,0,0,0,11-11V776.71a5,5,0,0,1,10,0V796a21.05,21.05,0,0,1-21,21h-.06a4.93,4.93,0,0,1,0-9.86Z"/><path class="cls-1" d="M205.62,924.42a5,5,0,1,0-7.05,7.05l17.77,17.74a5,5,0,0,0,7-7.05Z"/><path class="cls-2" d="M242.65,902.34a5,5,0,1,1,10,0v35.21a5,5,0,0,1-10,0Z"/><path class="cls-2" d="M114.76,898.74a5,5,0,0,1,7,7L86.19,941.38a5,5,0,1,1-7-7Z"/><circle class="cls-2" cx="58.32" cy="914.96" r="4.99"/><circle class="cls-2" cx="131.04" cy="931.83" r="4.99"/><path class="cls-2" d="M154.58,907.14a11,11,0,0,1,11,11v19.44a5,5,0,1,0,10,0V918.33a21.06,21.06,0,0,0-21-21.05h-.06a4.93,4.93,0,0,0,0,9.86Z"/><path class="cls-1" d="M29.44,907.14a11,11,0,0,0-11,11v19.44a5,5,0,1,1-10,0V918.33a21.05,21.05,0,0,1,21-21.05h.06a4.93,4.93,0,0,1,0,9.86Z"/><path class="cls-1" d="M75.1,870.76a11,11,0,0,0,11-11V840.28a5,5,0,0,1,10,0v19.29a21.05,21.05,0,0,1-21,21.06h-.06a4.94,4.94,0,0,1,0-9.87Z"/><path class="cls-1" d="M324.23,806.67a5,5,0,0,0,7-7l-17.77-17.74a5,5,0,0,0-7.05,7Z"/><path class="cls-2" d="M502.19,872a5,5,0,0,1-7.05-7.05l17.77-17.74a5,5,0,0,1,7.05,7.05Z"/><path class="cls-2" d="M287.2,812a5,5,0,1,1-10,0V776.78a5,5,0,0,1,10,0Z"/><path class="cls-1" d="M460.66,875.57a5,5,0,0,1-10,0V840.36a5,5,0,1,1,10,0Z"/><path class="cls-2" d="M415.09,815.59a5,5,0,1,1-7-7.05L443.66,773a5,5,0,0,1,7,7Z"/><path class="cls-2" d="M314.34,879.28a5,5,0,1,0,7.05-7l-35.62-35.59a5,5,0,1,0-7,7.05Z"/><circle class="cls-2" cx="471.54" cy="799.37" r="4.99"/><circle class="cls-2" cx="398.82" cy="782.5" r="4.99"/><circle class="cls-2" cx="403.8" cy="859.57" r="4.99"/><path class="cls-2" d="M375.27,807.19a11,11,0,0,1-11-11V776.71a5,5,0,0,0-10,0V796a21.05,21.05,0,0,0,21,21h.06a4.93,4.93,0,0,0,0-9.86Z"/><path class="cls-1" d="M500.41,807.19a11,11,0,0,0,11-11V776.71a5,5,0,0,1,10,0V796a21.05,21.05,0,0,1-21,21h-.06a4.93,4.93,0,0,1,0-9.86Z"/><path class="cls-1" d="M474.42,907.66a5,5,0,1,0-7.05,7.05l17.77,17.74a5,5,0,0,0,7.05-7.05Z"/><path class="cls-2" d="M511.45,902.34a5,5,0,1,1,10,0v35.21a5,5,0,0,1-10,0Z"/><path class="cls-2" d="M383.55,898.74a5,5,0,1,1,7.05,7L355,941.38a5,5,0,0,1-7.05-7Z"/><circle class="cls-2" cx="327.11" cy="914.96" r="4.99"/><circle class="cls-2" cx="399.83" cy="931.83" r="4.99"/><path class="cls-2" d="M423.38,907.14a11,11,0,0,1,11,11v19.44a5,5,0,1,0,10,0V918.33a21.05,21.05,0,0,0-21-21.05h-.06a4.93,4.93,0,0,0,0,9.86Z"/><path class="cls-1" d="M298.24,907.14a11,11,0,0,0-11,11v19.44a5,5,0,1,1-10,0V918.33a21.06,21.06,0,0,1,21-21.05h.06a4.93,4.93,0,0,1,0,9.86Z"/><path class="cls-1" d="M343.89,870.76a11,11,0,0,0,11-11V840.28a5,5,0,0,1,10,0v19.29a21.06,21.06,0,0,1-21,21.06h-.06a4.94,4.94,0,0,1,0-9.87Z"/><path class="cls-1" d="M1271.09,977.16a5,5,0,0,0,7.05-7l-17.77-17.73a5,5,0,1,0-7,7Z"/><path class="cls-2" d="M1234.06,1005a5,5,0,0,1-10,0V969.83a5,5,0,1,1,10,0Z"/><circle class="cls-2" cx="1345.68" cy="975.55" r="4.99"/><path class="cls-2" d="M1322.13,1000.24a11,11,0,0,1-11-11V969.75a5,5,0,0,0-10,0v19.3a21.06,21.06,0,0,0,21,21.05h.06a4.93,4.93,0,0,0,0-9.86Z"/><path class="cls-2" d="M1093.16,1008.64a5,5,0,0,1-7.05-7L1121.73,966a5,5,0,1,1,7,7Z"/><circle class="cls-2" cx="1149.6" cy="992.42" r="4.99"/><circle class="cls-2" cx="1076.88" cy="975.55" r="4.99"/><path class="cls-1" d="M1178.48,1000.24a11,11,0,0,0,11-11V969.75a5,5,0,0,1,10,0v19.3a21.05,21.05,0,0,1-21,21.05h-.06a4.93,4.93,0,0,1,0-9.86Z"/><path class="cls-2" d="M1180.25,872a5,5,0,1,1-7-7.05L1191,847.17a5,5,0,0,1,7,7.05Z"/><path class="cls-1" d="M1138.73,875.57a5,5,0,0,1-10,0V840.36a5,5,0,1,1,10,0Z"/><path class="cls-2" d="M1093.16,815.59a5,5,0,1,1-7.05-7.05L1121.73,773a5,5,0,1,1,7,7Z"/><circle class="cls-2" cx="1149.6" cy="799.37" r="4.99"/><circle class="cls-2" cx="1076.88" cy="782.5" r="4.99"/><circle class="cls-2" cx="1081.87" cy="859.57" r="4.99"/><circle class="cls-2" cx="1216.08" cy="873.42" r="4.99"/><path class="cls-1" d="M1178.48,807.19a11,11,0,0,0,11-11V776.71a5,5,0,0,1,10,0V796a21,21,0,0,1-21,21h-.06a4.93,4.93,0,0,1,0-9.86Z"/><path class="cls-1" d="M1152.48,924.42a5,5,0,1,0-7,7.05l17.77,17.74a5,5,0,0,0,7-7.05Z"/><path class="cls-2" d="M1189.51,902.34a5,5,0,1,1,10,0v35.21a5,5,0,0,1-10,0Z"/><circle class="cls-2" cx="1077.9" cy="931.83" r="4.99"/><path class="cls-2" d="M1101.44,907.14a11,11,0,0,1,11,11v19.44a5,5,0,1,0,10,0V918.33a21.06,21.06,0,0,0-21-21.05h-.06a4.93,4.93,0,0,0,0,9.86Z"/><path class="cls-1" d="M1271.09,806.67a5,5,0,0,0,7.05-7l-17.77-17.74a5,5,0,1,0-7,7Z"/><path class="cls-2" d="M1234.06,812a5,5,0,1,1-10,0V776.78a5,5,0,0,1,10,0Z"/><path class="cls-2" d="M1261.2,879.28a5,5,0,0,0,7-7l-35.62-35.59a5,5,0,1,0-7.05,7.05Z"/><circle class="cls-2" cx="1345.68" cy="782.5" r="4.99"/><circle class="cls-2" cx="1350.66" cy="859.57" r="4.99"/><path class="cls-2" d="M1322.13,807.19a11,11,0,0,1-11-11V776.71a5,5,0,0,0-10,0V796a21.05,21.05,0,0,0,21,21h.06a4.93,4.93,0,0,0,0-9.86Z"/><path class="cls-2" d="M1330.41,898.74a5,5,0,0,1,7,7l-35.61,35.59a5,5,0,1,1-7-7Z"/><circle class="cls-2" cx="1273.97" cy="914.96" r="4.99"/><circle class="cls-2" cx="1346.69" cy="931.83" r="4.99"/><path class="cls-1" d="M1245.1,907.14a11,11,0,0,0-11,11v19.44a5,5,0,1,1-10,0V918.33a21.06,21.06,0,0,1,21-21.05h.06a4.93,4.93,0,0,1,0,9.86Z"/><path class="cls-1" d="M1290.75,870.76a11,11,0,0,0,11-11V840.28a5,5,0,0,1,10,0v19.29a21.06,21.06,0,0,1-21,21.06h-.06a4.94,4.94,0,0,1,0-9.87Z"/><path class="cls-2" d="M1243.32,652.71a5,5,0,0,1,7,7L1232.6,677.5a5,5,0,1,1-7-7Z"/><path class="cls-1" d="M1284.85,649.11a5,5,0,1,1,10,0v35.21a5,5,0,0,1-10,0Z"/><path class="cls-2" d="M1330.41,709.08a5,5,0,0,1,7,7l-35.61,35.59a5,5,0,1,1-7-7.05Z"/><circle class="cls-2" cx="1273.97" cy="725.3" r="4.99"/><circle class="cls-2" cx="1346.69" cy="742.18" r="4.99"/><circle class="cls-2" cx="1341.71" cy="665.11" r="4.99"/><circle class="cls-2" cx="1207.5" cy="651.25" r="4.99"/><path class="cls-1" d="M1245.1,717.49a11,11,0,0,0-11,11V748a5,5,0,0,1-10,0v-19.3a21.06,21.06,0,0,1,21-21h.06a4.94,4.94,0,0,1,0,9.87Z"/><path class="cls-1" d="M1271.09,594.46a5,5,0,0,0,7.05-7.05l-17.77-17.74a5,5,0,1,0-7,7.05Z"/><path class="cls-2" d="M1234.06,622.34a5,5,0,0,1-10,0V587.13a5,5,0,1,1,10,0Z"/><circle class="cls-2" cx="1345.68" cy="592.84" r="4.99"/><path class="cls-2" d="M1322.13,617.53a11,11,0,0,1-11-11V587.05a5,5,0,0,0-10,0v19.29a21.05,21.05,0,0,0,21,21h.06a4.94,4.94,0,0,0,0-9.87Z"/><path class="cls-1" d="M1152.48,718a5,5,0,1,0-7,7l17.77,17.73a5,5,0,0,0,7-7Z"/><path class="cls-2" d="M1189.51,712.68a5,5,0,0,1,10,0v35.21a5,5,0,1,1-10,0Z"/><path class="cls-2" d="M1162.38,645.4a5,5,0,1,0-7.05,7.05L1190.94,688a5,5,0,1,0,7-7Z"/><circle class="cls-2" cx="1077.9" cy="742.18" r="4.99"/><circle class="cls-2" cx="1072.91" cy="665.11" r="4.99"/><path class="cls-2" d="M1101.44,717.49a11,11,0,0,1,11,11V748a5,5,0,0,0,10,0v-19.3a21.06,21.06,0,0,0-21-21h-.06a4.94,4.94,0,0,0,0,9.87Z"/><path class="cls-2" d="M1093.16,625.93a5,5,0,0,1-7.05-7l35.62-35.59a5,5,0,1,1,7,7.05Z"/><circle class="cls-2" cx="1149.6" cy="609.72" r="4.99"/><circle class="cls-2" cx="1076.88" cy="592.84" r="4.99"/><path class="cls-1" d="M1178.48,617.53a11,11,0,0,0,11-11V587.05a5,5,0,0,1,10,0v19.29a21,21,0,0,1-21,21h-.06a4.94,4.94,0,0,1,0-9.87Z"/><path class="cls-1" d="M1132.82,653.91a11,11,0,0,0-11,11v19.44a5,5,0,1,1-10,0V665.1a21,21,0,0,1,21-21.05h.06a4.93,4.93,0,0,1,0,9.86Z"/><path class="cls-2" d="M1180.25,489.26a5,5,0,1,1-7-7.05L1191,464.47a5,5,0,0,1,7,7Z"/><path class="cls-1" d="M1138.73,492.86a5,5,0,1,1-10,0V457.65a5,5,0,0,1,10,0Z"/><path class="cls-2" d="M1093.16,432.89a5,5,0,1,1-7.05-7.05l35.62-35.59a5,5,0,1,1,7,7.05Z"/><circle class="cls-2" cx="1149.6" cy="416.67" r="4.99"/><circle class="cls-2" cx="1076.88" cy="399.8" r="4.99"/><circle class="cls-2" cx="1081.87" cy="476.86" r="4.99"/><circle class="cls-2" cx="1216.08" cy="490.72" r="4.99"/><path class="cls-1" d="M1178.48,424.49a11,11,0,0,0,11-11V394a5,5,0,1,1,10,0V413.3a21,21,0,0,1-21,21.05h-.06a4.93,4.93,0,0,1,0-9.86Z"/><path class="cls-1" d="M1152.48,541.72a5,5,0,1,0-7,7l17.77,17.74a5,5,0,0,0,7-7Z"/><path class="cls-2" d="M1189.51,519.64a5,5,0,1,1,10,0v35.21a5,5,0,0,1-10,0Z"/><circle class="cls-2" cx="1077.9" cy="549.13" r="4.99"/><path class="cls-2" d="M1101.44,524.44a11,11,0,0,1,11,11v19.44a5,5,0,1,0,10,0V535.63a21.05,21.05,0,0,0-21-21h-.06a4.93,4.93,0,0,0,0,9.86Z"/><path class="cls-1" d="M1271.09,424a5,5,0,1,0,7.05-7.05l-17.77-17.74a5,5,0,1,0-7,7.05Z"/><path class="cls-2" d="M1234.06,429.29a5,5,0,1,1-10,0V394.08a5,5,0,0,1,10,0Z"/><path class="cls-2" d="M1261.2,496.58a5,5,0,0,0,7-7.05l-35.62-35.59a5,5,0,0,0-7.05,7.05Z"/><circle class="cls-2" cx="1345.68" cy="399.8" r="4.99"/><circle class="cls-2" cx="1350.66" cy="476.86" r="4.99"/><path class="cls-2" d="M1322.13,424.49a11,11,0,0,1-11-11V394a5,5,0,1,0-10,0V413.3a21.05,21.05,0,0,0,21,21.05h.06a4.93,4.93,0,0,0,0-9.86Z"/><path class="cls-2" d="M1330.41,516a5,5,0,0,1,7,7.05l-35.61,35.58a5,5,0,1,1-7-7Z"/><circle class="cls-2" cx="1273.97" cy="532.26" r="4.99"/><circle class="cls-2" cx="1346.69" cy="549.13" r="4.99"/><path class="cls-1" d="M1245.1,524.44a11,11,0,0,0-11,11v19.44a5,5,0,1,1-10,0V535.63a21.05,21.05,0,0,1,21-21h.06a4.93,4.93,0,0,1,0,9.86Z"/><path class="cls-1" d="M1290.75,488.06a11,11,0,0,0,11-11V457.58a5,5,0,0,1,10,0v19.29a21.05,21.05,0,0,1-21,21.05h-.06a4.93,4.93,0,0,1,0-9.86Z"/></svg>